<?xml version="1.0" encoding="utf-8"?>
<!-- Generator: Adobe Illustrator 23.0.0, SVG Export Plug-In . SVG Version: 6.00 Build 0)  -->
<svg version="1.1" id="Capa_1" xmlns="http://www.w3.org/2000/svg" xmlns:xlink="http://www.w3.org/1999/xlink" x="0px" y="0px"
	 width="70px" height="70px" viewBox="0 0 70 70" style="enable-background:new 0 0 70 70;" xml:space="preserve">
<style type="text/css">
	.st0{fill:#FDB62F;}
	.st1{fill:#FD7B2F;}
	.st2{fill:#FFA230;}
	.st3{fill:#FA962A;}
	.st4{fill:#F46B27;}
	.st5{fill:#126099;}
</style>
<rect x="31.4" class="st0" width="38.6" height="70"/>
<rect x="47.1" class="st1" width="7.2" height="7.2"/>
<g>
	<path class="st2" d="M31.4,59.1V70H70V31.9C58.5,46.1,43.7,53.2,31.4,59.1z"/>
	<rect y="37.4" class="st2" width="31.4" height="32.6"/>
</g>
<path class="st3" d="M0,70h31.4V51.9c-10,8.7-22,11.5-31.4,12.2V70z"/>
<rect x="2.4" y="13.3" class="st2" width="24.1" height="24.1"/>
<path class="st3" d="M2.4,37.4h24.1V25.8c-7.7,5.5-16.9,7.4-24.1,7.8C2.4,33.7,2.4,37.4,2.4,37.4z"/>
<rect x="12.1" y="37.4" class="st4" width="7.2" height="7.2"/>
<rect x="10.9" y="13.3" class="st1" width="7.2" height="7.2"/>
<g>
	<path class="st5" d="M55.5,53.1h-7.2c-0.7,0-1.2,0.5-1.2,1.2v2.4c0,2.2,1.5,4.1,3.6,4.7V64h-2.4v2.4h7.2V64h-2.4v-2.6
		c2.1-0.5,3.6-2.5,3.6-4.7v-2.4C56.7,53.6,56.2,53.1,55.5,53.1z M54.3,56.7c0,1.3-1.1,2.4-2.4,2.4s-2.4-1.1-2.4-2.4v-1.2h4.8V56.7z"
		/>
	<rect x="59.1" y="64" class="st5" width="7.2" height="2.4"/>
	<path class="st5" d="M61.6,57.2v4.3H64v-4.3l1.6,1.6l1.7-1.7l-3.6-3.6c-0.5-0.5-1.2-0.5-1.7,0c0,0,0,0,0,0l-3.6,3.6l1.7,1.7
		L61.6,57.2z"/>
	<path class="st5" d="M39.8,53.1c-2.7,0-4.8,2.2-4.8,4.8v1.2c0,0.7,0.5,1.2,1.2,1.2h2.4V64h-2.4v2.4h3.6c0.7,0,1.2-0.5,1.2-1.2v-4.8
		h2.4c0.7,0,1.2-0.5,1.2-1.2v-1.2C44.7,55.3,42.5,53.1,39.8,53.1z M37.4,57.9c0-1.3,1.1-2.4,2.4-2.4c1.3,0,2.4,1.1,2.4,2.4H37.4z"/>
	<rect x="20.5" y="31.4" class="st5" width="2.4" height="2.4"/>
	<rect x="15.7" y="31.4" class="st5" width="2.4" height="2.4"/>
	<rect x="10.9" y="31.4" class="st5" width="2.4" height="2.4"/>
	<rect x="25.3" y="64" class="st5" width="2.4" height="2.4"/>
	<rect x="20.5" y="64" class="st5" width="2.4" height="2.4"/>
	<rect x="15.7" y="64" class="st5" width="2.4" height="2.4"/>
</g>
</svg>
