<?xml version="1.0" encoding="utf-8"?>
<!-- Generator: Adobe Illustrator 23.0.0, SVG Export Plug-In . SVG Version: 6.00 Build 0)  -->
<svg version="1.1" id="Capa_1" xmlns="http://www.w3.org/2000/svg" xmlns:xlink="http://www.w3.org/1999/xlink" x="0px" y="0px"
	 width="64px" height="70px" viewBox="0 0 64 70" style="enable-background:new 0 0 64 70;" xml:space="preserve">
<style type="text/css">
	.st0{fill:#FDB62F;}
	.st1{fill:#FFA230;}
	.st2{fill:#FD7B2F;}
	.st3{fill:#F46B27;}
	.st4{fill:#FA962A;}
	.st5{fill:#4398D1;}
	.st6{fill:#3E8CC7;}
	.st7{fill:#FFFFFF;}
</style>
<rect class="st0" width="58" height="57.9"/>
<rect y="12.1" class="st1" width="58" height="45.9"/>
<rect x="21.7" class="st2" width="14.5" height="12.1"/>
<rect x="21.7" y="12.1" class="st3" width="14.5" height="9.7"/>
<path class="st4" d="M0,51.1v6.9h58V22.6C42.5,42.9,14.7,49.2,0,51.1z"/>
<path class="st5" d="M44.7,70L44.7,70C56,67.2,64,57,64,45.3V32.6l0,0c-6.2,0-12.2-2.3-16.9-6.4l-2.4-2.1l-2.4,2.1
	c-4.7,4.1-10.7,6.4-16.9,6.4l0,0v12.7C25.4,57,33.3,67.2,44.7,70z"/>
<path class="st6" d="M55.9,31.3c-4.2,20-16.6,26.8-25.6,29.2c3.5,4.8,8.6,8.1,14.3,9.6C56,67.2,64,57,64,45.3V32.6
	C61.3,32.6,58.5,32.1,55.9,31.3z"/>
<path class="st7" d="M44.7,55.5c-0.3,0-0.6-0.1-0.9-0.3l-6-6l1.7-1.7l5.2,5.2L58.3,39l1.7,1.7L45.5,55.2
	C45.3,55.4,45,55.5,44.7,55.5z"/>
</svg>
