<?xml version="1.0" encoding="utf-8"?>
<!-- Generator: Adobe Illustrator 23.0.0, SVG Export Plug-In . SVG Version: 6.00 Build 0)  -->
<svg version="1.1" id="Layer_1" xmlns="http://www.w3.org/2000/svg" xmlns:xlink="http://www.w3.org/1999/xlink" x="0px" y="0px"
	 width="55px" height="44px" viewBox="0 0 55 44" style="enable-background:new 0 0 55 44;" xml:space="preserve">
<style type="text/css">
	.st0{fill:#996B0E;}
</style>
<g>
	<circle class="st0" cx="32.5" cy="42.7" r="1.1"/>
	<path class="st0" d="M56,31.7v-9.3l8.5-5c0.3-0.2,0.5-0.5,0.5-0.8V6.2c0-0.3-0.2-0.7-0.5-0.8l-9-5.2c-0.2-0.1-0.3-0.1-0.5-0.1
		s-0.3,0-0.5,0.1L46,5.1l-8.5-4.9c-0.1-0.1-0.3-0.1-0.5-0.1s-0.3,0-0.5,0.1L28,5.1l-8.5-4.9c-0.2-0.1-0.3-0.1-0.5-0.1
		s-0.3,0-0.5,0.1l-9,5.2C9.2,5.6,9,5.9,9,6.2v9.9L0.5,21C0.2,21.2,0,21.5,0,21.8v10.4c0,0.3,0.2,0.7,0.5,0.8L9,38v3.5v6.3
		c0,0.3,0.2,0.7,0.5,0.8l9,5.2C18.6,54,18.8,54,19,54s0.3,0,0.5-0.1l0.7-0.4l0,0L28,49l0,0l8.5,4.9c0.3,0.2,0.7,0.2,1,0L46,49
		l8.5,4.9c0.3,0.2,0.7,0.2,1,0l9-5.2c0.3-0.2,0.5-0.5,0.5-0.8V37.5c0-0.3-0.2-0.7-0.5-0.8L56,31.7z M28.9,47.3V38l8.1-4.7l8,4.7v9.3
		L37,52L28.9,47.3L28.9,47.3L28.9,47.3z M10.9,47.3V38l8.1-4.7l8,4.6v9.3L18.9,52l0,0l0,0L10.9,47.3L10.9,47.3L10.9,47.3L10.9,47.3z
		 M10,17.8l8,4.6v9.3l-8,4.6l-8-4.6v-9.3L10,17.8z M27,16.1l-8,4.6L10.9,16V6.8L19,2.1l8,4.7V16.1z M28,17.7l8.1,4.7v9.3L28,36.4
		l-8-4.6v-9.4L28,17.7z M45,6.8v9.3l-8,4.7l-8.1-4.7V6.8L37,2.1L45,6.8L45,6.8z M46,17.7l8.1,4.7v9.3L46,36.4l-8.1-4.7v-9.3L46,17.7
		z M55,20.8l-8-4.7V6.8l8-4.7l8.1,4.7v9.3L55,20.8z M63.1,38v9.3L55,52l-8-4.6V38l8.1-4.7L63.1,38z"/>
	<circle class="st0" cx="13.8" cy="8.6" r="1.1"/>
	<circle class="st0" cx="17.1" cy="5.6" r="1.1"/>
	<circle class="st0" cx="41.5" cy="30.6" r="1.1"/>
	<circle class="st0" cx="23" cy="30.6" r="1.1"/>
	<circle class="st0" cx="50.1" cy="8.9" r="1.1"/>
	<circle class="st0" cx="14" cy="40.2" r="1.1"/>
</g>
</svg>
