<?xml version="1.0" encoding="utf-8"?>
<!-- Generator: Adobe Illustrator 23.0.0, SVG Export Plug-In . SVG Version: 6.00 Build 0)  -->
<svg version="1.1" id="Layer_1" xmlns="http://www.w3.org/2000/svg" xmlns:xlink="http://www.w3.org/1999/xlink" x="0px" y="0px"
	 width="76px" height="70px" viewBox="0 0 76 70" style="enable-background:new 0 0 76 70;" xml:space="preserve">
<style type="text/css">
	.st0{fill:#3E8CC7;}
	.st1{fill:#B8E0F9;}
	.st2{fill:#84CAFF;}
	.st3{fill:#B1DCFF;}
	.st4{fill:#FDB62F;}
	.st5{fill:#F46B27;}
	.st6{fill:#FA962A;}
</style>
<path class="st0" d="M49.9,55.4h14.2V51H52.5l-8.7-15.2L39.9,38L49.9,55.4z"/>
<path class="st0" d="M8.5,29l1.1,1.9l8.9,9.7l0.4-0.2l2.2,3.8L9.7,50.7L0,33.8L8.5,29z"/>
<path class="st1" d="M76,37.1H60.7V70H76V37.1z"/>
<path class="st2" d="M76,53.5H60.7V70H76V53.5z"/>
<path class="st3" d="M14,36.2l7.6,13.3l13.5-7.7L63.1,26l-4.9-8.5l-1.9,1.1l-21.1,8.6l-17.2,7L17.9,34L14,36.2z"/>
<path class="st1" d="M41.5,50.6c0,4.3,3.5,7.8,7.8,7.8c4.3,0,7.8-3.5,7.8-7.8c0-4.3-3.5-7.8-7.8-7.8C45,42.8,41.5,46.3,41.5,50.6z"
	/>
<path class="st4" d="M5,26.3l6,10.4l1.1,0.1c3.3,0.4,7.6,0.8,10.6,1.1l0.7,0.1l11.8-6.7L61,16.8L51.4,0L35.2,9.2L5,26.3z"/>
<path class="st5" d="M48.7,10.1l-3.8,2.2l2.2,3.8l3.8-2.2L48.7,10.1z"/>
<path class="st2" d="M14,36.2l7.6,13.3l13.5-7.7V27.2l-17.2,7L17.9,34L14,36.2z"/>
<path class="st6" d="M5,26.3l6,10.4l1.1,0.1c3.3,0.4,7.6,0.8,10.6,1.1l0.7,0.1l11.8-6.7V9.2L5,26.3z"/>
<path class="st2" d="M41.5,50.6c0,4.3,3.5,7.8,7.8,7.8V42.8C45,42.8,41.5,46.3,41.5,50.6z"/>
</svg>
