<?xml version="1.0" encoding="utf-8"?>
<!-- Generator: Adobe Illustrator 23.0.0, SVG Export Plug-In . SVG Version: 6.00 Build 0)  -->
<svg version="1.1" id="Слой_1" xmlns="http://www.w3.org/2000/svg" xmlns:xlink="http://www.w3.org/1999/xlink" x="0px" y="0px"
	 width="20px" height="20px" viewBox="0 0 20 20" style="enable-background:new 0 0 20 20;" xml:space="preserve">
<style type="text/css">
	.st0{fill:#5C6066;}
</style>
<path class="st0" d="M20,1.1v17.8c0,0.6-0.5,1.1-1.1,1.1h-5.1v-7.7h2.6l0.4-3h-3V7.3c0-0.9,0.2-1.5,1.5-1.5h1.6V3.1
	c-0.3,0-1.2-0.1-2.3-0.1c-2.3,0-3.9,1.4-3.9,4v2.2H8.1v3h2.6V20H1.1C0.5,20,0,19.5,0,18.9V1.1C0,0.5,0.5,0,1.1,0h17.8
	C19.5,0,20,0.5,20,1.1z"/>
</svg>
