<?xml version="1.0" encoding="utf-8"?>
<!-- Generator: Adobe Illustrator 23.0.0, SVG Export Plug-In . SVG Version: 6.00 Build 0)  -->
<svg version="1.1" id="Layer_1" xmlns="http://www.w3.org/2000/svg" xmlns:xlink="http://www.w3.org/1999/xlink" x="0px" y="0px"
	 width="120px" height="139.2px" viewBox="204.7 955.8 120 139.2" style="enable-background:new 204.7 955.8 120 139.2;"
	 xml:space="preserve">
<style type="text/css">
	.st0{fill:none;stroke:#FFFFFF;stroke-miterlimit:10;}
	.st1{fill:#FFFFFF;}
</style>
<path class="st0" d="M264.7,1094.3l-59.5-34.5v-69l59.5-34.5l59.5,34.5v69L264.7,1094.3z"/>
<g>
	<path class="st1" d="M280.4,1040.4l-9.8-10.1c2.4-2.3,4-5.6,4-9.2c0-7-5.8-12.8-12.9-12.8c-7.1,0-12.9,5.7-12.9,12.8
		c0,7,5.8,12.8,12.9,12.8c2.7,0,5.1-0.8,7.2-2.2l10,10.3c0.2,0.2,0.5,0.3,0.8,0.3c0.3,0,0.6-0.1,0.8-0.3
		C280.8,1041.6,280.8,1040.9,280.4,1040.4z M250.9,1021.1c0-5.8,4.8-10.5,10.6-10.5c5.9,0,10.6,4.7,10.6,10.5s-4.8,10.5-10.6,10.5
		C255.7,1031.6,250.9,1026.9,250.9,1021.1z"/>
	<path class="st1" d="M267.3,1020h-4.6v-4.6c0-0.6-0.5-1.1-1.1-1.1c-0.6,0-1.1,0.5-1.1,1.1v4.6h-4.6c-0.6,0-1.1,0.5-1.1,1.1
		c0,0.6,0.5,1.1,1.1,1.1h4.6v4.6c0,0.6,0.5,1.1,1.1,1.1c0.6,0,1.1-0.5,1.1-1.1v-4.6h4.6c0.6,0,1.1-0.5,1.1-1.1
		C268.5,1020.5,268,1020,267.3,1020z"/>
</g>
</svg>
