<?xml version="1.0" encoding="utf-8"?>
<!-- Generator: Adobe Illustrator 23.0.0, SVG Export Plug-In . SVG Version: 6.00 Build 0)  -->
<svg version="1.1" id="Capa_1" xmlns="http://www.w3.org/2000/svg" xmlns:xlink="http://www.w3.org/1999/xlink" x="0px" y="0px"
	 width="69px" height="70px" viewBox="0 0 69 70" style="enable-background:new 0 0 69 70;" xml:space="preserve">
<style type="text/css">
	.st0{fill:#FEC9A3;}
	.st1{fill:#FABD91;}
	.st2{fill:#88B337;}
	.st3{fill:#E8594A;}
	.st4{fill:#D65245;}
	.st5{fill:#FDB62F;}
	.st6{fill:#FFA719;}
	.st7{fill:#4398D1;}
	.st8{fill:#3E8FC9;}
	.st9{fill:#80A834;}
</style>
<path class="st0" d="M69,68.8V54.7c0-1.5-0.8-3-2-3.9L58,44.5c-0.6-0.4-1.3-0.6-2-0.6h-7.2l0.1,20.3c0,2.1,1.4,4,3.4,4.6H69z"/>
<path class="st1" d="M61.9,68.8h-8.3c-2.6,0-4.8-2.1-4.8-4.7v-4.7h8.3L61.9,68.8z"/>
<path class="st2" d="M30.9,8.3c-0.8,0-1.6,0.2-2.4,0.5V0H7.1C3.2,0,0,3.2,0,7.1v21.4h8.8c-1.3-3,0-6.5,3.1-7.8c3-1.3,6.5,0,7.8,3
	c0.7,1.5,0.7,3.3,0,4.8h8.8v-8.8c3,1.3,6.5,0,7.8-3s0-6.5-3.1-7.8C32.6,8.5,31.8,8.3,30.9,8.3z"/>
<path class="st3" d="M57.1,7.1C57.1,3.2,53.9,0,50,0H28.6v8.8c3-1.3,6.5,0,7.8,3c1.3,3,0,6.5-3.1,7.8c-1.5,0.7-3.3,0.7-4.8,0v8.8
	h8.8c-1.3,3,0,6.5,3.1,7.8c3,1.3,6.5,0,7.8-3c0.7-1.5,0.7-3.3,0-4.8h8.8L57.1,7.1L57.1,7.1z"/>
<path class="st4" d="M57.1,7.8C50.3,17.2,38,22.6,28.6,25.5v3h8.8c-1.3,3,0,6.5,3.1,7.8c3,1.3,6.5,0,7.8-3c0.7-1.5,0.7-3.3,0-4.8
	h8.8V7.8z"/>
<path class="st5" d="M26.2,38c0.8,0,1.6,0.2,2.4,0.5v-10h-8.8c1.3-3,0-6.5-3.1-7.8c-3-1.3-6.5,0-7.8,3c-0.7,1.5-0.7,3.3,0,4.8H0
	v21.4C0,53.8,3.2,57,7.1,57h21.4v-7.6c-3,1.3-6.5,0-7.8-3c-1.3-3,0-6.5,3.1-7.8C24.5,38.1,25.3,38,26.2,38z"/>
<path class="st6" d="M0,49.8c0,3.9,3.2,7.1,7.1,7.1h21.4v-7.6c-3,1.3-6.5,0-7.8-3c-0.3-0.7-0.5-1.4-0.5-2.2C13.9,46.9,7,48.5,0,48.6
	L0,49.8L0,49.8z"/>
<path class="st7" d="M60.2,53.3l-7.5-20.1l-8.3,3.1c2.3,2.3,2.3,6.1-0.1,8.4C42,47,38.2,47,35.9,44.6c-1.2-1.2-1.8-2.8-1.7-4.5
	L26,43.3l3.5,9.4c-0.8,0-1.6,0.1-2.4,0.4c-3.1,1.2-4.6,4.6-3.4,7.7c1.2,3,4.5,4.5,7.6,3.4c0.8-0.3,1.5-0.7,2.1-1.3L36,70l20-7.5
	C59.7,61.1,61.6,57,60.2,53.3z"/>
<path class="st8" d="M56.3,42.9c-8.2,12.2-23.6,16.5-32.6,18c1.3,3,4.7,4.4,7.7,3.1c0.7-0.3,1.3-0.7,1.8-1.2L36,70l20-7.5
	c3.7-1.4,5.6-5.5,4.2-9.2L56.3,42.9z"/>
<path class="st9" d="M30.9,8.3c-0.8,0-1.6,0.2-2.4,0.5V7.1C19.6,15.3,7.6,19.8,0,22v6.5h8.8c-1.3-3,0-6.5,3.1-7.8c3-1.3,6.5,0,7.8,3
	c0.7,1.5,0.7,3.3,0,4.8h8.8v-8.8c3,1.3,6.5,0,7.8-3s0-6.5-3.1-7.8C32.6,8.5,31.8,8.3,30.9,8.3z"/>
<path class="st0" d="M54.7,53.4c-1.1-1.2-3-1.2-4.2,0c-1.2,1.1-1.2,3,0,4.2c0,0,0,0,0,0l4.1,4.1c0,3.9,3.2,7.1,7.1,7.1l0,0H69v-1.2
	L54.7,53.4z"/>
</svg>
