<?xml version="1.0" encoding="utf-8"?>
<!-- Generator: Adobe Illustrator 23.0.0, SVG Export Plug-In . SVG Version: 6.00 Build 0)  -->
<svg version="1.1" id="Слой_1" xmlns="http://www.w3.org/2000/svg" xmlns:xlink="http://www.w3.org/1999/xlink" x="0px" y="0px"
	 viewBox="0 0 149 40" style="enable-background:new 0 0 149 40;" xml:space="preserve">
<style type="text/css">
	.st0{fill:#FBBC05;}
	.st1{fill:#222426;}
</style>
<path class="st0" d="M146.8-0.1H1.8h-2v2v36v2h2h145h2v-2v-36v-2H146.8z M146.8,37.9H1.8v-36h145V37.9z"/>
<g>
	<path class="st1" d="M31,27.7h-3.2l-5.7-6.4H22v6.4h-2.5V13.6H22v6.2h0.1l5.5-6.2h2.9l-6,6.7L31,27.7z"/>
	<path class="st1" d="M38.3,13.6c1.4,0,2.5,0.4,3.4,1.3c0.9,0.9,1.3,2,1.3,3.4s-0.4,2.5-1.3,3.4c-0.9,0.9-2.1,1.3-3.5,1.3h-3.1v4.7
		h-2.5V13.6H38.3z M35.1,21h2.5c0.9,0,1.6-0.2,2.1-0.7c0.5-0.5,0.8-1.1,0.8-2c0-0.8-0.2-1.5-0.7-2s-1.2-0.7-2.1-0.7h-2.5V21z"/>
	<path class="st1" d="M56.2,15.3c1.2,1.3,1.8,3.1,1.8,5.3c0,2.2-0.6,4-1.8,5.3c-1.2,1.3-2.8,2-4.9,2c-2.1,0-3.7-0.7-4.9-2
		c-1.2-1.3-1.8-3.1-1.8-5.3c0-2.2,0.6-4,1.8-5.3c1.2-1.3,2.8-2,4.9-2C53.4,13.4,55,14,56.2,15.3z M48.3,16.9
		c-0.7,0.9-1.1,2.2-1.1,3.8c0,1.6,0.4,2.8,1.1,3.7c0.7,0.9,1.7,1.4,3,1.4s2.3-0.5,3-1.4c0.7-0.9,1.1-2.2,1.1-3.7
		c0-1.6-0.4-2.8-1.1-3.8c-0.7-0.9-1.7-1.4-3-1.4S49.1,16,48.3,16.9z"/>
	<path class="st1" d="M71.9,27.7h-3.2l-5.7-6.4h-0.1v6.4h-2.5V13.6h2.5v6.2h0.1l5.5-6.2h2.9l-6,6.7L71.9,27.7z"/>
	<path class="st1" d="M83.9,15.3c1.2,1.3,1.8,3.1,1.8,5.3c0,2.2-0.6,4-1.8,5.3c-1.2,1.3-2.8,2-4.9,2c-2.1,0-3.7-0.7-4.9-2
		c-1.2-1.3-1.8-3.1-1.8-5.3c0-2.2,0.6-4,1.8-5.3c1.2-1.3,2.8-2,4.9-2C81.1,13.4,82.7,14,83.9,15.3z M76.1,16.9
		c-0.7,0.9-1.1,2.2-1.1,3.8c0,1.6,0.4,2.8,1.1,3.7c0.7,0.9,1.7,1.4,3,1.4s2.3-0.5,3-1.4c0.7-0.9,1.1-2.2,1.1-3.7
		c0-1.6-0.4-2.8-1.1-3.8c-0.7-0.9-1.7-1.4-3-1.4S76.8,16,76.1,16.9z"/>
	<path class="st1" d="M89.2,30.5h-2.3v-4.9h1c0.8-0.5,1.3-1.8,1.4-3.7l0.5-8.3h9.5v12h1.8v4.9h-2.3v-2.8h-9.6V30.5z M91.7,22.1
		c-0.1,1.7-0.4,2.8-1,3.4v0.1h6.2v-9.8h-4.8L91.7,22.1z"/>
	<path class="st1" d="M112.4,17.6h-0.1l-6.8,10.1H103V13.6h2.5v10.2h0.1l6.8-10.2h2.4v14.1h-2.5V17.6z"/>
	<path class="st1" d="M126.5,27.7v-12h-4.5l-0.4,6.5c-0.1,1.9-0.5,3.3-1.1,4.2c-0.6,0.9-1.6,1.4-2.9,1.4c-0.4,0-0.7,0-0.9-0.1v-2.2
		c0.2,0,0.4,0.1,0.6,0.1c0.6,0,1.1-0.3,1.4-0.8c0.3-0.5,0.5-1.4,0.5-2.6l0.5-8.5h9.3v14.1H126.5z"/>
</g>
</svg>
