<?xml version="1.0" encoding="utf-8"?>
<!-- Generator: Adobe Illustrator 23.0.0, SVG Export Plug-In . SVG Version: 6.00 Build 0)  -->
<svg version="1.1" id="Capa_1" xmlns="http://www.w3.org/2000/svg" xmlns:xlink="http://www.w3.org/1999/xlink" x="0px" y="0px"
	 width="70px" height="70px" viewBox="0 0 70 70" style="enable-background:new 0 0 70 70;" xml:space="preserve">
<style type="text/css">
	.st0{fill:#4398D1;}
	.st1{fill:#3E8CC7;}
	.st2{fill:#E5E5E5;}
	.st3{fill:#CFCFCF;}
	.st4{fill:#126099;}
	.st5{fill:#FDB62F;}
	.st6{fill:#FFA230;}
	.st7{fill:#FA962A;}
	.st8{fill:#F46B27;}
	.st9{fill:#FD7B2F;}
</style>
<path class="st0" d="M70,3.6v41.7H0V3.6C0,1.6,1.6,0,3.6,0h62.8C68.4,0,70,1.6,70,3.6z"/>
<polygon class="st1" points="70,9.4 70,45.2 3.2,45.2 13.4,39.8 13.4,39.8 38.1,26.5 39.9,25.5 42.3,24.2 51.6,19.2 57.1,16.3 "/>
<polygon class="st2" points="43.4,68.8 26.6,68.8 26.8,67.6 28.4,58.1 28.9,54.7 29,54.6 41,54.6 41.1,54.7 41.6,58.1 43.2,67.6 "/>
<path class="st3" d="M47.1,70H22.9c-0.7,0-1.2-0.5-1.2-1.2s0.5-1.2,1.2-1.2h24.1c0.7,0,1.2,0.5,1.2,1.2S47.7,70,47.1,70z"/>
<g>
	<rect x="4.8" y="3.6" class="st4" width="2.4" height="2.4"/>
	<rect x="9.7" y="3.6" class="st4" width="2.4" height="2.4"/>
	<rect x="14.5" y="3.6" class="st4" width="2.4" height="2.4"/>
</g>
<path class="st2" d="M0,51.2c0,2,1.6,3.6,3.6,3.6h62.8c2,0,3.6-1.6,3.6-3.6v-5.9H0V51.2z"/>
<polygon class="st2" points="41,54.6 29,54.6 28.9,54.7 41.1,54.7 "/>
<polygon class="st3" points="41.6,58.1 28.4,58.1 28.9,54.7 29,54.6 41,54.6 41.1,54.7 "/>
<g>
	<rect x="12.9" y="10.8" class="st5" width="44.2" height="29"/>
	<rect id="SVGCleanerId_1" x="12.9" y="19.2" class="st6" width="44.2" height="20.5"/>
	<g>
		<rect id="SVGCleanerId_1_1_" x="12.9" y="19.2" class="st6" width="44.2" height="20.5"/>
	</g>
	<polygon class="st7" points="20.7,39.8 57.1,39.8 57.1,19.2 49.2,19.2 	"/>
	<g>
		<rect x="51" y="33.7" class="st8" width="2.5" height="2.4"/>
		<rect x="46" y="33.7" class="st8" width="2.5" height="2.4"/>
	</g>
	<rect x="30.1" y="10.8" class="st9" width="9.8" height="8.4"/>
	<rect x="30.1" y="19.2" class="st8" width="9.8" height="7.2"/>
</g>
</svg>
