<?xml version="1.0" encoding="utf-8"?>
<!-- Generator: Adobe Illustrator 23.0.0, SVG Export Plug-In . SVG Version: 6.00 Build 0)  -->
<svg version="1.1" id="Слой_1" xmlns="http://www.w3.org/2000/svg" xmlns:xlink="http://www.w3.org/1999/xlink" x="0px" y="0px"
	 width="11px" height="11px" viewBox="0 0 11 11" style="enable-background:new 0 0 11 11;" xml:space="preserve">
<style type="text/css">
	.st0{fill:#959CA5;}
</style>
<path class="st0" d="M0,1c0,5.5,4.5,10,10,10c0.2,0,0.4-0.2,0.5-0.4L11,8.4c0.1-0.2-0.1-0.5-0.3-0.6l-2.4-1c-0.2-0.1-0.5,0-0.6,0.1
	L6.6,8.2C4.9,7.4,3.6,6,2.8,4.4l1.3-1.1c0.2-0.1,0.2-0.4,0.1-0.6l-1-2.4C3.1,0.1,2.9,0,2.6,0L0.4,0.5C0.2,0.6,0,0.8,0,1z"/>
</svg>
