<?xml version="1.0" encoding="utf-8"?>
<!-- Generator: Adobe Illustrator 23.0.0, SVG Export Plug-In . SVG Version: 6.00 Build 0)  -->
<svg version="1.1" id="Layer_1" xmlns="http://www.w3.org/2000/svg" xmlns:xlink="http://www.w3.org/1999/xlink" x="0px" y="0px"
	 width="282.8px" height="213.4px" viewBox="0 0 282.8 213.4" style="enable-background:new 0 0 282.8 213.4;" xml:space="preserve"
	>
<style type="text/css">
	.st0{fill:#EAE9E4;stroke:#FFFFFF;stroke-miterlimit:10;}
	.st1{fill:url(#SVGID_1_);stroke:#FFFFFF;stroke-miterlimit:10;}
	.st2{fill:url(#SVGID_2_);stroke:#FFFFFF;stroke-miterlimit:10;}
	.st3{fill:#3D1701;}
	.st4{fill:#250E01;}
	.st5{fill:#692901;}
	.st6{fill:#E0A207;}
	.st7{fill:#7295AA;}
	.st8{fill:#3FC977;}
	.st9{fill:#FFD261;}
	.st10{fill:#072E47;}
	.st11{fill:#FBBC05;}
	.st12{fill:#D69F7B;}
	.st13{fill:#BC845B;}
	.st14{fill:#FA543F;}
	.st15{fill:#AF6F4B;}
	.st16{fill:#E4B185;}
	.st17{fill:#B38A68;}
	.st18{fill:#CD9F78;}
	.st19{fill:#998458;}
	.st20{fill:#B29867;}
	.st21{fill:url(#_Path__1_);}
	.st22{fill:#9C9B9B;}
	.st23{fill:#2B1102;}
	.st24{fill:#3E1801;}
	.st25{fill:#3B1702;}
	.st26{fill:#673C24;}
	.st27{fill:#6D4026;}
	.st28{fill:#A05D38;}
	.st29{fill:#572201;}
	.st30{fill:#FFB231;}
	.st31{fill:#4C1C01;}
	.st32{fill:#BCB596;}
	.st33{fill:#F1EBDA;}
	.st34{fill:#D8D1B4;}
	.st35{fill:#49C1CA;}
	.st36{fill:#389BA0;}
	.st37{fill:#B03814;}
	.st38{fill:#F39E02;}
	.st39{fill:#07334E;}
	.st40{fill:#DCCEB6;}
	.st41{fill:#FFFFFF;}
	.st42{fill:#EDCEBA;}
	.st43{fill:#F0E7D8;}
	.st44{fill:#BFCBE3;}
	.st45{fill:#CCD6EA;}
	.st46{fill:#E1E4EA;}
	.st47{fill:#025074;}
	.st48{fill:#9ED7E2;}
	.st49{fill:#FAFBFD;}
	.st50{fill:#A6BAE3;}
	.st51{fill:#1A4B6C;}
</style>
<title>Artboard 7@2x</title>
<polygon class="st0" points="170.2,212.9 113.8,180.3 169.6,148.8 225.9,181.3 "/>
<polygon class="st0" points="113.8,180.3 57.5,147.8 113.2,116.2 169.6,148.8 "/>
<polygon class="st0" points="225.9,181.3 169.6,148.8 225.3,117.2 281.8,149.7 "/>
<polygon class="st0" points="169.6,148.8 113.2,116.2 169.1,84.7 225.3,117.2 "/>
<polygon class="st0" points="57.5,147.8 1,115.2 56.9,83.7 113.2,116.2 "/>
<polygon class="st0" points="113.2,116.2 56.9,83.7 112.6,52.1 169.1,84.7 "/>
<linearGradient id="SVGID_1_" gradientUnits="userSpaceOnUse" x1="203.8231" y1="-11.5021" x2="181.8121" y2="35.743" gradientTransform="matrix(1 0 0 1 0 72.3937)">
	<stop  offset="0" style="stop-color:#EAE9E4;stop-opacity:0"/>
	<stop  offset="1" style="stop-color:#EAE9E4"/>
</linearGradient>
<polygon class="st1" points="281.4,98.5 112.4,0.9 112.6,52.1 281.8,149.7 "/>
<linearGradient id="SVGID_2_" gradientUnits="userSpaceOnUse" x1="50.1224" y1="-29.125" x2="72.2492" y2="20.5769" gradientTransform="matrix(1 0 0 1 0 72.3937)">
	<stop  offset="0" style="stop-color:#EAE9E4;stop-opacity:0"/>
	<stop  offset="1" style="stop-color:#EAE9E4"/>
</linearGradient>
<polygon class="st2" points="0.8,63.8 112.4,0.9 112.6,52.1 1,115.2 "/>
<g>
	<g>
		<path class="st3" d="M154.4,54.1L101,23.3c-0.4-0.2-0.8-0.4-1.2-0.2l53.4,30.6C153.6,53.7,154,53.7,154.4,54.1L154.4,54.1z"/>
		<path class="st3" d="M153.2,53.7L99.8,23.1c-0.4,0-1,0.2-1.4,0.4l53.4,30.8C152.2,53.9,152.8,53.9,153.2,53.7L153.2,53.7z"/>
		<path class="st3" d="M151.9,54.3L98.5,23.5l-0.4,0.2l6.8,3.9C105.1,27.6,151.7,54.1,151.9,54.3L151.9,54.3z"/>
	</g>
	<g>
		<path class="st4" d="M67.7,82.3L61,78.4c-0.2,1,0.4,1.9,1.2,2.5l6.8,3.9C67.9,84.3,67.5,83.3,67.7,82.3z"/>
	</g>
	<polygon class="st4" points="67.5,54.1 60.8,50 61,78.2 67.7,82.3 	"/>
	<polygon class="st3" points="104.9,27.6 98.1,23.7 64.8,43 71.6,46.9 	"/>
	<g>
		<g>
			<path class="st3" d="M71.6,46.9L64.8,43c-1.7,1.2-3.1,2.9-3.7,4.9l6.8,3.9C68.7,49.8,69.9,48,71.6,46.9L71.6,46.9z"/>
			<path class="st4" d="M67.9,51.7l-6.8-3.9c-0.2,0.6-0.4,1.2-0.4,1.8l6.8,3.9C67.7,52.9,67.7,52.3,67.9,51.7z"/>
			<path class="st4" d="M67.5,53.5l-6.8-3.9c0,0.2,0,0.4,0,0.6l6.8,3.9C67.5,53.9,67.5,53.7,67.5,53.5z"/>
		</g>
	</g>
	<path class="st5" d="M71.6,46.9c-2.3,1.6-3.9,4.3-4.1,7v28.3c0,2.5,1.9,3.7,4.1,2.3l79.9,7.4c2.5-1.6,4.1-4.3,4.3-7.2V56.6
		c0-2.5-48.3-30.4-50.7-29.2L71.6,46.9z"/>
</g>
<g>
	<g>
		<path class="st6" d="M102.2,7.5l5.8-3.3c-1-0.8-2.3-0.8-3.3-0.4l-5.8,3.3C100,6.7,101.2,6.7,102.2,7.5z"/>
	</g>
	<g>
		<g>
			<path class="st7" d="M195.4,98.9l5.8-3.3c1-0.6,1.5-1.8,1.4-2.9l-5.8,3.3C196.7,97.1,196.3,98.3,195.4,98.9z"/>
		</g>
	</g>
	<polygon class="st8" points="196.7,96 202.5,92.6 202.5,63.8 196.7,67.1 	"/>
	<polygon class="st6" points="192.1,59.1 197.9,55.8 108,4.2 102.2,7.5 	"/>
	<g>
		<path class="st6" d="M196.7,67.1l5.8-3.3c-0.2-3.3-1.9-6.2-4.6-8l-5.8,3.3C194.8,60.9,196.5,63.8,196.7,67.1z"/>
	</g>
	<path class="st9" d="M102.2,7.5c-2.5-1.6-4.6-0.2-4.6,2.7v34.3c0,2.9,2.1,1.2,4.6,2.5l89.7,51.6c2.5,1.6,4.6,0.2,4.6-2.7V67.1
		c-0.2-3.3-1.9-6.2-4.6-8L102.2,7.5z"/>
</g>
<g>
	<g>
		<path class="st3" d="M66.8,72.4v9.9c0,1,0.8,1.9,1.7,2.3v-9.7C67.5,74.3,66.8,73.4,66.8,72.4z"/>
	</g>
	<g>
		<path class="st10" d="M186.7,107.5v9.9c1-0.4,1.5-1.4,1.7-2.3v-9.9C188.2,106.1,187.6,107.1,186.7,107.5z"/>
	</g>
	<polygon class="st3" points="68.3,74.7 68.3,84.7 158,136.5 151.7,123 	"/>
	<polygon class="st10" points="159.8,123 160,132.8 186.7,117.2 186.7,107.5 	"/>
	<g>
		<path class="st3" d="M151.7,123v9.9c2.5,1.4,5.6,1.4,8.1,0V123C157.3,124.4,154.4,124.4,151.7,123z"/>
	</g>
	<path class="st5" d="M68.3,70c-1.4,0.4-1.9,1.9-1.5,3.1c0.2,0.8,0.8,1.4,1.5,1.6l83.4,48.3c2.5,1.4,5.6,1.4,8.1,0l26.9-15.6
		c1.4-0.4,1.9-1.9,1.5-3.1c-0.2-0.8-0.8-1.4-1.5-1.6l-83.4-48.3c-2.5-1.4-5.6-1.4-8.1,0L68.3,70z"/>
</g>
<g>
	<path class="st6" d="M68.3,64.2l83.4,48.3c2.5,1.4,5.6,1.4,8.1,0l26.9-15.6c1-0.4,1.5-1.4,1.7-2.3v9.7c0,1-0.8,1.9-1.7,2.5
		l-26.9,15.6c-2.5,1.4-5.6,1.4-8.1,0L68.3,74.1c-1-0.4-1.5-1.4-1.5-2.3v-9.9C66.8,62.8,67.5,63.8,68.3,64.2z"/>
	<path class="st11" d="M68.3,59.5c-1.4,0.4-1.9,1.9-1.5,3.1c0.2,0.8,0.8,1.4,1.5,1.6l83.4,48.3c2.5,1.4,5.6,1.4,8.1,0l26.9-15.6
		c1.4-0.4,1.9-1.9,1.5-3.1c-0.2-0.8-0.8-1.4-1.5-1.6l-83.4-48.3c-2.5-1.4-5.6-1.4-8.1,0L68.3,59.5z"/>
</g>
<g>
	<g>
		<g>
			<path class="st12" d="M145.3,56.2l6.8-3.9l-0.6-0.2l-6.8,3.9L145.3,56.2z"/>
			<path class="st12" d="M144.7,56l6.8-3.9c-0.4-0.2-1-0.2-1.4,0l-6.8,3.9C143.9,55.8,144.3,55.8,144.7,56z"/>
			<path class="st13" d="M143.3,56l6.8-3.9h-0.2l-6.8,3.9H143.3L143.3,56z"/>
		</g>
	</g>
	<g>
		<g>
			<path class="st14" d="M172.9,97.9l6.8-3.9c0.6-0.4,1-1.2,1-1.9l-6.8,3.9C173.9,96.7,173.5,97.3,172.9,97.9z"/>
		</g>
	</g>
	<polygon class="st13" points="173.9,95.8 180.5,91.9 180.7,72.6 173.9,76.5 	"/>
	<polygon class="st12" points="170.8,71 177.6,67.1 152,52.3 145.3,56.2 	"/>
	<g>
		<g>
			<path class="st13" d="M173.9,76.5l6.8-3.9c0-0.8-0.2-1.4-0.4-2.1l-6.8,3.9C173.7,75.1,173.9,75.7,173.9,76.5z"/>
			<path class="st12" d="M173.5,74.3l6.8-3.9c-0.2-0.8-0.6-1.4-1.2-1.9l-6.8,3.9C172.7,73,173.1,73.7,173.5,74.3z"/>
			<path class="st12" d="M172.4,72.6l6.8-3.9c-0.4-0.6-1-1-1.5-1.4l-6.8,3.9C171.4,71.4,172,72,172.4,72.6z"/>
		</g>
	</g>
	<path class="st15" d="M145.3,56.2c-1.7-1-3.1-0.2-3.1,1.8v19.3c0,2.1,1.2,4.3,3.1,5.5l25.5,14.8c1.7,1,3.1,0.2,3.1-1.8V76.5
		c-0.2-2.1-1.4-4.3-3.1-5.5L145.3,56.2z"/>
</g>
<g>
	<g>
		<g>
			<path class="st12" d="M97.7,29.1l6.8-3.9l-0.6-0.2l-6.8,3.9L97.7,29.1z"/>
			<path class="st12" d="M97.3,28.9l6.8-3.9c-0.4-0.2-1-0.2-1.4,0L96,28.9C96.4,28.7,96.7,28.7,97.3,28.9z"/>
			<path class="st13" d="M95.8,28.9l6.8-3.9l-0.4,0.2l-6.8,3.9L95.8,28.9z"/>
		</g>
	</g>
	<g>
		<g>
			<path class="st13" d="M125.4,70.8l6.8-3.9c0.6-0.4,1-1.2,1-1.9l-6.8,3.9C126.3,69.7,125.9,70.4,125.4,70.8z"/>
		</g>
	</g>
	<polygon class="st13" points="126.3,68.9 133.1,64.8 133.1,45.5 126.3,49.4 	"/>
	<polygon class="st12" points="123.2,43.9 130,40 104.5,25.2 97.7,29.1 	"/>
	<g>
		<g>
			<path class="st13" d="M126.3,49.4l6.8-3.9c0-0.8-0.2-1.4-0.4-2.1l-6.8,3.9C126.1,48,126.3,48.6,126.3,49.4z"/>
			<path class="st12" d="M125.9,47.2l6.8-3.9c-0.2-0.8-0.6-1.4-1.2-1.9l-6.8,3.9C125.4,45.9,125.6,46.7,125.9,47.2z"/>
			<path class="st12" d="M124.8,45.5l6.8-3.9c-0.4-0.6-1-1-1.5-1.4l-6.8,3.9C123.8,44.3,124.4,44.7,124.8,45.5L124.8,45.5z"/>
		</g>
	</g>
	<path class="st15" d="M97.7,29.1c-1.7-1-3.1-0.2-3.1,1.8v19.3c0.2,2.1,1.4,4.3,3.1,5.5l25.5,14.8c1.7,1,3.1,0.2,3.1-1.8V49.4
		c0-2.1-1.2-4.3-3.1-5.5L97.7,29.1z"/>
</g>
<g>
	<g>
		<path class="st4" d="M161.3,136.5l-6.8-3.9c0,1,0.4,1.9,1.2,2.5l6.8,3.9C161.7,138.4,161.1,137.5,161.3,136.5L161.3,136.5z"/>
	</g>
	<polygon class="st4" points="161.1,111.3 154.4,107.3 154.6,132.6 161.3,136.5 	"/>
	<g>
		<g>
			<path class="st5" d="M158.4,100.2L191.7,81l0.4-0.2c0.4-0.2,1-0.4,1.4-0.4s0.8,0,1.2,0.2l6.8,3.9c-0.4-0.2-0.8-0.4-1.2-0.2
				c-0.4,0-1,0.2-1.4,0.4l-0.4,0.2l-33.3,19.3c-1.7,1.2-3.1,2.9-3.7,4.9l-6.8-3.9C155.3,103,156.7,101.4,158.4,100.2z"/>
			<path class="st4" d="M161.5,109l-6.8-3.9c-0.2,0.6-0.4,1.2-0.4,1.8l6.8,3.9C161.1,110.2,161.3,109.6,161.5,109z"/>
			<path class="st4" d="M161.1,110.8l-6.8-3.9c0,0.2,0,0.4,0,0.6l6.8,3.9C161.1,111.2,161.1,111,161.1,110.8z"/>
		</g>
	</g>
	<path class="st3" d="M165.2,104.1c-2.3,1.6-3.9,4.3-4.1,7.2v25.3c0,2.5,1.9,3.7,4.1,2.3l33.3-19.3c2.3-1.6,3.9-4.3,4.1-7.2V87.2
		c0-2.5-1.9-3.7-4.1-2.3L165.2,104.1z"/>
</g>
<polygon class="st16" points="46.5,134.3 76.6,116.8 76.6,81.5 46.5,99.3 "/>
<polygon class="st17" points="46.5,134.3 16.1,116.8 16.1,81.5 46.5,99.3 "/>
<polygon class="st18" points="76.6,81.5 46.5,64 16.1,81.5 36.2,93.2 46.5,99.3 "/>
<polygon class="st19" points="32.5,96.9 28.7,94.8 28.7,88.9 32.5,91.1 "/>
<polygon class="st20" points="62.7,73.5 58.8,71.2 28.7,88.9 32.5,91.1 "/>
<polygon class="st16" points="46.5,95.2 76.6,77.6 76.6,42.4 46.5,59.9 "/>
<polygon class="st17" points="46.5,95.2 16.1,77.6 16.1,42.4 46.5,59.9 "/>
<polygon class="st18" points="76.6,42.4 46.5,24.8 16.1,42.4 36.2,54.1 46.5,59.9 "/>
<polygon class="st19" points="32.5,57.8 28.7,55.6 28.7,49.6 32.5,51.9 "/>
<polygon class="st20" points="62.7,34.2 58.8,32 28.7,49.6 32.5,51.9 "/>
<g id="_Group_">
	
		<linearGradient id="_Path__1_" gradientUnits="userSpaceOnUse" x1="55.3718" y1="-12.3878" x2="67.6909" y2="-12.3878" gradientTransform="matrix(1 0 0 1 0 72.3937)">
		<stop  offset="6.000000e-02" style="stop-color:#C6C6C5"/>
		<stop  offset="1" style="stop-color:#9C9B9B"/>
	</linearGradient>
	<polygon id="_Path_" class="st21" points="55.4,58.9 67.7,51.7 67.7,61.1 55.4,68.3 	"/>
	<g id="_Group_2">
		<g id="_Group_3">
			<polygon id="_Path_2" class="st22" points="59,58.3 59,58.7 56.3,60.5 56.3,59.9 			"/>
		</g>
		<g id="_Group_4">
			<polygon id="_Path_3" class="st22" points="66.8,59.3 66.8,59.9 64.1,61.5 64.1,60.9 			"/>
		</g>
		<g id="_Group_5">
			<polygon id="_Path_4" class="st22" points="66.8,60.3 66.8,60.7 64.1,62.2 64.1,61.9 			"/>
		</g>
		<g id="_Group_6">
			<polygon id="_Path_5" class="st22" points="63.1,57.2 63.1,57.8 56.3,61.7 56.3,61.3 			"/>
		</g>
		<g id="_Group_7">
			<polygon id="_Path_6" class="st22" points="63.1,58.2 63.1,58.7 56.3,62.6 56.3,62.2 			"/>
		</g>
		<g id="_Group_8">
			<polygon id="_Path_7" class="st22" points="61.2,60.3 61.2,60.7 56.3,63.6 56.3,63 			"/>
		</g>
	</g>
</g>
<g>
	<path class="st23" d="M253,161c1.2,0.6,1.2,1.8,0,2.5c-1.4,0.6-2.9,0.6-4.3,0c-1.2-0.6-1.2-1.8,0-2.5
		C250.1,160.3,251.6,160.3,253,161z"/>
	<path class="st23" d="M247.8,153.2c0,4.1,0,7.6,0,9c0,0.6,0.4,1,0.8,1.2c1.4,0.6,2.9,0.6,4.3,0c0.6-0.2,0.8-0.8,1-1.4v-9h-6V153.2z
		"/>
</g>
<g>
	<path class="st23" d="M200.6,130.6c1.2,0.6,1.2,1.8,0,2.5c-1.4,0.6-2.9,0.6-4.3,0c-1.2-0.6-1.2-1.8,0-2.5
		C197.7,129.9,199.2,129.9,200.6,130.6z"/>
	<path class="st23" d="M195.4,123.2c0,3.9,0,7.2,0,8.6c0,0.6,0.4,1,0.8,1.2c1.4,0.6,2.9,0.6,4.3,0c0.6-0.2,0.8-0.8,1-1.4V123h-6
		V123.2z"/>
</g>
<g>
	<path class="st23" d="M273.3,149.2c1.2,0.6,1.2,1.8,0,2.5c-1.4,0.6-2.9,0.6-4.3,0c-1.2-0.6-1.2-1.8,0-2.5
		C270.4,148.6,272.1,148.6,273.3,149.2z"/>
	<path class="st23" d="M268.3,143.3c0,3.3,0,5.8,0,7c0,0.6,0.4,1,0.8,1.2c1.4,0.6,2.9,0.6,4.3,0c0.6-0.2,0.8-0.8,1-1.4v-6.8H268.3z"
		/>
</g>
<g>
	<polygon class="st24" points="198.1,126.9 221.5,113.3 246,127.5 222.6,141.2 	"/>
	<polygon class="st25" points="198.3,43.5 221.7,29.9 221.5,113.3 198.1,126.9 	"/>
	<polygon class="st24" points="223.8,141.9 247.2,128.3 271.6,142.3 248.2,156.2 	"/>
	<polygon class="st26" points="222.8,57.8 246.2,44.1 246,127.5 222.6,141.2 	"/>
	<polygon class="st25" points="224,58.5 247.4,44.9 247.2,128.3 223.8,141.9 	"/>
	<polygon class="st27" points="198.3,43.5 221.7,29.9 246.2,44.1 222.8,57.8 	"/>
	<polygon class="st28" points="198.1,126.9 222.6,141.2 222.8,57.8 198.3,43.5 	"/>
	<polygon class="st28" points="224,58.5 223.8,141.9 248.2,156.2 248.4,72.8 	"/>
	<polygon class="st27" points="224,58.5 247.4,44.9 271.8,59.1 248.4,72.8 	"/>
	<polygon class="st26" points="248.4,72.8 271.8,59.1 271.6,142.3 248.2,156.2 	"/>
	<path class="st29" d="M195.6,38.9l55.5,32.3l-0.2,89.6l-55.7-32.3L195.6,38.9z M222.6,141.2l0.2-83.4l-24.6-14.2l-0.2,83.4
		L222.6,141.2L222.6,141.2z M248.2,156.2l0.2-83.4L224,58.5l-0.2,83.4L248.2,156.2z"/>
	<path class="st30" d="M219.3,101.6c1,0.6,1.5,1.8,1.7,2.9c0,1-0.8,1.6-1.7,1s-1.5-1.8-1.7-2.9C217.8,101.4,218.6,101,219.3,101.6z"
		/>
	<path class="st30" d="M227.9,106.5c1,0.6,1.5,1.8,1.7,2.9c0,1-0.8,1.6-1.7,1s-1.5-1.8-1.7-2.9C226.1,106.3,226.9,105.9,227.9,106.5
		z"/>
	<polygon class="st31" points="195.6,38.9 218.8,25.2 274.5,57.6 251.1,71.4 	"/>
	<polygon class="st3" points="251.1,71.4 274.5,57.6 274.3,147.4 250.9,161 	"/>
</g>
<polygon class="st16" points="163.3,163.2 205.8,138.4 205.8,88.9 163.3,113.7 "/>
<polygon class="st17" points="163.3,163.2 142,150.9 142,101.4 163.3,113.7 "/>
<polygon class="st18" points="205.8,88.9 184.5,76.7 142,101.4 149,105.3 163.3,113.7 "/>
<polygon class="st19" points="154.4,116.8 149,113.7 149,105.3 154.4,108.4 "/>
<polygon class="st20" points="196.9,83.7 191.5,80.8 149,105.3 154.4,108.4 "/>
<polygon class="st32" points="174.9,111.9 174.7,164 209.9,184.4 209.9,132.4 "/>
<polygon class="st33" points="227.3,101.8 209.9,91.7 174.9,111.9 192.3,122.3 209.9,132.4 244.9,111.9 "/>
<path class="st34" d="M244.7,111.9l-34.8,20.3v52l35-20.3L244.7,111.9z"/>
<path class="st33" d="M191.7,137.3c-6.6-3.9-12-0.8-12,6.8c0.4,8.4,4.8,16.2,11.8,20.8c6.6,3.9,12,0.8,12-6.8
	C203.3,149.5,198.9,141.9,191.7,137.3z"/>
<path class="st35" d="M197.1,164.9c-1.5,0-3.3-0.6-4.6-1.4c-6.6-4.3-10.6-11.5-11-19.3c0-4.3,1.9-7,5-7c1.5,0,3.1,0.6,4.6,1.4
	c6.6,4.3,10.6,11.5,11.2,19.3C202.1,162.4,200.2,164.9,197.1,164.9L197.1,164.9z"/>
<path class="st36" d="M181.1,120.3c-1.5-1-2.9-0.2-2.9,1.6c0.2,1.9,1.2,3.9,2.9,4.9c1.5,1,2.9,0.2,2.9-1.6
	C183.8,123.2,182.8,121.3,181.1,120.3z"/>
<path class="st37" d="M186.5,125c-0.8-0.4-1.4,0-1.4,0.8c0,1,0.6,1.9,1.4,2.5c0.8,0.4,1.4,0,1.4-0.8
	C188,126.5,187.4,125.6,186.5,125z"/>
<path class="st38" d="M190.9,127.5c-0.8-0.4-1.4,0-1.4,0.8c0,1,0.6,1.9,1.4,2.5c0.8,0.4,1.4,0,1.4-0.8
	C192.3,129.1,191.7,128.1,190.9,127.5z"/>
<g>
	<path class="st39" d="M112,127.1c0.6,0.4,0.6,1,0,1.4c-0.8,0.4-1.5,0.4-2.1,0c-0.6-0.4-0.6-1,0-1.4S111.2,126.7,112,127.1z"/>
	<path class="st39" d="M112.4,113.5c0-2.3,0-4.7,0-6.6l0,0l0,0l0,0l0,0l0,0l0,0l-0.2-0.2c-0.8-0.4-1.5-0.4-2.1,0l-0.2,0.2l0,0v0.2
		l0,0l0,0l0,0l0,0l0,0v6.4c-0.6,2.3-0.6,12.3-0.6,14.2c0,0.2,0.2,0.6,0.4,0.6c0.8,0.4,1.5,0.4,2.1,0c0.2-0.2,0.4-0.4,0.6-0.6V113.5z
		"/>
</g>
<g>
	<path class="st39" d="M94.8,136.9c0.6,0.4,0.6,1,0,1.4c-0.8,0.4-1.5,0.4-2.1,0c-0.6-0.4-0.6-1,0-1.4
		C93.3,136.5,94,136.5,94.8,136.9z"/>
	<path class="st39" d="M95.2,123.4c0-2.3,0-4.7,0-6.6l0,0l0,0l0,0l0,0l0,0l0,0l-0.2-0.2c-0.8-0.4-1.5-0.4-2.1,0l-0.2,0.2l0,0v0.2
		l0,0l0,0l0,0l0,0l0,0v6.6c0,2.3,0,12.3,0,14.2c0,0.2,0.2,0.6,0.4,0.6c0.8,0.4,1.5,0.4,2.1,0c0.2-0.2,0.4-0.4,0.6-0.6L95.2,123.4z"
		/>
</g>
<g>
	<path class="st39" d="M75.3,125.4c0.6,0.4,0.6,1,0,1.4c-0.8,0.4-1.5,0.4-2.1,0c-0.6-0.4-0.6-1,0-1.4C73.7,125,74.7,125,75.3,125.4z
		"/>
	<path class="st39" d="M75.7,111.7c0-2.3,0-1.2,0-3.1l0,0l0,0l0,0l0,0l0,0l0,0l-0.2-0.2c-0.8-0.4-1.5-0.4-2.1,0l-0.2,0.2l0,0v0.2
		l0,0l0,0l0,0l0,0l0,0v3.1c0,2.3,0,12.3,0,14.2c0,0.2,0.2,0.6,0.4,0.6c0.8,0.4,1.5,0.4,2.1,0c0.2-0.2,0.4-0.4,0.6-0.6L75.7,111.7z"
		/>
</g>
<g>
	<polygon class="st40" points="91.9,119.5 113.2,107.1 113.2,108.8 91.9,121.3 	"/>
	<polygon class="st41" points="70.8,107.3 92.1,94.8 113.2,107.1 91.9,119.5 	"/>
	<polygon class="st42" points="91.9,119.5 91.9,121.3 70.8,109 70.8,107.3 	"/>
</g>
<g>
	<polygon class="st40" points="111.6,78.2 113.2,77.3 113.2,107.1 111.6,107.8 	"/>
	<polygon class="st41" points="90.5,65.9 92.1,65.2 113.2,77.3 111.6,78.2 	"/>
	<polygon class="st43" points="111.6,78.2 111.6,107.8 90.5,95.8 90.5,65.9 	"/>
</g>
<g>
	<path class="st39" d="M137.7,142.1c0.6,0.4,0.6,1,0,1.4c-0.8,0.4-1.5,0.4-2.1,0c-0.6-0.4-0.6-1,0-1.4
		C136.4,141.7,137.2,141.7,137.7,142.1z"/>
	<path class="st39" d="M138.3,128.5c0-2.3,0-4.7,0-6.6l0,0l0,0l0,0l0,0l0,0l0,0l-0.2-0.2c-0.8-0.4-1.5-0.4-2.1,0l-0.2,0.2l0,0h-0.2
		l0,0l0,0l0,0l0,0l0,0v6.6c0,2.3,0,12.3,0,14.2c0,0.2,0.2,0.6,0.4,0.6c0.8,0.4,1.5,0.4,2.1,0c0.2-0.2,0.4-0.4,0.6-0.6L138.3,128.5z"
		/>
</g>
<g>
	<path class="st39" d="M120.5,151.9c0.6,0.4,0.6,1,0,1.4c-0.8,0.4-1.5,0.4-2.1,0s-0.6-1,0-1.4S119.9,151.5,120.5,151.9z"/>
	<path class="st39" d="M120.9,138.4c0-2.3,0-4.7,0-6.6l0,0l0,0v-0.2l0,0l0,0l0,0l-0.2-0.2c-0.8-0.4-1.5-0.4-2.1,0l-0.2,0.2l0,0v0.2
		l0,0v0.2l0,0c0,0,0,0,0,0.2l0,0v6.6c0,2.3,0,12.3,0,14.2c0,0.2,0.2,0.6,0.4,0.6c0.8,0.4,1.5,0.4,2.1,0c0.2-0.2,0.4-0.4,0.6-0.6
		L120.9,138.4z"/>
</g>
<g>
	<path class="st39" d="M101.2,140.4c0.6,0.4,0.6,1,0,1.4c-0.8,0.4-1.5,0.4-2.1,0c-0.6-0.4-0.6-1,0-1.4S100.4,140,101.2,140.4z"/>
	<path class="st39" d="M101.6,126.7c0-2.3,0-1.2,0-3.1l0,0l0,0l0,0l0,0l0,0l0,0l-0.2-0.2c-0.8-0.4-1.5-0.4-2.1,0l-0.2,0.2l0,0v0.2
		l0,0l0,0l0,0c0,0,0,0,0,0.2l0,0v3.1c0,2.3,0,12.3,0,14.2c0,0.2,0.2,0.6,0.4,0.6c0.8,0.4,1.5,0.4,2.1,0c0.2-0.2,0.2-0.4,0-0.8
		C101.6,141.2,101.6,126.7,101.6,126.7z"/>
</g>
<g>
	<polygon class="st40" points="117.6,134.5 139.1,122.1 139.1,123.6 117.6,136.3 	"/>
	<polygon class="st41" points="96.5,122.3 118,109.8 139.1,122.1 117.6,134.5 	"/>
	<polygon class="st42" points="117.6,134.5 117.6,136.3 96.5,124 96.5,122.3 	"/>
</g>
<g>
	<polygon class="st40" points="137.5,93.2 139.1,92.3 139.1,122.1 137.5,122.8 	"/>
	<polygon class="st41" points="116.5,81 118,80 139.1,92.3 137.5,93.2 	"/>
	<polygon class="st43" points="137.5,93.2 137.5,122.8 116.5,110.6 116.5,81 	"/>
</g>
<g>
	<polygon class="st44" points="180.1,201 201.8,188.3 201.9,168.4 180.3,181.3 	"/>
	<polygon class="st45" points="180.3,181.3 201.9,168.4 172.5,151.3 150.7,164.2 	"/>
	<polygon class="st46" points="150.7,164.2 150.5,184 180.1,201 180.3,181.3 	"/>
</g>
<polygon class="st47" points="160,171.6 178.5,182.3 178.5,197.9 160,187 "/>
<polygon class="st48" points="177.8,182.7 160.6,172.7 160.6,186.6 177.8,196.7 "/>
<polygon class="st47" points="151.3,166.9 159.4,171.6 159.4,174.9 151.3,170.2 "/>
<polygon class="st49" points="161.1,184 162.1,184.6 162.1,176.2 161.1,175.7 "/>
<path class="st47" d="M154.8,180.5c-1-0.6-1.7-0.2-1.7,0.8c0.2,1.2,0.8,2.1,1.7,2.7s1.7,0.2,1.7-0.8
	C156.3,182.3,155.7,181.1,154.8,180.5z"/>
<polygon class="st50" points="154.6,182.1 154.8,182.3 154.8,180.7 154.6,180.7 "/>
<path class="st51" d="M157.9,176.2c-0.4-0.2-0.8-0.2-0.8,0.4c0,0.6,0.4,1,0.8,1.4c0.4,0.2,0.8,0.2,0.8-0.4S158.4,176.4,157.9,176.2z
	"/>
<path class="st51" d="M155.3,174.9c-0.4-0.2-0.8-0.2-0.8,0.4c0,0.6,0.4,1,0.8,1.4c0.4,0.2,0.8,0.2,0.8-0.4
	C156.1,175.5,155.9,175.1,155.3,174.9z"/>
<path class="st51" d="M152.8,173.3c-0.4-0.2-0.8-0.2-0.8,0.4c0,0.6,0.4,1,0.8,1.4c0.4,0.2,0.8,0.2,0.8-0.4S153.4,173.5,152.8,173.3z
	"/>
<path class="st51" d="M157.9,179.5c-0.4-0.2-0.8-0.2-0.8,0.4c0,0.6,0.4,1,0.8,1.4c0.4,0.2,0.8,0.2,0.8-0.4S158.4,179.7,157.9,179.5z
	"/>
<path class="st51" d="M155.3,178c-0.4-0.2-0.8-0.2-0.8,0.4c0,0.6,0.4,1,0.8,1.4c0.4,0.2,0.8,0.2,0.8-0.4
	C156.1,178.8,155.9,178.2,155.3,178z"/>
<path class="st51" d="M152.8,176.6c-0.4-0.2-0.8-0.2-0.8,0.4c0,0.6,0.4,1,0.8,1.4c0.4,0.2,0.8,0.2,0.8-0.4
	C153.6,177.2,153.4,176.8,152.8,176.6z"/>
</svg>
