<?xml version="1.0" encoding="utf-8"?>
<!-- Generator: Adobe Illustrator 23.0.0, SVG Export Plug-In . SVG Version: 6.00 Build 0)  -->
<svg version="1.1" id="Layer_1" xmlns="http://www.w3.org/2000/svg" xmlns:xlink="http://www.w3.org/1999/xlink" x="0px" y="0px"
	 width="242px" height="140.5px" viewBox="0 0 242 140.5" style="enable-background:new 0 0 242 140.5;" xml:space="preserve">
<style type="text/css">
	.st0{fill:none;stroke:#303030;stroke-width:2.6747;stroke-miterlimit:10;}
	.st1{fill:none;stroke:#FBBC05;stroke-width:2.716;stroke-miterlimit:10;}
	.st2{fill:none;stroke:#FBBC05;stroke-width:3.8024;stroke-miterlimit:10;}
	.st3{fill:none;stroke:#C7C7C7;stroke-width:2.1728;stroke-linejoin:round;stroke-miterlimit:10;}
	.st4{fill:none;stroke:#303030;stroke-width:3.8024;stroke-miterlimit:10;}
	.st5{fill:#303030;}
	.st6{fill:none;}
	.st7{fill:none;stroke:#303030;stroke-width:0.5432;stroke-miterlimit:10;}
	.st8{fill:none;stroke:#C7C7C7;stroke-width:1.6296;stroke-miterlimit:10;}
	.st9{fill:none;stroke:#C7C7C7;stroke-width:2.1728;stroke-linecap:round;stroke-linejoin:round;stroke-miterlimit:10;}
	.st10{fill:#FFD29C;}
	.st11{fill:none;stroke:#FFD29C;stroke-width:1.0011;stroke-miterlimit:10;}
</style>
<g>
	<g>
		<ellipse class="st0" cx="47.9" cy="93.9" rx="43.6" ry="43.8"/>
		<line class="st1" x1="109.1" y1="93.9" x2="47.7" y2="94.2"/>
		<line class="st1" x1="85.3" y1="29.9" x2="47.6" y2="93.7"/>
		<line class="st2" x1="85.3" y1="29.5" x2="168.2" y2="29.5"/>
		<polyline class="st3" points="166.6,26.7 161.3,14.6 177.6,14.6 		"/>
		<path class="st4" d="M180.8,36.6c5.1-2.1,10-5.8,10-12c0-5.2-5.3-9.8-11.1-9.8c-1.2,0-4.6,0-4.6,0"/>
		<line class="st3" x1="83.4" y1="24.1" x2="78.9" y2="10.8"/>
		<ellipse class="st5" cx="47.9" cy="93.9" rx="4.1" ry="4.1"/>
		<ellipse class="st5" cx="194.1" cy="94.3" rx="4.1" ry="4.1"/>
		<ellipse class="st0" cx="194.1" cy="93.9" rx="43.6" ry="43.8"/>
		<line class="st6" x1="108.5" y1="90.8" x2="108.5" y2="90.8"/>
		<line class="st7" x1="47.4" y1="97.7" x2="109.1" y2="105.9"/>
		<polyline class="st2" points="82.9,22.2 109.1,93.9 171.6,36.7 		"/>
		<line class="st8" x1="104.4" y1="114.6" x2="114" y2="73.5"/>
		<line class="st9" x1="175.1" y1="47.2" x2="193.8" y2="93.9"/>
		<line class="st2" x1="166" y1="25.9" x2="175.9" y2="48.2"/>
		<path class="st5" d="M62.8,6.3c2.3,2.1,6.7,6.3,11.7,6.3s7-1.9,9.9-2.9c2.9-1,6.7-1.5,9.1,0.1s3.9,0.5,3.3-1.3
			c-0.6-1.9-2.8-4.1-8-4.1c-5.2,0-12.8,0.9-15.4-0.5C70.9,2.6,67.6,0,64.6,0c-3,0-4.2,1.2-4.2,2.9S61.2,5,62.8,6.3z"/>
		<path class="st5" d="M121.2,93.9c0,6.7-5.4,12.2-12.1,12.2S97,100.6,97,93.9s5.4-12.2,12.1-12.2S121.2,87.3,121.2,93.9z
			 M109.1,83.2c-2.1,0-3.6,1.6-3.6,3.6c0,2.1,1.6,3.6,3.6,3.6c2.1,0,3.6-1.6,3.6-3.6C112.8,84.8,111.2,83.2,109.1,83.2z M119.4,90.7
			c-0.6-1.9-2.7-3-4.6-2.3c-1.9,0.7-3,2.7-2.3,4.6c0.7,1.9,2.7,3,4.6,2.3C119.1,94.5,120,92.6,119.4,90.7z M115.4,102.7
			c1.6-1.2,2.1-3.5,0.8-5.1c-1.2-1.6-3.5-2.1-5.1-0.9c-1.6,1.2-2.1,3.5-0.8,5.1C111.6,103.5,113.9,103.9,115.4,102.7z M102.8,102.7
			c1.6,1.2,3.9,0.9,5.1-0.9c1.2-1.6,0.8-3.9-0.8-5.1c-1.6-1.2-3.9-0.9-5.1,0.9C100.9,99.3,101.3,101.5,102.8,102.7z M99,90.7
			c-0.6,1.9,0.4,4,2.3,4.6c1.9,0.6,4-0.4,4.6-2.3c0.6-1.9-0.4-4-2.3-4.6S99.6,88.7,99,90.7z"/>
		<path class="st10" d="M117.5,73.5c0-0.6,0.5-1.1,1.1-1.1v-1h-9.1v1c0.6,0,1.1,0.5,1.1,1.1s-0.5,1.1-1.1,1.1v1h9.1v-1
			C118,74.6,117.5,74.1,117.5,73.5z"/>
		<path class="st10" d="M107.9,114.6c0-0.6,0.5-1.1,1.1-1.1v-1h-9.1v1c0.6,0,1.1,0.5,1.1,1.1c0,0.6-0.5,1.1-1.1,1.1v1h9v-1
			C108.4,115.7,107.9,115.2,107.9,114.6z"/>
		<line class="st7" x1="109.1" y1="82.4" x2="47.3" y2="90.3"/>
	</g>
	<line class="st11" x1="242" y1="140" x2="0" y2="140"/>
</g>
</svg>
