<?xml version="1.0" encoding="utf-8"?>
<!-- Generator: Adobe Illustrator 23.0.0, SVG Export Plug-In . SVG Version: 6.00 Build 0)  -->
<svg version="1.1" id="Layer_1" xmlns="http://www.w3.org/2000/svg" xmlns:xlink="http://www.w3.org/1999/xlink" x="0px" y="0px"
	 width="243.8px" height="212.6px" viewBox="0 0 243.8 212.6" style="enable-background:new 0 0 243.8 212.6;" xml:space="preserve"
	>
<style type="text/css">
	.st0{fill:#EAE9E4;stroke:#FFFFFF;stroke-miterlimit:10;}
	.st1{fill:url(#SVGID_1_);stroke:#FFFFFF;stroke-miterlimit:10;}
	.st2{fill:url(#SVGID_2_);stroke:#FFFFFF;stroke-miterlimit:10;}
	.st3{fill:#3D1701;}
	.st4{fill:#250E01;}
	.st5{fill:#692901;}
	.st6{fill:#FFCC94;}
	.st7{fill:#7295AA;}
	.st8{fill:#FFA323;}
	.st9{fill:#844A29;}
	.st10{fill:#072E47;}
	.st11{fill:#414042;}
	.st12{fill:url(#SVGID_3_);}
	.st13{fill:#231F20;}
	.st14{fill:url(#SVGID_4_);}
	.st15{fill:url(#SVGID_5_);}
	.st16{fill:url(#SVGID_6_);}
	.st17{fill:#FBBC05;}
	.st18{fill:#CC9306;}
	.st19{fill:#E5AA17;}
	.st20{fill:none;stroke:#231F20;stroke-width:0.5;stroke-miterlimit:10;}
	.st21{fill:#E4B185;}
	.st22{fill:#B38A68;}
	.st23{fill:#CD9F78;}
	.st24{fill:#998458;}
	.st25{fill:#B29867;}
	.st26{fill:url(#_Path__1_);}
	.st27{fill:#9C9B9B;}
</style>
<title>Artboard 6@2x</title>
<polygon class="st0" points="122.5,212 61.9,177.2 121.9,143.4 182.8,178.2 "/>
<polygon class="st0" points="61.9,177.2 1,142.3 61.3,108.5 121.9,143.4 "/>
<polygon class="st0" points="182.8,178.2 121.9,143.4 182.1,109.5 242.8,144.4 "/>
<polygon class="st0" points="121.9,143.4 61.3,108.5 121.3,74.7 182.1,109.5 "/>
<linearGradient id="SVGID_1_" gradientUnits="userSpaceOnUse" x1="188.4504" y1="3.7398" x2="167.1064" y2="49.5606" gradientTransform="matrix(1 0 0 1 0 64.3937)">
	<stop  offset="0" style="stop-color:#EAE9E4;stop-opacity:0"/>
	<stop  offset="1" style="stop-color:#EAE9E4"/>
</linearGradient>
<polygon class="st1" points="242.6,89.5 121.1,19.8 121.3,74.7 242.8,144.4 "/>
<linearGradient id="SVGID_2_" gradientUnits="userSpaceOnUse" x1="54.0374" y1="0.9305" x2="77.6145" y2="53.8904" gradientTransform="matrix(1 0 0 1 0 64.3937)">
	<stop  offset="0" style="stop-color:#EAE9E4;stop-opacity:0"/>
	<stop  offset="1" style="stop-color:#EAE9E4"/>
</linearGradient>
<polygon class="st2" points="0.8,87.2 121.1,19.8 121.3,74.7 1,142.3 "/>
<g>
	<g>
		<path class="st3" d="M139.6,54.3l-7.3-4.2c-0.4-0.2-0.8-0.4-1.3-0.2l7.3,4.2C138.8,53.8,139.2,54,139.6,54.3L139.6,54.3z"/>
		<path class="st3" d="M138.4,54l-7.3-4.2c-0.4,0-1,0.2-1.5,0.4l7.3,4.2C137.3,54,138,54,138.4,54z"/>
		<path class="st3" d="M136.9,54.5l-7.3-4.2l-0.4,0.2l7.3,4.2L136.9,54.5z"/>
	</g>
	<g>
		<path class="st4" d="M96.5,113.1l-7.3-4.2c-0.2,1,0.4,2.1,1.3,2.7l7.3,4.2C96.7,115.2,96.3,114.1,96.5,113.1z"/>
	</g>
	<polygon class="st4" points="96.3,82.8 89,78.7 89.2,108.9 96.5,113.1 	"/>
	<polygon class="st3" points="136.5,54.5 129.2,50.3 93.4,70.9 100.6,75.3 	"/>
	<g>
		<g>
			<path class="st3" d="M100.6,75.3l-7.3-4.2c-1.9,1.3-3.3,2.9-4,5.2l7.3,4.2C97.5,78.2,98.8,76.4,100.6,75.3z"/>
			<path class="st4" d="M96.7,80.3l-7.3-4.2C89.2,76.8,89,77.4,89,78l7.3,4.2C96.5,81.6,96.5,81,96.7,80.3z"/>
			<path class="st4" d="M96.3,82.4L89,78.2c0,0.2,0,0.4,0,0.6l7.3,4.2C96.3,82.6,96.3,82.4,96.3,82.4z"/>
		</g>
	</g>
	<path class="st5" d="M100.6,75.3c-2.5,1.7-4.2,4.6-4.4,7.7v30.3c0,2.7,2.1,4,4.4,2.5l35.9-20.9c2.5-1.7,4.2-4.6,4.4-7.7v-30
		c0-2.7-2.1-4-4.4-2.5L100.6,75.3z"/>
</g>
<g>
	<g>
		<path class="st6" d="M133.6,33l6.3-3.5c-1-0.8-2.5-0.8-3.5-0.4l-6.3,3.5C131.3,32.1,132.5,32.3,133.6,33z"/>
	</g>
	<g>
		<g>
			<path class="st7" d="M183.8,102.5l6.3-3.5c1-0.6,1.7-1.9,1.5-3.1l-6.3,3.5C185.3,100.4,184.9,101.6,183.8,102.5z"/>
		</g>
	</g>
	<polygon class="st8" points="185.3,99.1 191.5,95.6 191.5,64.7 185.3,68.2 	"/>
	<polygon class="st6" points="180.3,59.7 186.5,56.1 139.8,29.4 133.6,33 	"/>
	<g>
		<path class="st6" d="M185.3,68.2l6.3-3.5c-0.2-3.5-2.1-6.7-5-8.8l-6.3,3.5C183.2,61.6,185.1,64.9,185.3,68.2L185.3,68.2z"/>
	</g>
	<path class="st9" d="M133.6,33c-2.7-1.7-5-0.2-5,2.9v36.7c0,3.1,2.3,1.3,5,2.7l46.7,26.7c2.7,1.7,5,0.2,5-2.9V68.2
		c-0.2-3.5-2.1-6.7-5-8.6L133.6,33z"/>
</g>
<g>
	<g>
		<path class="st3" d="M95.4,102.5v10.6c0,1,0.8,2.1,1.9,2.5V105C96.1,104.5,95.4,103.7,95.4,102.5z"/>
	</g>
	<g>
		<path class="st10" d="M174.4,111.4v10.6c1-0.4,1.7-1.5,1.9-2.5v-10.6C176.1,110,175.5,111,174.4,111.4z"/>
	</g>
	<polygon class="st3" points="97.1,105.2 97.1,115.6 143.6,142.5 136.7,128.1 	"/>
	<polygon class="st10" points="145.5,128.1 145.7,138.8 174.4,122.1 174.4,111.4 	"/>
	<g>
		<path class="st3" d="M136.7,128.1v10.6c2.7,1.5,6,1.5,8.8,0v-10.6C142.8,129.6,139.6,129.6,136.7,128.1z"/>
	</g>
	<path class="st5" d="M97.1,99.9c-1.5,0.4-2.1,2.1-1.7,3.3c0.2,0.8,0.8,1.5,1.7,1.7l39.6,23c2.7,1.5,6,1.5,8.8,0l29-16.7
		c1.5-0.4,2.1-2.1,1.7-3.3c-0.2-0.8-0.8-1.5-1.7-1.7l-39.6-23c-2.7-1.5-6-1.5-8.8,0L97.1,99.9z"/>
</g>
<g>
	<path class="st9" d="M97.1,93.9l39.6,23c2.7,1.5,6,1.5,8.8,0l29-16.7c1-0.4,1.7-1.5,1.9-2.5v10.6c0,1-0.8,2.1-1.9,2.5l-29,16.7
		c-2.7,1.5-6,1.5-8.8,0l-39.6-23c-1-0.4-1.7-1.5-1.9-2.5V91.4C95.4,92.4,96.1,93.5,97.1,93.9z"/>
	<path class="st6" d="M97.1,88.7c-1.5,0.4-2.1,2.1-1.7,3.3c0.2,0.8,0.8,1.5,1.7,1.7l39.6,23c2.7,1.5,6,1.5,8.8,0l29-16.7
		c1.5-0.4,2.1-2.1,1.7-3.3c-0.2-0.8-0.8-1.5-1.7-1.7l-39.6-23c-2.7-1.5-6-1.5-8.8,0L97.1,88.7z"/>
</g>
<g>
	<g>
		<path class="st4" d="M147.1,142.5l-7.3-4.2c-0.2,1,0.4,2.1,1.3,2.7l7.3,4.2C147.5,144.8,146.9,143.8,147.1,142.5z"/>
	</g>
	<polygon class="st4" points="146.9,115.6 139.6,111.2 139.8,138.3 147.1,142.5 	"/>
	<g>
		<g>
			<path class="st5" d="M144.2,103.7L180.1,83l0.4-0.2c0.4-0.2,1-0.4,1.5-0.4c0.4,0,0.8,0,1.3,0.2l7.3,4.2c-0.4-0.2-0.8-0.4-1.3-0.2
				c-0.4,0-1,0.2-1.5,0.4l-0.4,0.2l-35.9,20.7c-1.9,1.3-3.3,2.9-4,5.2l-7.3-4.2C140.9,106.6,142.3,105,144.2,103.7z"/>
			<path class="st4" d="M147.5,113.1l-7.3-4.2c-0.2,0.6-0.4,1.3-0.4,1.9l7.3,4.2C147.1,114.3,147.1,113.7,147.5,113.1z"/>
			<path class="st4" d="M146.9,115l-7.3-4.2c0,0.2,0,0.4,0,0.6l7.3,4.2C146.9,115.4,146.9,115.2,146.9,115z"/>
		</g>
	</g>
	<path class="st3" d="M151.3,107.9c-2.7,1.7-4.2,4.6-4.4,7.5v27.1c0,2.7,2.1,4,4.4,2.5l35.9-20.7c2.7-1.7,4.4-4.4,4.6-7.5V89.7
		c0-2.7-2.1-4-4.4-2.5L151.3,107.9z"/>
</g>
<path class="st11" d="M42.3,118.3c-5.8-3.3-10.6-0.6-10.6,6.3c0.4,7.5,4.4,14.4,10.6,18.6c5.8,3.3,10.6,0.6,10.6-6.3
	C52.5,129.2,48.5,122.3,42.3,118.3z M50.8,135.4c0,5.4-3.8,7.7-8.5,5c-5-3.3-8.1-8.8-8.5-14.8c0-5.4,3.8-7.7,8.5-5
	C47.3,123.9,50.4,129.6,50.8,135.4z"/>
<linearGradient id="SVGID_3_" gradientUnits="userSpaceOnUse" x1="-8709.9346" y1="75.1772" x2="-8704.8223" y2="46.2797" gradientTransform="matrix(-1 0 0 1 -8666.5391 64.3937)">
	<stop  offset="0" style="stop-color:#FFFFFF"/>
	<stop  offset="1" style="stop-color:#BFBCAF"/>
</linearGradient>
<path class="st12" d="M41.7,120c-5.2-3.1-9.4-0.6-9.4,5.4c0.4,6.7,4,12.9,9.6,16.7c5.2,3.1,9.6,0.6,9.6-5.6
	C51,129.8,47.5,123.5,41.7,120L41.7,120z M49.4,135.4c0,4.8-3.3,6.9-7.7,4.4c-4.6-2.9-7.3-7.9-7.7-13.1c0-4.8,3.3-6.9,7.7-4.4
	C46.2,125.2,49.2,130,49.4,135.4L49.4,135.4z"/>
<path class="st13" d="M41,118.7c-5.8-3.3-10.6-0.6-10.6,6.3c0.4,7.5,4.4,14.4,10.6,18.6c5.8,3.3,10.6,0.6,10.6-6.3
	C51.2,129.8,47.3,122.9,41,118.7z M49.6,136c0,5.4-3.8,7.7-8.5,5c-5-3.3-8.1-8.8-8.5-14.8c0-5.4,3.8-7.7,8.5-5
	C46,124.6,49.2,130,49.6,136z"/>
<path class="st13" d="M41,127.7c1.7,1,2.7,2.9,2.9,4.8c0,1.9-1.3,2.5-2.9,1.7c-1.7-1-2.7-2.9-2.9-4.8
	C38.1,127.5,39.4,126.9,41,127.7z"/>
<path class="st11" d="M78.8,140.2c-5.8-3.3-10.6-0.6-10.6,6.3c0.4,7.5,4.4,14.4,10.6,18.4c5.8,3.3,10.6,0.6,10.6-6.3
	C89,151.1,85,144.2,78.8,140.2L78.8,140.2z M87.3,157.3c0,5.4-3.8,7.7-8.5,5c-5-3.3-8.1-8.8-8.5-14.8c0-5.4,3.8-7.7,8.5-5
	C83.8,145.9,86.9,151.5,87.3,157.3z"/>
<linearGradient id="SVGID_4_" gradientUnits="userSpaceOnUse" x1="-8746.1953" y1="97.1462" x2="-8741.083" y2="68.2487" gradientTransform="matrix(-1 0 0 1 -8666.5391 64.3937)">
	<stop  offset="0" style="stop-color:#FFFFFF"/>
	<stop  offset="1" style="stop-color:#BFBCAF"/>
</linearGradient>
<path class="st14" d="M78.1,141.9c-5.2-3.1-9.6-0.6-9.6,5.6c0.4,6.7,4,12.9,9.6,16.5c5.2,3.1,9.6,0.6,9.6-5.6
	C87.3,151.7,83.8,145.6,78.1,141.9z M85.8,157.3c0,4.8-3.3,6.9-7.7,4.4c-4.6-2.9-7.3-7.9-7.7-13.1c0-4.8,3.3-6.9,7.7-4.4
	C82.7,147.1,85.6,151.9,85.8,157.3z"/>
<path class="st13" d="M77.5,140.6c-5.8-3.3-10.6-0.6-10.6,6.3c0.4,7.5,4.4,14.4,10.6,18.6c5.8,3.3,10.6,0.6,10.6-6.3
	C87.7,151.7,83.8,144.8,77.5,140.6z M86.1,158c0,5.4-3.8,7.7-8.5,5c-5-3.3-8.1-8.8-8.5-14.8c0-5.4,3.8-7.7,8.5-5
	C82.5,146.5,85.6,151.9,86.1,158z"/>
<path class="st13" d="M77.5,149.6c1.7,1,2.7,2.9,2.7,4.8s-1.3,2.5-2.7,1.7c-1.7-1-2.7-2.9-2.7-4.8C74.6,149.6,75.8,148.8,77.5,149.6
	z"/>
<path class="st11" d="M74,99.5c-5.8-3.3-10.6-0.6-10.6,6.3c0.4,7.5,4.4,14.4,10.6,18.6c5.8,3.3,10.6,0.6,10.6-6.3
	C84.2,110.6,80.2,103.7,74,99.5z M82.5,116.9c0,5.4-3.8,7.7-8.5,5c-5-3.3-8.1-8.8-8.5-14.8c0-5.4,3.8-7.7,8.5-5
	C79,105.4,82.3,110.8,82.5,116.9z"/>
<linearGradient id="SVGID_5_" gradientUnits="userSpaceOnUse" x1="-8741.6025" y1="56.5442" x2="-8736.5107" y2="27.6676" gradientTransform="matrix(-1 0 0 1 -8666.5391 64.3937)">
	<stop  offset="0" style="stop-color:#FFFFFF"/>
	<stop  offset="1" style="stop-color:#BFBCAF"/>
</linearGradient>
<path class="st15" d="M73.6,101.2c-5.2-3.1-9.6-0.6-9.6,5.6c0.4,6.7,4,12.9,9.6,16.7c5.2,3.1,9.6,0.6,9.6-5.6
	C82.7,111.2,79.2,105,73.6,101.2z M81.3,116.9c0,4.8-3.3,6.9-7.7,4.4c-4.6-2.9-7.3-7.9-7.7-13.1c0-4.8,3.3-6.9,7.7-4.4
	C78.1,106.6,80.8,111.4,81.3,116.9z"/>
<path class="st13" d="M72.7,100.2c-5.8-3.3-10.6-0.6-10.6,6.3c0.4,7.5,4.4,14.4,10.6,18.6c5.8,3.3,10.6,0.6,10.6-6.3
	C83.1,111.2,79.2,104.3,72.7,100.2z M81.3,117.5c0,5.4-3.8,7.7-8.5,5c-5-3.3-8.1-8.8-8.5-14.8c0-5.4,3.8-7.7,8.5-5
	C77.7,106,81.1,111.4,81.3,117.5L81.3,117.5z"/>
<path class="st13" d="M72.7,109.1c1.7,1,2.7,2.9,2.7,4.8c0,1.9-1.3,2.5-2.7,1.7c-1.7-1-2.7-2.9-2.7-4.8
	C70,108.9,71.3,108.3,72.7,109.1z"/>
<path class="st11" d="M110.4,121.4c-5.8-3.3-10.6-0.6-10.6,6.3c0.4,7.5,4.4,14.4,10.6,18.6c5.8,3.3,10.6,0.6,10.6-6.3
	C120.9,132.5,116.7,125.6,110.4,121.4z M119,138.8c0,5.4-3.8,7.7-8.5,5c-5-3.3-8.1-8.8-8.5-14.8c0-5.4,3.8-7.7,8.5-5
	C115.4,127.3,118.8,132.7,119,138.8z"/>
<linearGradient id="SVGID_6_" gradientUnits="userSpaceOnUse" x1="-8778.0518" y1="78.4793" x2="-8772.9619" y2="49.5818" gradientTransform="matrix(-1 0 0 1 -8666.5391 64.3937)">
	<stop  offset="0" style="stop-color:#FFFFFF"/>
	<stop  offset="1" style="stop-color:#BFBCAF"/>
</linearGradient>
<path class="st16" d="M110,123.3c-5.2-3.1-9.6-0.6-9.6,5.6c0.4,6.7,4,12.9,9.6,16.7c5.2,3.1,9.6,0.6,9.6-5.6
	C119.2,133.1,115.7,126.9,110,123.3z M117.7,138.8c0,4.8-3.3,6.9-7.7,4.4c-4.6-2.9-7.3-7.9-7.7-13.1c0-4.8,3.3-6.9,7.7-4.4
	C114.6,128.3,117.5,133.3,117.7,138.8z"/>
<path class="st13" d="M109.2,122.1c-5.8-3.3-10.6-0.6-10.6,6.3c0.4,7.5,4.4,14.4,10.6,18.6c5.8,3.3,10.6,0.6,10.6-6.3
	C119.6,133.1,115.7,126.2,109.2,122.1z M117.7,139.4c0,5.4-3.8,7.7-8.5,5c-5-3.3-8.1-8.8-8.5-14.8c0-5.4,3.8-7.7,8.5-5
	C114.2,127.9,117.3,133.3,117.7,139.4z"/>
<path class="st13" d="M109.2,131c1.7,1,2.7,2.9,2.7,4.8c0,1.9-1.3,2.5-2.7,1.7c-1.7-1-2.7-2.9-2.7-4.8
	C106.5,130.8,107.7,130.2,109.2,131z"/>
<rect x="60.4" y="90.1" transform="matrix(0.866 -0.5001 0.5001 0.866 -53.8058 47.2329)" class="st13" width="1.7" height="67.8"/>
<rect x="91.7" y="71.6" transform="matrix(0.866 -0.5001 0.5001 0.866 -40.3581 60.4114)" class="st13" width="1.7" height="67.8"/>
<polygon class="st17" points="91.9,45.1 65.2,60.3 49.6,51.3 76.3,35.9 "/>
<path class="st18" d="M96.7,110.8L96.7,110.8c8.5-5,15.2-12.7,19-21.9l0.8-2.1l-26.7,15.4l-20,8.3l0,0
	C78.1,115.6,88.6,115.6,96.7,110.8z"/>
<polygon class="st18" points="43.7,51.3 70.4,35.9 76.3,35.9 49.6,51.3 "/>
<polygon class="st18" points="59.2,84.9 85.8,69.5 91.9,45.1 65.2,60.3 "/>
<polygon class="st17" points="85.8,69.5 116.7,87 90,102.5 59.2,84.9 "/>
<path class="st19" d="M90,102.5L59.4,84.9l6-24.4l-15.6-9H44l-6.7,3.8l-5,6.3v14l1.9,1v13.4l34.2,19.8c7.3,4.2,16.7,1.7,20.8-5.6
	C89.4,103.7,89.8,103.1,90,102.5L90,102.5z"/>
<polygon class="st17" points="49.6,51.3 54,81.8 59.2,84.9 65.2,60.3 "/>
<polygon class="st18" points="43.7,51.3 51.2,80.3 54,81.8 49.6,51.3 "/>
<polygon class="st17" points="43.7,51.3 37.1,55.1 48.3,78.7 51.2,80.3 "/>
<polygon class="st18" points="37.1,55.1 32.3,61.6 45.6,77 48.3,78.7 "/>
<line class="st20" x1="77.3" y1="153.8" x2="108.8" y2="135.2"/>
<line class="st20" x1="41.7" y1="131.2" x2="73.1" y2="112.7"/>
<polygon class="st21" points="195.5,163.8 230.9,143.4 230.9,20.4 195.5,40.9 "/>
<polygon class="st22" points="195.5,163.8 160.1,143.4 160.1,20.4 195.5,40.9 "/>
<polygon class="st23" points="230.9,20.4 195.5,0 160.1,20.4 171.7,27.1 195.5,40.9 "/>
<polygon class="st24" points="180.5,46.1 171.7,40.9 171.7,27.1 180.5,32.3 "/>
<polygon class="st25" points="215.9,11.9 207.2,6.7 171.7,27.1 180.5,32.3 "/>
<polygon class="st21" points="154.8,186.3 187.4,167.6 187.4,130 154.8,148.8 "/>
<polygon class="st22" points="154.8,186.3 122.3,167.6 122.3,130 154.8,148.8 "/>
<polygon class="st23" points="187.4,130 154.8,111 122.3,130 144,142.5 154.8,148.8 "/>
<polygon class="st24" points="139.8,146.5 135.7,144 135.7,137.7 139.8,140 "/>
<polygon class="st25" points="172.4,121.2 168.4,118.9 135.7,137.7 139.8,140 "/>
<g id="_Group_">
	
		<linearGradient id="_Path__1_" gradientUnits="userSpaceOnUse" x1="164.5359" y1="84.3819" x2="177.8136" y2="84.3819" gradientTransform="matrix(1 0 0 1 0 64.3937)">
		<stop  offset="6.000000e-02" style="stop-color:#C6C6C5"/>
		<stop  offset="1" style="stop-color:#9C9B9B"/>
	</linearGradient>
	<polygon id="_Path_" class="st26" points="164.6,147.7 177.8,139.8 177.8,149.8 164.4,157.7 	"/>
	<g id="_Group_2">
		<g id="_Group_3">
			<polygon id="_Path_2" class="st27" points="168.4,147.1 168.4,147.5 165.7,149.2 165.7,148.8 			"/>
		</g>
		<g id="_Group_4">
			<polygon id="_Path_3" class="st27" points="176.7,148.1 176.7,148.6 174,150.2 174,149.8 			"/>
		</g>
		<g id="_Group_5">
			<polygon id="_Path_4" class="st27" points="176.7,149 176.7,149.6 174,151.3 174,150.7 			"/>
		</g>
		<g id="_Group_6">
			<polygon id="_Path_5" class="st27" points="172.8,145.9 172.8,146.3 165.7,150.7 165.7,150 			"/>
		</g>
		<g id="_Group_7">
			<polygon id="_Path_6" class="st27" points="172.8,146.9 172.8,147.3 165.7,151.5 165.7,151.1 			"/>
		</g>
		<g id="_Group_8">
			<polygon id="_Path_7" class="st27" points="170.7,149 170.7,149.6 165.7,152.5 165.7,152.1 			"/>
		</g>
	</g>
</g>
</svg>
