<?xml version="1.0" encoding="utf-8"?>
<!-- Generator: Adobe Illustrator 23.0.0, SVG Export Plug-In . SVG Version: 6.00 Build 0)  -->
<svg version="1.1" id="Layer_1" xmlns="http://www.w3.org/2000/svg" xmlns:xlink="http://www.w3.org/1999/xlink" x="0px" y="0px"
	 width="199.6px" height="207.6px" viewBox="0 0 199.6 207.6" style="enable-background:new 0 0 199.6 207.6;" xml:space="preserve"
	>
<style type="text/css">
	.st0{fill:url(#SVGID_1_);stroke:#FFFFFF;stroke-miterlimit:10;}
	.st1{fill:url(#SVGID_2_);stroke:#FFFFFF;stroke-miterlimit:10;}
	.st2{fill:#EAE9E4;stroke:#FFFFFF;stroke-miterlimit:10;}
	.st3{fill:#7E4E24;}
	.st4{fill:#E4B185;}
	.st5{fill:#CD9F78;}
	.st6{fill:#B38A68;}
	.st7{fill:#683B11;}
	.st8{fill:#683C11;}
	.st9{fill:#E5332A;}
	.st10{fill:#FFFFFF;}
	.st11{fill:url(#_Path_20_1_);}
	.st12{fill:#9C9B9B;}
	.st13{fill:#413833;}
	.st14{fill:#FBBC05;}
	.st15{fill:#998458;}
	.st16{fill:#B29867;}
	.st17{fill:url(#_Path_27_1_);}
</style>
<linearGradient id="SVGID_1_" gradientUnits="userSpaceOnUse" x1="161.2548" y1="158.847" x2="121.2381" y2="74.5543" gradientTransform="matrix(1 0 0 -1 0 210.1219)">
	<stop  offset="0" style="stop-color:#EAE9E4;stop-opacity:0"/>
	<stop  offset="1" style="stop-color:#EAE9E4"/>
</linearGradient>
<polygon class="st0" points="198,58.8 98.8,2.9 99.3,96.8 198.5,152.8 "/>
<linearGradient id="SVGID_2_" gradientUnits="userSpaceOnUse" x1="41.3626" y1="161.7597" x2="64.4868" y2="84.3016" gradientTransform="matrix(1 0 0 -1 0 210.1219)">
	<stop  offset="0" style="stop-color:#EAE9E4;stop-opacity:0"/>
	<stop  offset="1" style="stop-color:#EAE9E4"/>
</linearGradient>
<polygon class="st1" points="0.5,57.1 98.8,2.9 99.3,96.8 1,151 "/>
<polygon class="st2" points="100.3,207 1,151 99.3,96.8 198.5,152.8 "/>
<g id="_Group_">
	<polygon id="_Path_" class="st3" points="17.7,149 17.8,87.5 46,103.8 45.8,165.2 	"/>
	<polygon id="_Path_2" class="st4" points="17.7,149 17.8,87.9 46,104.2 45.8,165.2 	"/>
	<polygon id="_Path_3" class="st5" points="17.8,87.5 78.6,52.2 106.7,68.5 46,103.8 	"/>
	<polygon id="_Path_4" class="st6" points="46,103.8 106.7,68.5 106.5,130 45.8,165.2 	"/>
	<g id="_Group_2">
		<g id="_Group_3">
			<g id="_Group_4">
				<g id="_Group_5">
					<path id="_Compound_Path_" class="st7" d="M48.3,152.5l7.2-4.1v8.3l-7.2,4.2V152.5z M55.2,156.4v-7.3l-6.4,3.7v7.3L55.2,156.4"
						/>
				</g>
				<g id="_Group_6">
					<polygon id="_Path_5" class="st7" points="50.6,152.3 51.7,153.9 51.2,154.2 51.2,158 50,158.7 50,154.9 49.4,155.3 					"/>
				</g>
				<g id="_Group_7">
					<polygon id="_Path_6" class="st7" points="53.3,150.7 54.5,152.4 53.9,152.7 53.9,156.5 52.7,157.2 52.7,153.4 52.2,153.7 
											"/>
				</g>
			</g>
			<g id="_Group_8">
				<g id="_Group_9">
					<path id="_Compound_Path_2" class="st7" d="M56.6,147.8l7.2-4.1v8.3l-7.2,4.2L56.6,147.8z M63.4,151.7v-7.3l-6.4,3.7v7.3
						L63.4,151.7"/>
				</g>
				<g id="_Group_10">
					<path id="_Path_7" class="st7" d="M62.2,145.7v1.1c-0.1,1.3-0.7,2.6-1.8,3.3v1.9l1.6-0.2l-1.6,1l-0.3,0.2l-1.6,1l1.6-1.7v-1.9
						c-1,0.5-1.8,0-1.9-1.2V148l0.8-0.5l-0.3,0.8l0.5-0.3l-0.3,1.3l1-1.9l-0.6,0.3l0.2-0.5L62.2,145.7z"/>
				</g>
			</g>
			<g id="_Group_11">
				<g id="_Group_12">
					<path id="_Compound_Path_3" class="st7" d="M64.9,143.1l7.2-4.2v8.3l-7.2,4.2L64.9,143.1z M71.7,147v-7.3l-6.4,3.7v7.4
						L71.7,147"/>
				</g>
				<g id="_Group_13">
					<path id="_Path_8" class="st7" d="M68.5,142c1.3-0.8,2.4-0.2,2.5,1.3v0.2c-0.2,0.2-0.4,0.4-0.5,0.6c-0.2-0.1-0.3-0.1-0.5,0
						c-0.2,0.2-0.4,0.4-0.5,0.6c-0.2-0.1-0.3-0.1-0.5,0c-0.2,0.1-0.3,0.2-0.4,0.4v2.7c0,0.1,0,0.2,0.2,0.1c0.1-0.1,0.2-0.2,0.2-0.4
						v-0.2c0-0.1,0-0.2,0.1-0.2h0.1v0.2c0,0.3-0.2,0.6-0.5,0.8c-0.3,0.1-0.5,0-0.5-0.3v-2.7c-0.1-0.1-0.3-0.1-0.4,0
						c-0.2,0.2-0.4,0.4-0.5,0.6c-0.2-0.1-0.3-0.1-0.5,0c-0.2,0.2-0.4,0.4-0.5,0.6c-0.2-0.1-0.3-0.1-0.5,0v-0.3
						C66.1,144.4,67.1,143,68.5,142z"/>
				</g>
			</g>
		</g>
		<g id="_Group_14">
			<g id="_Group_15">
				<polygon id="_Path_9" class="st8" points="75.8,141.7 75.8,142.1 73.1,143.7 73.1,143.2 				"/>
			</g>
			<g id="_Group_16">
				<polygon id="_Path_10" class="st8" points="79.9,140.6 79.9,141 73.1,144.9 73.1,144.5 				"/>
			</g>
			<g id="_Group_17">
				<polygon id="_Path_11" class="st8" points="79.9,141.5 79.9,142 73.1,145.9 73.1,145.4 				"/>
			</g>
			<g id="_Group_18">
				<polygon id="_Path_12" class="st8" points="77.9,143.5 77.9,144 73.1,146.8 73.1,146.3 				"/>
			</g>
		</g>
	</g>
	<g id="_Group_19">
		<polygon id="_Path_13" class="st9" points="19.4,91.4 26.6,95.6 26.6,106.1 19.4,102 		"/>
		<g id="_Group_20">
			<path id="_Path_14" class="st10" d="M21,93.5v1.1c0.1,1.3,0.7,2.6,1.8,3.3v1.9l-1.7-0.1l1.6,1l0.3,0.2l1.6,1l-1.6-1.7v-1.9
				c1,0.5,1.8,0,1.9-1.2v-1.1l-0.8-0.5l0.3,0.8l-0.5-0.3l0.3,1.3l-1-1.9l0.6,0.3L23.6,95L21,93.5z"/>
		</g>
		<g id="_Group_21">
			<g id="_Group_22">
				<polygon id="_Path_15" class="st10" points="20.5,100.3 20.5,100.6 20.1,100.3 20.1,100.6 20.5,100.9 20.5,101.1 20.1,100.9 
					20.1,101.4 19.8,101.3 19.8,99.9 				"/>
			</g>
			<g id="_Group_23">
				<path id="_Compound_Path_4" class="st10" d="M21.5,101.9c0,0.2,0,0.4,0,0.4l-0.2-0.3c0-0.1,0-0.2,0-0.4c0-0.1-0.1-0.3-0.2-0.3
					l0,0v0.7l-0.3-0.2v-1.3l0.4,0.2c0.1,0.1,0.3,0.2,0.4,0.3c0,0.1,0,0.2,0,0.3c0,0.2,0,0.2-0.2,0.2l0,0
					C21.5,101.7,21.5,101.8,21.5,101.9z M21.1,101.2c0.1,0,0.2,0,0.2,0c0-0.1-0.1-0.2-0.2-0.3H21L21.1,101.2L21.1,101.2"/>
			</g>
			<g id="_Group_24">
				<path id="_Compound_Path_5" class="st10" d="M22.4,101.4l0.4,1.6l-0.3-0.2v-0.4l-0.3-0.2v0.3l-0.3-0.2l0.4-1.1L22.4,101.4z
					 M22.1,102l0.3,0.1v-0.3v-0.3l0,0v0.2v0.3"/>
			</g>
			<g id="_Group_25">
				<path id="_Path_16" class="st10" d="M23.5,102c0.1,0.1,0.2,0.2,0.3,0.3v0.2c-0.1-0.1-0.2-0.2-0.3-0.2c-0.2-0.1-0.4,0-0.4,0.2
					c0,0.3,0.1,0.5,0.4,0.6h0.1v-0.3h-0.2v-0.2l0.4,0.3v0.7c-0.1,0-0.3-0.1-0.4-0.1c-0.2-0.1-0.4-0.3-0.5-0.5
					c-0.1-0.2-0.2-0.4-0.2-0.6C22.8,101.9,23.1,101.8,23.5,102z"/>
			</g>
			<g id="_Group_26">
				<polygon id="_Path_17" class="st10" points="24.3,102.5 24.3,103.9 24.1,103.7 24.1,102.4 				"/>
			</g>
			<g id="_Group_27">
				<polygon id="_Path_18" class="st10" points="24.8,102.8 24.8,103.9 25.3,104.2 25.3,104.4 24.6,104 24.6,102.7 				"/>
			</g>
			<g id="_Group_28">
				<polygon id="_Path_19" class="st10" points="26.2,103.6 26.2,103.8 25.7,103.6 25.7,103.9 26.2,104.1 26.2,104.3 25.7,104.1 
					25.7,104.4 26.2,104.7 26.2,104.9 25.4,104.5 25.4,103.2 				"/>
			</g>
		</g>
	</g>
	<g id="_Group_29">
		
			<linearGradient id="_Path_20_1_" gradientUnits="userSpaceOnUse" x1="89.0158" y1="127.2733" x2="103.9948" y2="127.2733" gradientTransform="matrix(1 0 0 -1 0 210.1219)">
			<stop  offset="6.000000e-02" style="stop-color:#C6C6C5"/>
			<stop  offset="1" style="stop-color:#9C9B9B"/>
		</linearGradient>
		<polygon id="_Path_20" class="st11" points="89,81.6 104,72.9 104,84.1 89,92.8 		"/>
		<g id="_Group_30">
			<g id="_Group_31">
				<polygon id="_Path_21" class="st12" points="93.5,80.9 93.5,81.5 90.2,83.4 90.2,82.8 				"/>
			</g>
			<g id="_Group_32">
				<polygon id="_Path_22" class="st12" points="102.9,82.2 102.9,82.7 99.6,84.6 99.6,84.1 				"/>
			</g>
			<g id="_Group_33">
				<polygon id="_Path_23" class="st12" points="102.9,83.2 102.9,83.7 99.6,85.6 99.6,85.1 				"/>
			</g>
			<g id="_Group_34">
				<polygon id="_Path_24" class="st12" points="98.3,79.6 98.3,80.2 90.2,84.9 90.2,84.3 				"/>
			</g>
			<g id="_Group_35">
				<polygon id="_Path_25" class="st12" points="98.3,80.8 98.3,81.3 90.2,86 90.2,85.4 				"/>
			</g>
			<g id="_Group_36">
				<polygon id="_Path_26" class="st12" points="96.1,83.2 96.1,83.7 90.2,87.1 90.2,86.5 				"/>
			</g>
		</g>
	</g>
</g>
<path class="st13" d="M111,121.9c0,10.8-8.9,24.5-19.8,30.6c-10.9,6.1-19.8,2.3-19.8-8.3c0-10.7,8.9-24.5,19.8-30.6
	S111,111.1,111,121.9z"/>
<path class="st13" d="M111,11.3c0,10.8-8.9,24.5-19.8,30.6s-19.8,2.3-19.8-8.3S80.3,9.1,91.2,3S111,0.5,111,11.3z"/>
<polygon class="st13" points="111,11.3 71.4,33.6 71.4,144.2 111,121.9 "/>
<path class="st14" d="M114.8,123.5c0,10.8-8.9,24.5-19.8,30.6s-19.8,2.3-19.8-8.3s8.9-24.5,19.8-30.6
	C106,109.1,114.8,112.8,114.8,123.5z"/>
<path class="st14" d="M114.8,12.9c0,10.8-8.9,24.5-19.8,30.6s-19.8,2.3-19.8-8.3S84.1,10.8,95,4.6S114.8,2.2,114.8,12.9z"/>
<polygon class="st14" points="114.8,12.9 75.2,35.2 75.2,145.8 114.8,123.5 "/>
<path class="st13" d="M91.7,56.3c-0.1,1.2-0.8,2.3-1.9,3c-1.1,0.6-1.9,0.2-1.9-0.8c0.1-1.2,0.8-2.3,1.9-3
	C90.9,54.9,91.7,55.2,91.7,56.3z"/>
<path class="st13" d="M103.7,50.8c-0.1,1.2-0.8,2.3-1.9,3c-1.1,0.6-1.9,0.2-1.9-0.8c0.1-1.2,0.8-2.3,1.9-3
	C102.8,49.4,103.7,49.7,103.7,50.8z"/>
<path class="st13" d="M91.7,48.2c-0.1,1.2-0.8,2.3-1.9,3c-1.1,0.6-1.9,0.2-1.9-0.8c0.1-1.2,0.8-2.3,1.9-3
	C90.9,46.8,91.7,47.2,91.7,48.2z"/>
<path class="st13" d="M103.7,42.7c-0.1,1.2-0.8,2.3-1.9,3c-1.1,0.6-1.9,0.2-1.9-0.8c0.1-1.2,0.8-2.3,1.9-3
	C102.8,41.3,103.7,41.7,103.7,42.7z"/>
<path class="st13" d="M91.7,110.9c-0.1,1.2-0.8,2.3-1.9,3c-1.1,0.6-1.9,0.2-1.9-0.8c0.1-1.2,0.8-2.3,1.9-3
	C90.9,109.5,91.7,109.9,91.7,110.9z"/>
<path class="st13" d="M103.7,105.4c-0.1,1.2-0.8,2.3-1.9,3c-1.1,0.6-1.9,0.2-1.9-0.8c0.1-1.2,0.8-2.3,1.9-3
	C102.8,104,103.7,104.3,103.7,105.4z"/>
<path class="st13" d="M91.7,102.9c-0.1,1.2-0.8,2.3-1.9,3c-1.1,0.6-1.9,0.2-1.9-0.8c0.1-1.2,0.8-2.4,1.9-3
	C90.9,101.5,91.7,101.8,91.7,102.9z"/>
<path class="st13" d="M103.7,97.4c-0.1,1.2-0.8,2.3-1.9,3c-1.1,0.6-1.9,0.2-1.9-0.8c0.1-1.2,0.8-2.3,1.9-3
	C102.8,96,103.7,96.3,103.7,97.4z"/>
<polygon class="st4" points="139.3,175.8 182,151.5 182,102.9 139.3,127.2 "/>
<polygon class="st6" points="139.3,175.8 96.5,151.5 96.5,102.9 139.3,127.2 "/>
<polygon class="st5" points="182,102.9 139.3,78.6 96.5,102.9 124.9,119 139.3,127.2 "/>
<polygon class="st15" points="119.5,124.1 114.2,121.1 114.2,112.9 119.5,116 "/>
<polygon class="st16" points="162.3,91.7 157,88.6 114.2,112.9 119.5,116 "/>
<g id="_Group_37">
	
		<linearGradient id="_Path_27_1_" gradientUnits="userSpaceOnUse" x1="151.9462" y1="82.9253" x2="169.3746" y2="82.9253" gradientTransform="matrix(1 0 0 -1 0 210.1219)">
		<stop  offset="6.000000e-02" style="stop-color:#C6C6C5"/>
		<stop  offset="1" style="stop-color:#9C9B9B"/>
	</linearGradient>
	<polygon id="_Path_27" class="st17" points="152,125.8 169.4,115.7 169.3,128.6 151.9,138.7 	"/>
	<g id="_Group_38">
		<g id="_Group_39">
			<polygon id="_Path_28" class="st12" points="157.2,125 157.2,125.6 153.4,127.8 153.4,127.2 			"/>
		</g>
		<g id="_Group_40">
			<polygon id="_Path_29" class="st12" points="168.1,126.4 168.1,127 164.3,129.2 164.3,128.6 			"/>
		</g>
		<g id="_Group_41">
			<polygon id="_Path_30" class="st12" points="168.1,127.6 168.1,128.2 164.3,130.4 164.3,129.7 			"/>
		</g>
		<g id="_Group_42">
			<polygon id="_Path_31" class="st12" points="162.8,123.5 162.8,124.1 153.4,129.6 153.4,128.9 			"/>
		</g>
		<g id="_Group_43">
			<polygon id="_Path_32" class="st12" points="162.8,124.8 162.8,125.4 153.4,130.8 153.4,130.2 			"/>
		</g>
		<g id="_Group_44">
			<polygon id="_Path_33" class="st12" points="160.1,127.6 160.1,128.2 153.4,132.1 153.4,131.5 			"/>
		</g>
	</g>
</g>
</svg>
