<?xml version="1.0" encoding="utf-8"?>
<!-- Generator: Adobe Illustrator 23.0.0, SVG Export Plug-In . SVG Version: 6.00 Build 0)  -->
<svg version="1.1" id="Layer_1" xmlns="http://www.w3.org/2000/svg" xmlns:xlink="http://www.w3.org/1999/xlink" x="0px" y="0px"
	 width="262.9px" height="197.6px" viewBox="0 0 262.9 197.6" style="enable-background:new 0 0 262.9 197.6;" xml:space="preserve"
	>
<style type="text/css">
	.st0{fill:#EAE9E4;stroke:#FFFFFF;stroke-miterlimit:10;}
	.st1{fill:url(#SVGID_1_);stroke:#FFFFFF;stroke-miterlimit:10;}
	.st2{fill:url(#SVGID_2_);stroke:#FFFFFF;stroke-miterlimit:10;}
	.st3{fill:#3D1701;}
	.st4{fill:#250E01;}
	.st5{fill:#692901;}
	.st6{fill:#FFCC94;}
	.st7{fill:#7295AA;}
	.st8{fill:#B28E69;}
	.st9{fill:#072E47;}
	.st10{fill:#AF7846;}
	.st11{fill:#FA7564;}
	.st12{fill:#FA543F;}
	.st13{fill:#FFA323;}
	.st14{fill:#F7BD57;}
	.st15{fill:#2B1102;}
	.st16{fill:#3E1801;}
	.st17{fill:#3B1702;}
	.st18{fill:#673C24;}
	.st19{fill:#6D4026;}
	.st20{fill:#A05D38;}
	.st21{fill:#572201;}
	.st22{fill:#FFB231;}
	.st23{fill:#4C1C01;}
	.st24{fill:#EDC7AF;}
	.st25{fill:#ECC6AF;}
	.st26{fill:#7F6B5E;}
	.st27{fill:#EDD9CC;}
	.st28{fill:#FEF7E5;}
	.st29{fill:#DCCEB6;}
	.st30{fill:#EDCEBA;}
	.st31{fill:#FFFFFF;}
	.st32{fill:#E4B185;}
	.st33{fill:#B38A68;}
	.st34{fill:#CD9F78;}
	.st35{fill:#998458;}
	.st36{fill:#B29867;}
	.st37{fill:url(#_Path__1_);}
	.st38{fill:#9C9B9B;}
	.st39{fill:#FFB923;}
	.st40{fill:#BFCBE3;}
	.st41{fill:#D0D9EA;}
	.st42{fill:#E1E4EA;}
	.st43{fill:#393C41;}
	.st44{fill:#9ED7E2;}
	.st45{fill:#FAFBFD;}
	.st46{fill:#374246;}
	.st47{fill:#56676E;}
	.st48{fill:#02415E;}
	.st49{fill:#025074;}
	.st50{fill:#DEF3EE;}
	.st51{fill:#BCB596;}
	.st52{fill:#F1EBDA;}
	.st53{fill:#D8D1B4;}
	.st54{fill:#49C1CA;}
	.st55{fill:#389BA0;}
	.st56{fill:#B03814;}
	.st57{fill:#F39E02;}
	.st58{fill:#CCD6EA;}
	.st59{fill:#A6BAE3;}
	.st60{fill:#1A4B6C;}
	.st61{fill:url(#_Path_8_1_);}
	.st62{fill:url(#_Path_9_1_);}
	.st63{fill:#E2E0DC;}
	.st64{fill:url(#_Path_11_1_);}
	.st65{fill:url(#_Path_12_1_);}
	.st66{fill:url(#_Path_14_1_);}
	.st67{fill:url(#_Path_15_1_);}
	.st68{fill:url(#_Path_17_1_);}
	.st69{fill:url(#_Path_18_1_);}
	.st70{fill:url(#_Path_20_1_);}
	.st71{fill:url(#_Path_21_1_);}
	.st72{fill:url(#_Path_22_1_);}
	.st73{fill:#414042;}
	.st74{fill:url(#SVGID_3_);}
	.st75{fill:#231F20;}
	.st76{fill:url(#SVGID_4_);}
	.st77{fill:url(#SVGID_5_);}
	.st78{fill:url(#SVGID_6_);}
	.st79{fill:#FBBC05;}
	.st80{fill:#CC9306;}
	.st81{fill:#E5AA17;}
	.st82{fill:none;stroke:#231F20;stroke-width:0.5;stroke-miterlimit:10;}
	.st83{fill:url(#_Path_23_1_);}
	.st84{fill:url(#_Path_24_1_);}
	.st85{fill:url(#_Path_26_1_);}
	.st86{fill:url(#_Path_27_1_);}
	.st87{fill:url(#_Path_29_1_);}
	.st88{fill:url(#_Path_30_1_);}
	.st89{fill:url(#_Path_32_1_);}
	.st90{fill:url(#_Path_33_1_);}
	.st91{fill:url(#_Path_35_1_);}
	.st92{fill:#ECECEC;}
	.st93{fill:url(#_Path_40_1_);}
	.st94{fill:url(#_Path_41_1_);}
	.st95{fill:#A2A2A2;}
	.st96{clip-path:url(#SVGID_8_);}
	.st97{fill:#9C9C9C;}
	.st98{fill:#999999;}
	.st99{fill:#969696;}
	.st100{fill:#949494;}
	.st101{fill:#919191;}
	.st102{fill:#8F8F8F;}
	.st103{fill:#8C8C8C;}
	.st104{fill:#8A8A8A;}
	.st105{clip-path:url(#SVGID_10_);}
	.st106{fill:#828282;}
	.st107{fill:#848484;}
	.st108{fill:#AEAEAE;}
	.st109{clip-path:url(#SVGID_12_);}
	.st110{clip-path:url(#SVGID_14_);}
	.st111{clip-path:url(#SVGID_16_);}
	.st112{clip-path:url(#SVGID_18_);}
	.st113{fill:#878787;}
	.st114{fill:#858585;}
	.st115{clip-path:url(#SVGID_20_);}
	.st116{clip-path:url(#SVGID_22_);}
	.st117{clip-path:url(#SVGID_24_);}
	.st118{clip-path:url(#SVGID_26_);}
	.st119{clip-path:url(#SVGID_28_);}
	.st120{clip-path:url(#SVGID_30_);}
	.st121{fill:#F8CD16;}
	.st122{fill:#223437;}
	.st123{fill:#406166;}
	.st124{fill:#0C181A;}
	.st125{fill:#656A69;}
	.st126{fill:url(#SVGID_31_);}
	.st127{fill:#3CC272;}
	.st128{fill:url(#SVGID_32_);}
	.st129{fill:#000255;}
	.st130{fill:url(#SVGID_33_);}
	.st131{fill:#C9C9C6;}
	.st132{fill:url(#SVGID_34_);}
	.st133{fill:none;stroke:#000255;stroke-miterlimit:10;}
	.st134{fill:#07334E;}
	.st135{fill:#F0E7D8;}
	.st136{fill:#292320;}
	.st137{fill:#413833;}
	.st138{fill:#230E01;}
	.st139{fill:#5B3520;}
	.st140{fill:#9F9B90;}
	.st141{fill:#F5EEDD;}
	.st142{fill:#2B1101;}
	.st143{fill:#5A3520;}
	.st144{fill:#8B5231;}
	.st145{fill:#4A2C1A;}
</style>
<title>Artboard 9@2x</title>
<polygon class="st0" points="158.1,197 131.9,182 157.8,167.5 184.1,182.5 "/>
<polygon class="st0" points="131.9,182 105.8,167 131.6,152.5 157.8,167.5 "/>
<polygon class="st0" points="184.1,182.5 157.8,167.5 183.8,153 210,168 "/>
<polygon class="st0" points="157.8,167.5 131.6,152.5 157.6,138.1 183.8,153 "/>
<polygon class="st0" points="105.8,167 79.6,152.1 105.6,137.7 131.6,152.5 "/>
<polygon class="st0" points="131.6,152.5 105.6,137.7 131.4,123.2 157.6,138.1 "/>
<polygon class="st0" points="79.6,152.1 53.4,137.2 79.4,122.7 105.6,137.7 "/>
<polygon class="st0" points="105.6,137.7 79.4,122.7 105.2,108.2 131.4,123.2 "/>
<polygon class="st0" points="210,168 183.8,153 209.7,138.6 235.9,153.6 "/>
<polygon class="st0" points="183.8,153 157.6,138.1 183.5,123.6 209.7,138.6 "/>
<polygon class="st0" points="157.6,138.1 131.4,123.2 157.3,108.7 183.5,123.6 "/>
<polygon class="st0" points="131.4,123.2 105.2,108.2 131.1,93.7 157.3,108.7 "/>
<polygon class="st0" points="235.9,153.6 209.7,138.6 235.7,124.1 261.9,139.1 "/>
<polygon class="st0" points="209.7,138.6 183.5,123.6 209.5,109.1 235.7,124.1 "/>
<polygon class="st0" points="183.5,123.6 157.3,108.7 183.3,94.2 209.5,109.1 "/>
<polygon class="st0" points="157.3,108.7 131.1,93.7 157.1,79.2 183.3,94.2 "/>
<polygon class="st0" points="53.4,137.2 27.2,122.3 53.2,107.8 79.4,122.7 "/>
<polygon class="st0" points="79.4,122.7 53.2,107.8 79.1,93.3 105.2,108.2 "/>
<polygon class="st0" points="105.2,108.2 79.1,93.3 104.9,78.9 131.1,93.7 "/>
<polygon class="st0" points="131.1,93.7 104.9,78.9 130.9,64.4 157.1,79.2 "/>
<polygon class="st0" points="27.2,122.3 1,107.3 27,92.8 53.2,107.8 "/>
<polygon class="st0" points="53.2,107.8 27,92.8 52.9,78.3 79.1,93.3 "/>
<polygon class="st0" points="79.1,93.3 52.9,78.3 78.8,63.9 104.9,78.9 "/>
<polygon class="st0" points="104.9,78.9 78.8,63.9 104.7,49.4 130.9,64.4 "/>
<linearGradient id="SVGID_1_" gradientUnits="userSpaceOnUse" x1="187.5572" y1="-42.926" x2="170.9178" y2="-13.9181" gradientTransform="matrix(1 0 0 1 0 114.3937)">
	<stop  offset="0" style="stop-color:#EAE9E4;stop-opacity:0"/>
	<stop  offset="1" style="stop-color:#EAE9E4"/>
</linearGradient>
<polygon class="st1" points="261.6,108.6 104.5,19 104.7,49.4 261.9,139.1 "/>
<linearGradient id="SVGID_2_" gradientUnits="userSpaceOnUse" x1="47.9016" y1="-58.993" x2="65.3162" y2="-31.317" gradientTransform="matrix(1 0 0 1 0 114.3937)">
	<stop  offset="0" style="stop-color:#EAE9E4;stop-opacity:0"/>
	<stop  offset="1" style="stop-color:#EAE9E4"/>
</linearGradient>
<polygon class="st2" points="0.9,76.9 104.5,19 104.7,49.4 1,107.3 "/>
<g>
	<g>
		<path class="st3" d="M29.2,77.4l24.8-14.2c0.1-0.1,0.4-0.1,0.5-0.1L29.8,77.3C29.6,77.3,29.4,77.3,29.2,77.4z"/>
		<path class="st3" d="M29.8,77.3l24.8-14.1c0.3,0,0.4,0.1,0.6,0.1L30.5,77.4C30.2,77.3,29.9,77.3,29.8,77.3z"/>
		<path class="st3" d="M30.5,77.4l24.8-14.1l0.1,0.1l-3.1,1.8C52.3,65.3,30.5,77.4,30.5,77.4z"/>
	</g>
	<g>
		<path class="st4" d="M69.6,90.4l3.1-1.8c0,0.5-0.1,0.9-0.5,1.2l-3.1,1.8C69.4,91.3,69.6,90.9,69.6,90.4z"/>
	</g>
	<polygon class="st4" points="69.6,77.4 72.8,75.6 72.8,88.5 69.6,90.4 	"/>
	<polygon class="st3" points="52.3,65.3 55.4,63.3 70.9,72.3 67.7,74.1 	"/>
	<g>
		<g>
			<path class="st3" d="M67.7,74.1l3.1-1.8c0.8,0.5,1.4,1.3,1.7,2.2l-3.1,1.8C69.1,75.4,68.5,74.6,67.7,74.1L67.7,74.1z"/>
			<path class="st4" d="M69.4,76.3l3.1-1.8c0.1,0.3,0.1,0.5,0.1,0.8L69.5,77C69.6,76.8,69.5,76.5,69.4,76.3z"/>
			<path class="st4" d="M69.6,77.2l3.1-1.8c0,0.1,0,0.1,0,0.3l-3.1,1.8C69.6,77.3,69.6,77.2,69.6,77.2z"/>
		</g>
	</g>
	<path class="st5" d="M67.7,74.1c1.2,0.8,1.8,1.9,1.9,3.2v12.9c0,1.2-0.9,1.7-1.9,1l-37.2,3.5c-1.2-0.8-1.8-1.9-1.9-3.2V78.6
		c0-1.2,22.6-14,23.6-13.4L67.7,74.1z"/>
</g>
<g>
	<g>
		<path class="st6" d="M53.6,56l-2.7-1.6c0.4-0.3,1-0.4,1.6-0.1l2.7,1.6C54.6,55.6,53.9,55.7,53.6,56L53.6,56z"/>
	</g>
	<g>
		<g>
			<path class="st7" d="M10.2,98.1l-2.7-1.6c-0.4-0.3-0.6-0.9-0.6-1.4l2.7,1.6C9.4,97.2,9.7,97.7,10.2,98.1L10.2,98.1z"/>
		</g>
	</g>
	<polygon class="st6" points="9.6,96.7 6.9,95.1 6.9,82 9.6,83.5 	"/>
	<polygon class="st6" points="11.7,79.8 8.9,78.2 50.8,54.4 53.6,56 	"/>
	<g>
		<g>
			<path class="st6" d="M9.6,83.5L6.9,82c0.1-1.6,0.9-2.8,2.2-3.7l2.7,1.6C10.4,80.5,9.6,82,9.6,83.5z"/>
		</g>
	</g>
	<path class="st8" d="M53.6,56c1.2-0.6,2.2-0.1,2.2,1.3V73c0,1.4-1,0.5-2.2,1.2L11.8,98c-1.2,0.6-2.2,0.1-2.2-1.3V83.4
		c0.1-1.6,0.9-2.8,2.2-3.7L53.6,56z"/>
</g>
<g>
	<g>
		<path class="st3" d="M70,85.8v4.5c0,0.5-0.4,0.9-0.8,1v-4.5C69.8,86.7,70,86.3,70,85.8z"/>
	</g>
	<g>
		<path class="st9" d="M14.2,102v4.5c-0.4-0.1-0.8-0.6-0.8-1v-4.7C13.5,101.3,13.7,101.7,14.2,102L14.2,102z"/>
	</g>
	<polygon class="st3" points="69.2,87 69.2,91.5 27.6,115.4 30.5,109.1 	"/>
	<polygon class="st9" points="26.7,109.1 26.7,113.8 14.1,106.5 14.2,102 	"/>
	<g>
		<path class="st3" d="M30.5,109.1v4.7c-1.2,0.6-2.6,0.6-3.8,0v-4.7C27.9,109.7,29.3,109.7,30.5,109.1z"/>
	</g>
	<path class="st5" d="M69.2,84.8c0.6,0.3,0.9,0.9,0.6,1.6c-0.1,0.3-0.4,0.5-0.6,0.6l-38.8,22.1c-1.2,0.6-2.6,0.6-3.8,0l-12.5-7.2
		c-0.6-0.3-0.9-0.9-0.6-1.6c0.1-0.3,0.4-0.5,0.6-0.6L53,77.6c1.2-0.6,2.6-0.6,3.8,0L69.2,84.8z"/>
</g>
<g>
	<path class="st3" d="M69.2,82.1l-38.8,22.2c-1.2,0.6-2.6,0.6-3.8,0l-12.5-7.2c-0.4-0.1-0.8-0.6-0.8-1v4.5c0,0.5,0.4,0.9,0.8,1
		l12.5,7.2c1.2,0.6,2.6,0.6,3.8,0l38.8-22.2c0.4-0.1,0.8-0.6,0.8-1V81C70,81.4,69.6,82,69.2,82.1z"/>
	<path class="st10" d="M69.2,79.9c0.6,0.3,0.9,0.9,0.6,1.6c-0.1,0.3-0.4,0.5-0.6,0.6l-38.8,22.2c-1.2,0.6-2.6,0.6-3.8,0l-12.5-7.2
		c-0.6-0.3-0.9-0.9-0.6-1.6c0.1-0.3,0.4-0.5,0.6-0.6L53,72.6c1.2-0.6,2.6-0.6,3.8,0L69.2,79.9z"/>
</g>
<g>
	<g>
		<g>
			<path class="st6" d="M33.4,78.5l-3.1-1.8l0.3-0.1l3.1,1.8L33.4,78.5z"/>
			<path class="st6" d="M33.7,78.3l-3.1-1.8c0.3-0.1,0.4-0.1,0.6,0l3.1,1.8C34.1,78.2,33.8,78.2,33.7,78.3z"/>
			<path class="st11" d="M34.4,78.3l-3.1-1.8h0.1l3.1,1.8H34.4z"/>
		</g>
	</g>
	<g>
		<g>
			<path class="st12" d="M20.6,97.6l-3.1-1.8c-0.3-0.3-0.5-0.5-0.4-0.9l3.1,1.8C20.1,96.9,20.3,97.3,20.6,97.6z"/>
		</g>
	</g>
	<polygon class="st13" points="20.2,96.7 17.1,94.9 17,86 20.1,87.8 	"/>
	<polygon class="st6" points="21.6,85.2 18.4,83.4 30.3,76.7 33.4,78.5 	"/>
	<g>
		<g>
			<path class="st13" d="M20.1,87.8L17,86c0-0.4,0.1-0.6,0.3-1l3.1,1.8C20.2,87.1,20.1,87.4,20.1,87.8z"/>
			<path class="st6" d="M20.3,86.7l-3.1-1.8c0.1-0.3,0.3-0.6,0.5-0.9l3.1,1.8C20.6,86.2,20.5,86.5,20.3,86.7z"/>
			<path class="st6" d="M20.9,86L17.8,84c0.3-0.3,0.4-0.5,0.8-0.6l3.1,1.8C21.3,85.3,21,85.6,20.9,86L20.9,86z"/>
		</g>
	</g>
	<path class="st14" d="M33.4,78.5c0.8-0.5,1.4-0.1,1.4,0.8v8.9c0,1-0.6,1.9-1.4,2.5l-11.8,6.9c-0.8,0.5-1.4,0.1-1.4-0.8v-8.9
		c0-1,0.6-1.9,1.4-2.5L33.4,78.5z"/>
</g>
<g>
	<g>
		<g>
			<path class="st6" d="M55.5,65.9l-3.1-1.8l0.3-0.1l3.1,1.8L55.5,65.9z"/>
			<path class="st6" d="M55.9,65.8L52.8,64c0.3-0.1,0.4-0.1,0.6,0l3.1,1.8C56.3,65.8,56,65.8,55.9,65.8z"/>
			<path class="st11" d="M56.5,65.8L53.4,64h0.1L56.5,65.8L56.5,65.8L56.5,65.8z"/>
		</g>
	</g>
	<g>
		<g>
			<path class="st13" d="M42.8,85.1l-3.1-1.8c-0.3-0.3-0.5-0.5-0.4-0.9l3.1,1.8C42.3,84.5,42.4,84.9,42.8,85.1z"/>
		</g>
	</g>
	<polygon class="st13" points="42.3,84.2 39.2,82.3 39.2,73.4 42.3,75.2 	"/>
	<polygon class="st6" points="43.7,72.8 40.6,71 52.4,64.1 55.5,65.9 	"/>
	<g>
		<g>
			<path class="st13" d="M42.3,75.2l-3.1-1.8c0-0.4,0.1-0.6,0.3-1l3.1,1.8C42.4,74.6,42.3,75,42.3,75.2L42.3,75.2z"/>
			<path class="st6" d="M42.5,74.3l-3.1-1.8c0.1-0.3,0.3-0.6,0.5-0.9l3.1,1.8C42.8,73.7,42.7,73.9,42.5,74.3z"/>
			<path class="st6" d="M43,73.4l-3.1-1.8c0.3-0.3,0.4-0.5,0.8-0.6l3.1,1.8C43.4,72.9,43.2,73.2,43,73.4z"/>
		</g>
	</g>
	<path class="st14" d="M55.5,65.9c0.8-0.5,1.4-0.1,1.4,0.8v8.9c0,1-0.6,1.9-1.4,2.5l-11.7,6.9c-0.8,0.5-1.4,0.1-1.4-0.8v-8.9
		c0-1,0.6-1.9,1.4-2.5L55.5,65.9z"/>
</g>
<g>
	<g>
		<path class="st4" d="M26.1,115.4l3.1-1.8c0,0.5-0.1,0.9-0.5,1.2l-3.1,1.8C25.9,116.3,26.1,115.8,26.1,115.4z"/>
	</g>
	<polygon class="st4" points="26.1,103.8 29.2,102 29.2,113.6 26.1,115.4 	"/>
	<g>
		<g>
			<path class="st5" d="M27.3,98.6l-15.6-8.9l-0.1-0.1c-0.3-0.1-0.4-0.1-0.6-0.1c-0.1,0-0.4,0-0.5,0.1l-3.1,1.8
				c0.1-0.1,0.4-0.1,0.5-0.1c0.3,0,0.4,0.1,0.6,0.1l0.1,0.1l15.4,8.9c0.8,0.5,1.4,1.3,1.7,2.2l3.1-1.8
				C28.6,99.9,28.1,99.1,27.3,98.6z"/>
			<path class="st4" d="M25.9,102.6l3.1-1.8c0.1,0.3,0.1,0.5,0.1,0.8l-3.1,1.8C26.1,103.3,25.9,102.9,25.9,102.6z"/>
			<path class="st4" d="M26.1,103.5l3.1-1.8c0,0.1,0,0.1,0,0.3l-3.1,1.8C26.1,103.7,26.1,103.5,26.1,103.5z"/>
		</g>
	</g>
	<path class="st3" d="M24.1,100.4c1.2,0.8,1.8,1.9,1.9,3.2v11.6c0,1.2-0.9,1.7-1.9,1l-15.6-8.9c-1.2-0.8-1.8-1.9-1.9-3.2V92.6
		c0-1.2,0.9-1.7,1.9-1L24.1,100.4z"/>
</g>
<g>
	<path class="st15" d="M83.8,76.7c-0.6,0.4-0.6,1,0,1.4c0.8,0.4,1.7,0.4,2.5,0c0.6-0.4,0.6-1,0-1.4C85.5,76.3,84.6,76.3,83.8,76.7z"
		/>
	<path class="st15" d="M86.8,72.3c0,2.3,0,4.3,0,5c0,0.3-0.3,0.5-0.5,0.6c-0.8,0.4-1.7,0.4-2.5,0c-0.3-0.1-0.5-0.4-0.5-0.6v-5H86.8z
		"/>
</g>
<g>
	<path class="st15" d="M113.7,59.5c-0.6,0.4-0.6,1,0,1.4c0.8,0.4,1.7,0.4,2.5,0c0.6-0.4,0.6-1,0-1.4
		C115.4,59.1,114.5,59.1,113.7,59.5z"/>
	<path class="st15" d="M116.6,55.3c0,2.2,0,4.1,0,4.8c0,0.3-0.3,0.5-0.5,0.6c-0.8,0.4-1.7,0.4-2.5,0c-0.3-0.1-0.5-0.4-0.5-0.6v-4.8
		H116.6z"/>
</g>
<g>
	<path class="st15" d="M72.1,69.9c-0.6,0.4-0.6,1,0,1.4c0.8,0.4,1.7,0.4,2.5,0c0.6-0.4,0.6-1,0-1.4C73.8,69.5,72.9,69.5,72.1,69.9z"
		/>
	<path class="st15" d="M75.1,66.7c0,1.8,0,3.4,0,4c0,0.3-0.3,0.5-0.5,0.6c-0.8,0.4-1.7,0.4-2.5,0c-0.3-0.1-0.5-0.4-0.5-0.6v-3.9h3.5
		V66.7z"/>
</g>
<g>
	<polygon class="st16" points="115,57.4 101.8,49.6 87.8,57.8 101.2,65.5 	"/>
	<polygon class="st17" points="115,10.3 101.7,2.6 101.8,49.6 115,57.4 	"/>
	<polygon class="st16" points="100.4,65.9 87,58.2 73.1,66.2 86.5,73.9 	"/>
	<polygon class="st18" points="101,18.4 87.7,10.7 87.8,57.8 101.2,65.5 	"/>
	<polygon class="st17" points="100.4,18.7 87,11.1 87,58.2 100.4,65.9 	"/>
	<polygon class="st19" points="115,10.3 101.7,2.6 87.7,10.7 101,18.4 	"/>
	<polygon class="st20" points="115,57.4 101.2,65.5 101,18.4 115,10.3 	"/>
	<polygon class="st20" points="100.4,18.7 100.4,65.9 86.5,73.9 86.4,26.8 	"/>
	<polygon class="st19" points="100.4,18.7 87,11.1 73,19.1 86.4,26.8 	"/>
	<polygon class="st18" points="86.4,26.8 73,19.1 73.1,66.2 86.5,73.9 	"/>
	<path class="st21" d="M116.7,58.4L84.9,76.7L84.8,26l31.8-18.2L116.7,58.4z M101.2,65.5l14-8.1L115,10.3l-14,8L101.2,65.5
		L101.2,65.5z M86.5,73.9l13.9-8l-0.1-47.1l-13.9,8L86.5,73.9L86.5,73.9z"/>
	<path class="st22" d="M103,43c-0.5,0.4-0.9,1-0.9,1.7c0,0.6,0.4,0.9,0.9,0.5c0.5-0.4,0.9-1,0.9-1.7C103.9,43,103.5,42.8,103,43z"/>
	<path class="st22" d="M98.2,45.9c-0.5,0.4-0.9,1-0.9,1.7c0,0.6,0.4,0.9,0.9,0.5c0.5-0.4,0.9-1,0.9-1.7
		C99.1,45.8,98.7,45.5,98.2,45.9z"/>
	<polygon class="st23" points="116.6,7.8 103.2,0 71.5,18.2 84.8,26 	"/>
	<polygon class="st3" points="84.8,26 71.5,18.2 71.6,68.9 84.9,76.7 	"/>
</g>
<g>
	<polygon class="st24" points="111.5,103.4 113,102.5 113,107.5 111.5,108.3 	"/>
	<polygon class="st25" points="110,102.4 111.4,101.6 113,102.5 111.5,103.4 	"/>
	<polygon class="st26" points="111.5,103.4 111.5,108.3 110,107.4 110,102.4 	"/>
</g>
<g>
	<polygon class="st24" points="156.9,77.2 158.4,76.4 158.2,81.4 156.8,82.2 	"/>
	<polygon class="st25" points="155.3,76.3 156.7,75.5 158.4,76.4 156.9,77.2 	"/>
	<polygon class="st26" points="156.9,77.2 156.8,82.2 155.3,81.3 155.3,76.3 	"/>
</g>
<g>
	<polygon class="st27" points="75.1,82.6 76.5,81.7 76.5,86.7 75.1,87.6 	"/>
	<polygon class="st25" points="73.5,81.7 75,80.8 76.5,81.7 75.1,82.6 	"/>
	<polygon class="st26" points="75.1,82.6 75.1,87.6 73.5,86.6 73.5,81.7 	"/>
</g>
<g>
	<polygon class="st27" points="156.9,72.3 156.9,80.1 111.4,106.5 111.5,98.6 	"/>
	<polygon class="st24" points="111.5,98.6 111.4,106.5 72.8,84.3 72.8,76.3 	"/>
	<polygon class="st28" points="156.9,72.3 111.5,98.6 72.8,76.3 118.3,50 	"/>
</g>
<g>
	<path class="st24" d="M122.6,34.4l1.3-0.8c5.3,1.4,10.4,3.6,15,6.5l-1.3,0.8C132.9,38,127.9,35.8,122.6,34.4L122.6,34.4z"/>
	<path class="st24" d="M158.2,56.6L158.2,56.6c0-0.1,0-0.3,0-0.3l0,0v-0.1l-0.1-0.3v-0.1v-0.1v-0.1l-0.1-0.3l-0.1-0.1l-0.3-0.4v-0.1
		l0,0l-0.1-0.1l-0.3-0.3l-0.4-0.1l-0.3-0.3l-0.1-0.1l-0.3-0.4l-0.1-0.1l-0.4-0.4l-0.1-0.1l-0.4-0.4l-0.1-0.1l-0.3-0.4l-0.1-0.1
		l-0.4-0.4l-0.1-0.1l-0.5-0.5l0,0l-0.5-0.5l-0.1-0.1l-0.4-0.4l-0.3-0.3l-0.4-0.4l-0.3-0.1l-0.5-0.4l-0.1-0.1l-0.6-0.5l-0.1-0.1
		l-0.5-0.4l-0.3-0.3l-0.5-0.4l-0.3-0.3l-0.5-0.4l-0.3-0.1l-0.8-0.5l0,0l-0.8-0.5l-0.3-0.1l-0.5-0.4l-0.3-0.3l-0.5-0.4l-0.3-0.3
		l-0.6-0.4l-0.3-0.3l-0.9-0.5l-0.3-0.1l-0.6-0.4l-0.3-0.3l-0.4-0.1l-0.4-0.1l-0.6-0.4l-0.3-0.1l-0.9-0.5l0,0c-4.7-2.8-9.7-5-15-6.5
		l0,0h-0.1h-0.3h-0.3H123h-0.3h-0.1h-0.3H121h-0.3l0,0l-0.4,0.1h-0.1c-0.1,0-0.3,0.1-0.3,0.1l-1.3,0.8l0.3-0.1h0.1l0.4-0.1h0.3h1.3
		h0.3h0.4h0.3h0.3h0.3h0.3c3.5,0.6,9.1,3,15.2,6.6l0,0l0.6,0.3l0.3,0.1l0.6,0.4l0.4,0.3l0.6,0.4l0.3,0.3l0.6,0.4l0.3,0.1l0.9,0.5
		l0.3,0.1l0.6,0.4l0.3,0.3l0.5,0.4l0.3,0.3l0.5,0.4l0.3,0.1l0.8,0.5l0,0l0.8,0.5l0.3,0.1l0.5,0.4l0.3,0.3l0.5,0.4l0.3,0.3l0.5,0.4
		l0.1,0.1l0.6,0.5l0.1,0.1l0.5,0.4l0.3,0.1l0.4,0.4l0.3,0.3l0.4,0.4l0.1,0.1l0.5,0.5l0,0l0.5,0.5l0.1,0.1l0.4,0.4l0.1,0.1l0.4,0.3
		l0.1,0.1l0.4,0.4l0.1,0.1l0.4,0.4l0.1,0.1l0.3,0.4l0.1,0.1l0.3,0.3l0.1,0.1l0.3,0.3l0.1,0.1l0.1,0.1l0.3,0.4l0.1,0.1l0.1,0.3
		l0.1,0.1v0.1l0.1,0.3V57c0,0.1,0,0.1,0,0.3v0.1c0,0.1,0,0.1,0,0.3v24.4l1.3-0.8V56.9C158.1,56.9,158.2,56.7,158.2,56.6z"/>
	<path class="st27" d="M137.6,40.8c10.6,6.2,19.3,13.7,19.3,16.8v11.5l-38.7-22.2V35.4C118.3,32.3,127,34.8,137.6,40.8z"/>
</g>
<g>
	<polygon class="st29" points="156.9,69.2 156.9,72.3 111.5,98.6 111.5,95.5 	"/>
	<polygon class="st30" points="111.5,95.5 111.5,98.6 72.8,76.3 72.8,73.3 	"/>
	<polygon class="st31" points="156.9,69.2 111.5,95.5 72.8,73.3 118.3,46.9 	"/>
</g>
<polygon class="st29" points="141,78.6 141,81.7 111.4,98.6 111.4,95.5 "/>
<polygon class="st31" points="141,78.6 111.4,95.5 72.8,73.3 102.2,56.2 "/>
<polygon class="st31" points="137.1,80.8 141,78.6 102.2,56.2 98.3,58.6 "/>
<polygon class="st31" points="128.4,85.8 132.3,83.6 93.5,61.3 89.6,63.5 "/>
<polygon class="st31" points="120.6,90.2 124.6,87.9 85.9,65.7 82,68 "/>
<polygon class="st31" points="111.4,95.5 115.4,93.3 76.6,71 72.8,73.3 "/>
<g>
	<path class="st6" d="M132.3,53.8c0.6,0.3,0.9,0.9,0.8,1.6c-0.1,0.4-0.4,0.6-0.8,0.8l-6,3.5c-1.2,0.6-2.7,0.6-3.9,0l-9.6-5.6
		c-0.6-0.3-0.9-0.9-0.8-1.6c0.1-0.4,0.4-0.6,0.8-0.8l6-3.5c1.2-0.6,2.7-0.6,3.9,0L132.3,53.8z"/>
	<path class="st13" d="M132.3,56.1l-6,3.5c-1.2,0.6-2.7,0.6-3.9,0l-9.6-5.6c-0.5-0.3-0.8-0.6-0.8-1.2v2.8c0,0.5,0.4,0.9,0.8,1.2
		l9.6,5.6c1.2,0.6,2.7,0.6,3.9,0l6-3.5c0.4-0.3,0.8-0.6,0.8-1.2v-2.8C133.1,55.5,132.8,55.8,132.3,56.1z"/>
</g>
<g>
	<path class="st6" d="M149.4,63.9c0.6,0.3,0.9,0.9,0.8,1.6c-0.1,0.4-0.4,0.6-0.8,0.8l-6,3.5c-1.2,0.6-2.7,0.6-3.9,0l-9.6-5.6
		c-0.6-0.3-0.9-0.9-0.8-1.6c0.1-0.4,0.4-0.6,0.8-0.8l6-3.5c1.2-0.6,2.7-0.6,3.9,0L149.4,63.9z"/>
	<path class="st13" d="M149.4,66.2l-6,3.5c-1.2,0.6-2.7,0.6-3.9,0l-9.6-5.6c-0.5-0.3-0.8-0.6-0.8-1.2v2.8c0,0.5,0.4,0.9,0.8,1.2
		l9.6,5.6c1.2,0.6,2.7,0.6,3.9,0l6-3.5c0.4-0.3,0.8-0.6,0.8-1.2V65C150.2,65.5,149.9,65.9,149.4,66.2z"/>
</g>
<polygon class="st32" points="160.6,100.1 173.7,92.6 173.7,77.3 160.6,84.9 "/>
<polygon class="st33" points="160.6,100.1 147.3,92.6 147.3,77.3 160.6,84.9 "/>
<polygon class="st34" points="173.7,77.3 160.6,69.8 147.3,77.3 156.2,82.3 160.6,84.9 "/>
<polygon class="st35" points="154.5,84 152.8,83 152.8,80.5 154.5,81.4 "/>
<polygon class="st36" points="167.6,73.8 165.9,72.9 152.8,80.5 154.5,81.4 "/>
<polygon class="st32" points="160.6,83.2 173.7,75.6 173.7,60.5 160.6,68.1 "/>
<polygon class="st33" points="160.6,83.2 147.3,75.6 147.3,60.5 160.6,68.1 "/>
<polygon class="st34" points="173.7,60.5 160.6,53 147.3,60.5 156.2,65.5 160.6,68.1 "/>
<polygon class="st35" points="154.5,67.1 152.8,66.2 152.8,63.6 154.5,64.6 "/>
<polygon class="st36" points="167.6,57 165.9,56.1 152.8,63.6 154.5,64.6 "/>
<g id="_Group_">
	
		<linearGradient id="_Path__1_" gradientUnits="userSpaceOnUse" x1="164.4137" y1="-46.3356" x2="169.7712" y2="-46.3356" gradientTransform="matrix(1 0 0 1 0 114.3937)">
		<stop  offset="6.000000e-02" style="stop-color:#C6C6C5"/>
		<stop  offset="1" style="stop-color:#9C9B9B"/>
	</linearGradient>
	<polygon id="_Path_" class="st37" points="164.5,67.6 169.8,64.5 169.8,68.5 164.5,71.6 	"/>
	<g id="_Group_2">
		<g id="_Group_3">
			<polygon id="_Path_2" class="st38" points="166,67.3 166,67.6 164.9,68.3 164.9,68.1 			"/>
		</g>
		<g id="_Group_4">
			<polygon id="_Path_3" class="st38" points="169.4,67.9 169.4,68 168.2,68.6 168.2,68.5 			"/>
		</g>
		<g id="_Group_5">
			<polygon id="_Path_4" class="st38" points="169.4,68.1 169.4,68.4 168.2,69 168.2,68.9 			"/>
		</g>
		<g id="_Group_6">
			<polygon id="_Path_5" class="st38" points="167.7,67 167.7,67.1 164.9,68.8 164.9,68.6 			"/>
		</g>
		<g id="_Group_7">
			<polygon id="_Path_6" class="st38" points="167.7,67.3 167.7,67.5 164.9,69.2 164.9,69 			"/>
		</g>
		<g id="_Group_8">
			<polygon id="_Path_7" class="st38" points="166.9,68.1 166.9,68.4 164.9,69.5 164.9,69.4 			"/>
		</g>
	</g>
</g>
<polygon class="st32" points="144,109.5 157.1,102 157.1,86.7 144,94.4 "/>
<polygon class="st33" points="144,109.5 130.7,102 130.7,86.7 144,94.4 "/>
<polygon class="st34" points="157.1,86.7 144,79.2 130.7,86.7 139.6,91.8 144,94.4 "/>
<polygon class="st35" points="137.9,93.5 136.2,92.4 136.2,90 137.9,90.9 "/>
<polygon class="st36" points="151,83.2 149.4,82.3 136.2,90 137.9,90.9 "/>
<g>
	<g>
		<path class="st3" d="M81.1,80.9l3-1.7c0.1-0.1,0.4-0.1,0.5-0.1l-3,1.7C81.4,80.7,81.2,80.8,81.1,80.9L81.1,80.9z"/>
		<path class="st3" d="M81.6,80.8l3-1.7c0.3,0,0.4,0.1,0.6,0.1l-3,1.7C82,80.8,81.7,80.8,81.6,80.8z"/>
		<path class="st3" d="M82.1,80.9l3-1.7l0.1,0.1l-3,1.7C82.2,80.9,82.1,80.9,82.1,80.9z"/>
	</g>
	<g>
		<path class="st4" d="M98.8,105l3-1.7c0,0.4-0.1,0.9-0.5,1.2l-3,1.7C98.7,105.9,98.8,105.4,98.8,105L98.8,105z"/>
	</g>
	<polygon class="st4" points="98.8,92.6 101.8,90.9 101.8,103.2 98.8,105 	"/>
	<polygon class="st3" points="82.4,80.9 85.3,79.2 100,87.8 97,89.5 	"/>
	<g>
		<g>
			<path class="st3" d="M97,89.5l3-1.7c0.8,0.5,1.3,1.3,1.7,2.1l-3,1.7C98.3,90.7,97.8,90,97,89.5z"/>
			<path class="st4" d="M98.7,91.5l3-1.7c0.1,0.3,0.1,0.5,0.1,0.8l-3,1.7C98.8,92,98.7,91.8,98.7,91.5z"/>
			<path class="st4" d="M98.8,92.3l3-1.7c0,0.1,0,0.1,0,0.3l-3,1.7C98.8,92.6,98.8,92.4,98.8,92.3z"/>
		</g>
	</g>
	<path class="st5" d="M97,89.5c1,0.6,1.7,1.8,1.8,3.1V105c0,1.2-0.8,1.6-1.8,1l-14.8-8.5c-1-0.6-1.7-1.8-1.8-3.1V82
		c0-1.2,0.8-1.6,1.8-1L97,89.5z"/>
</g>
<g>
	<g>
		<path class="st6" d="M83.5,72.1l-2.6-1.6c0.4-0.3,1-0.4,1.4-0.1l2.6,1.6C84.4,71.7,83.9,71.9,83.5,72.1z"/>
	</g>
	<g>
		<g>
			<path class="st7" d="M62.9,100.6L60.3,99c-0.4-0.3-0.6-0.8-0.6-1.3l2.6,1.6C62.2,99.8,62.5,100.3,62.9,100.6z"/>
		</g>
	</g>
	<polygon class="st13" points="62.2,99.3 59.7,97.7 59.7,85.2 62.2,86.6 	"/>
	<polygon class="st6" points="64.3,83.1 61.7,81.6 80.9,70.7 83.5,72.1 	"/>
	<g>
		<path class="st6" d="M62.2,86.6l-2.6-1.6c0.1-1.4,0.8-2.7,2.1-3.5l2.6,1.4C63,83.9,62.4,85.2,62.2,86.6z"/>
	</g>
	<path class="st39" d="M83.5,72.1c1.2-0.6,2.1-0.1,2.1,1.2v15c0,1.3-0.9,0.5-2.1,1.2l-19.2,10.9c-1.2,0.6-2.1,0.1-2.1-1.2V86.6
		c0.1-1.4,0.8-2.7,2.1-3.5L83.5,72.1z"/>
</g>
<g>
	<g>
		<path class="st3" d="M99.2,100.6v4.3c0,0.4-0.4,0.9-0.8,1v-4.3C99,101.5,99.2,101.1,99.2,100.6z"/>
	</g>
	<g>
		<path class="st9" d="M66.7,104.3v4.3c-0.4-0.1-0.6-0.6-0.8-1v-4.4C66,103.7,66.3,104.1,66.7,104.3z"/>
	</g>
	<polygon class="st3" points="98.4,101.6 98.4,106 79.4,117 82.2,111 	"/>
	<polygon class="st9" points="78.6,111 78.6,115.4 66.7,108.6 66.7,104.3 	"/>
	<g>
		<path class="st3" d="M82.2,111v4.3c-1.2,0.5-2.5,0.5-3.6,0V111C79.8,111.7,81.1,111.7,82.2,111z"/>
	</g>
	<path class="st5" d="M98.4,99.5c0.5,0.3,0.9,0.8,0.6,1.4c-0.1,0.4-0.4,0.5-0.6,0.6L82.1,111c-1.2,0.5-2.5,0.5-3.6,0l-11.9-6.9
		c-0.5-0.3-0.9-0.8-0.6-1.4c0.1-0.4,0.4-0.5,0.6-0.6l16.3-9.4c1.2-0.5,2.5-0.5,3.6,0L98.4,99.5z"/>
</g>
<g>
	<path class="st13" d="M98.4,97.1l-16.3,9.4c-1.2,0.5-2.5,0.5-3.6,0l-11.9-6.9c-0.4-0.1-0.6-0.6-0.8-1v4.3c0,0.5,0.4,0.9,0.8,1
		l11.9,6.9c1.2,0.5,2.5,0.5,3.6,0l16.3-9.4c0.4-0.1,0.6-0.6,0.8-1V96C99.2,96.4,99,96.8,98.4,97.1z"/>
	<path class="st6" d="M98.4,95c0.5,0.3,0.9,0.8,0.6,1.4c-0.1,0.4-0.4,0.5-0.6,0.6l-16.3,9.4c-1.2,0.5-2.5,0.5-3.6,0l-11.9-6.9
		c-0.5-0.3-0.9-0.8-0.6-1.4c0.1-0.4,0.4-0.5,0.6-0.6l16.3-9.4c1.2-0.5,2.5-0.5,3.6,0L98.4,95z"/>
</g>
<g>
	<g>
		<path class="st4" d="M77.9,117l3-1.7c0,0.4-0.1,0.9-0.5,1.2l-3,1.7C77.8,117.9,77.9,117.5,77.9,117z"/>
	</g>
	<polygon class="st4" points="77.9,106 81.1,104.2 80.9,115.3 77.9,117 	"/>
	<g>
		<g>
			<path class="st5" d="M79.2,101.1l-14.8-8.5l-0.1-0.1c-0.1-0.1-0.4-0.1-0.6-0.1c-0.1,0-0.4,0-0.5,0.1l-3,1.7
				c0.1-0.1,0.4-0.1,0.5-0.1c0.3,0,0.4,0.1,0.6,0.1l0.1,0.1l14.8,8.5c0.8,0.5,1.3,1.3,1.7,2.1l3-1.7
				C80.5,102.4,79.9,101.6,79.2,101.1z"/>
			<path class="st4" d="M77.8,105l3-1.7c0.1,0.3,0.1,0.5,0.1,0.8l-3,1.7C77.9,105.5,77.9,105.2,77.8,105z"/>
			<path class="st4" d="M77.9,105.7l3-1.7c0,0.1,0,0.1,0,0.3l-3,1.7C77.9,105.9,77.9,105.9,77.9,105.7L77.9,105.7z"/>
		</g>
	</g>
	<path class="st3" d="M76.1,102.8c1,0.6,1.8,1.9,1.8,3.2v11.1c0,1.2-0.8,1.6-1.8,1l-14.8-8.5c-1-0.6-1.7-1.8-1.8-3.1V95.4
		c0-1.2,0.8-1.6,1.8-1L76.1,102.8z"/>
</g>
<g>
	<polygon class="st40" points="46.9,128.7 31.2,119.7 31.2,93.6 46.9,102.6 	"/>
	<polygon class="st41" points="46.9,102.6 31.2,93.6 49.7,83 65.4,92 	"/>
	<polygon class="st42" points="65.4,110.9 65.4,92 46.9,102.6 46.9,128.7 47.7,128.4 49.5,127.3 65.4,118.1 	"/>
</g>
<polygon class="st43" points="47.7,109.2 47.7,124.7 48.4,124.4 50.2,123.3 64.8,114.9 64.8,99.4 "/>
<polygon class="st44" points="49.4,109.9 49.4,122.2 49.9,121.9 51.3,121.1 63.2,114.3 63.2,101.9 "/>
<polygon class="st45" points="49.4,109.9 49.4,111.3 49.9,111 51.3,110.1 63.2,103.3 63.2,101.9 "/>
<g>
	<path class="st46" d="M59.5,90.7c1,0.4,1.4,1.6,1,2.5c-0.3,0.5-0.6,0.9-1.2,1c-1.8,1-3.9,1-5.7,0c-0.9-0.4-1.4-1.6-0.9-2.6
		c0.3-0.5,0.6-0.8,1-1C55.5,89.8,57.7,89.8,59.5,90.7z"/>
	<path class="st47" d="M59.4,90.7c1.6,0.9,1.6,2.3-0.1,3.2c-1.8,0.9-3.9,0.9-5.7,0c-1.6-0.9-1.6-2.3,0.1-3.2
		C55.5,89.8,57.6,89.8,59.4,90.7z"/>
</g>
<g>
	<path class="st46" d="M51.2,95.7c0.9,0.4,1.4,1.6,0.9,2.6c-0.3,0.5-0.6,0.8-1,1c-1.8,1-3.9,1-5.7,0c-0.9-0.4-1.4-1.6-0.9-2.6
		c0.3-0.5,0.6-0.8,1-1C47.2,94.6,49.4,94.6,51.2,95.7z"/>
	<path class="st47" d="M51.2,95.7c1.6,0.9,1.6,2.3-0.1,3.2c-1.8,0.9-3.9,0.9-5.7,0c-1.6-0.9-1.6-2.3,0.1-3.2
		C47.2,94.8,49.4,94.8,51.2,95.7z"/>
</g>
<g>
	<path class="st46" d="M52,86.1c0.9,0.4,1.4,1.6,0.9,2.6c-0.3,0.5-0.6,0.8-1,1c-1.8,1-3.9,1-5.7,0c-0.9-0.4-1.4-1.6-0.9-2.6
		c0.3-0.5,0.6-0.8,1-1C48,85.2,50.2,85.2,52,86.1z"/>
	<path class="st47" d="M52,86.1c1.6,0.9,1.6,2.3-0.1,3.2c-1.8,0.9-3.9,0.9-5.7,0c-1.6-0.9-1.6-2.3,0.1-3.2
		C48,85.2,50.2,85.2,52,86.1z"/>
</g>
<g>
	<path class="st46" d="M43.4,91.1c0.9,0.4,1.4,1.6,0.9,2.6c-0.3,0.5-0.6,0.8-1,1c-1.8,1-3.9,1-5.7,0c-0.9-0.4-1.4-1.6-0.9-2.6
		c0.3-0.5,0.6-0.8,1-1C39.4,90.2,41.6,90.2,43.4,91.1z"/>
	<path class="st47" d="M43.3,91.1c1.6,0.9,1.6,2.3-0.1,3.2c-1.8,0.9-3.9,0.9-5.7,0c-1.6-0.9-1.4-2.3,0.1-3.2
		C39.4,90.2,41.6,90.2,43.3,91.1z"/>
</g>
<path class="st48" d="M49.5,104.2c0.6-0.4,1.3-0.1,1.3,0.5c-0.1,0.8-0.5,1.6-1.3,1.9c-0.6,0.4-1.3,0.1-1.3-0.5
	C48.4,105.4,48.8,104.6,49.5,104.2z"/>
<path class="st49" d="M49.7,104.2c0.6-0.4,1.2-0.1,1.2,0.5c-0.1,0.8-0.5,1.4-1.2,1.8c-0.6,0.4-1.2,0.1-1.2-0.5
	C48.6,105.2,49,104.6,49.7,104.2z"/>
<polygon class="st50" points="49.8,105.2 49.7,105.2 49.7,104.3 49.8,104.2 "/>
<path class="st48" d="M53,102.1c0.6-0.4,1.3-0.1,1.3,0.5c-0.1,0.8-0.5,1.6-1.3,1.9c-0.6,0.4-1.3,0.1-1.3-0.5
	C51.9,103.3,52.4,102.5,53,102.1z"/>
<path class="st49" d="M53.3,102.1c0.6-0.4,1.2-0.1,1.2,0.5c-0.1,0.8-0.5,1.4-1.2,1.8c-0.6,0.4-1.2,0.1-1.2-0.5
	C52.1,103.2,52.5,102.5,53.3,102.1z"/>
<polygon class="st50" points="53.3,103.2 53.2,103.3 53.2,102.2 53.3,102.2 "/>
<path class="st48" d="M56.3,100.3c0.6-0.4,1.3-0.1,1.3,0.5c-0.1,0.8-0.5,1.6-1.3,1.9c-0.6,0.4-1.3,0.1-1.3-0.5
	C55.1,101.3,55.6,100.7,56.3,100.3z"/>
<path class="st49" d="M56.5,100.2c0.6-0.4,1.2-0.1,1.2,0.5c-0.1,0.8-0.5,1.4-1.2,1.8s-1.2,0.1-1.2-0.5
	C55.4,101.3,55.9,100.6,56.5,100.2z"/>
<polygon class="st50" points="56.5,101.2 56.4,101.3 56.4,100.4 56.5,100.3 "/>
<path class="st48" d="M59.4,98.5c0.6-0.4,1.3-0.1,1.3,0.5c-0.1,0.8-0.5,1.6-1.3,1.9c-0.6,0.4-1.3,0.1-1.3-0.5
	C58.2,99.7,58.6,99,59.4,98.5z"/>
<path class="st49" d="M59.5,98.5c0.6-0.4,1.2-0.1,1.2,0.5c-0.1,0.8-0.5,1.4-1.2,1.8c-0.6,0.4-1.2,0.1-1.2-0.5
	C58.5,99.5,58.9,98.9,59.5,98.5z"/>
<polygon class="st50" points="59.7,99.5 59.5,99.7 59.5,98.6 59.7,98.6 "/>
<path class="st48" d="M62.8,96.6c0.6-0.4,1.3-0.1,1.3,0.5c-0.1,0.8-0.5,1.6-1.3,1.9c-0.6,0.4-1.3,0.1-1.3-0.5
	C61.5,97.7,62,97.1,62.8,96.6z"/>
<path class="st49" d="M62.9,96.6c0.6-0.4,1.2-0.1,1.2,0.5c-0.1,0.8-0.5,1.4-1.2,1.8c-0.6,0.4-1.2,0.1-1.2-0.5
	C61.7,97.6,62.2,96.9,62.9,96.6z"/>
<polygon class="st50" points="62.9,97.6 62.9,97.7 62.9,96.7 62.9,96.7 "/>
<polygon class="st51" points="170.8,86.3 170.8,110.5 187.3,119.8 187.3,95.8 "/>
<polygon class="st52" points="195.5,81.7 187.3,76.9 170.8,86.3 179.1,91 187.3,95.8 203.6,86.3 "/>
<path class="st53" d="M203.6,86.3l-16.3,9.4V120l16.3-9.4V86.3z"/>
<path class="st52" d="M178.7,98.1c-3.1-1.8-5.6-0.4-5.6,3.2c0.3,3.9,2.3,7.5,5.6,9.6c3.1,1.8,5.6,0.4,5.6-3.2
	C184.2,103.8,182,100.2,178.7,98.1z"/>
<path class="st54" d="M181.2,110.9c-0.8,0-1.6-0.3-2.1-0.6c-3.1-1.9-4.9-5.3-5.2-8.9c0-2.1,0.9-3.2,2.3-3.2c0.8,0,1.6,0.3,2.1,0.6
	c3.1,1.9,5.1,5.3,5.2,8.9C183.7,109.7,182.8,110.9,181.2,110.9L181.2,110.9z"/>
<path class="st55" d="M173.8,90.2c-0.8-0.4-1.3-0.1-1.3,0.8c0,0.9,0.5,1.8,1.3,2.3c0.8,0.4,1.3,0.1,1.3-0.8
	C175.1,91.5,174.6,90.7,173.8,90.2z"/>
<path class="st56" d="M176.4,92.4c-0.4-0.3-0.6,0-0.6,0.4c0,0.5,0.3,0.9,0.6,1.2c0.4,0.3,0.6,0,0.6-0.4
	C177,93.1,176.8,92.7,176.4,92.4z"/>
<path class="st57" d="M178.3,93.6c-0.4-0.3-0.6,0-0.6,0.4c0,0.5,0.3,0.9,0.6,1.2c0.4,0.3,0.6,0,0.6-0.4
	C179,94.2,178.7,93.8,178.3,93.6z"/>
<polygon class="st32" points="127.4,118.4 140.6,110.9 140.6,95.8 127.4,103.3 "/>
<polygon class="st33" points="127.4,118.4 114.3,110.9 114.3,95.8 127.4,103.3 "/>
<polygon class="st34" points="140.6,95.8 127.4,88.2 114.3,95.8 123,100.7 127.4,103.3 "/>
<polygon class="st35" points="121.4,102.4 119.7,101.3 119.7,98.9 121.4,99.8 "/>
<polygon class="st36" points="134.5,92.3 132.8,91.3 119.7,98.9 121.4,99.8 "/>
<g>
	<polygon class="st40" points="95.8,129.9 80.3,120.9 80.1,106.9 95.7,115.8 	"/>
	<polygon class="st58" points="95.7,115.8 80.1,106.9 101.2,94.8 116.7,103.8 	"/>
	<polygon class="st42" points="116.7,103.8 116.9,117.8 95.8,129.9 95.7,115.8 	"/>
</g>
<polygon class="st49" points="110.2,109 96.9,116.6 96.9,127.6 110.2,120 "/>
<polygon class="st44" points="97.4,117 109.7,109.9 109.7,119.7 97.4,126.8 "/>
<polygon class="st49" points="116.3,105.7 110.5,109 110.5,111.4 116.3,108.1 "/>
<polygon class="st45" points="109.3,117.9 108.6,118.3 108.6,112.5 109.3,111.9 "/>
<path class="st49" d="M113.9,115.4c0.6-0.4,1.3-0.1,1.3,0.5c-0.1,0.8-0.5,1.6-1.3,1.9c-0.6,0.4-1.3,0.1-1.3-0.5
	C112.7,116.6,113.1,115.8,113.9,115.4z"/>
<polygon class="st59" points="114,116.5 113.9,116.6 113.9,115.6 114,115.6 "/>
<path class="st60" d="M111.7,112.3c0.3-0.1,0.5-0.1,0.5,0.3c0,0.4-0.3,0.6-0.5,0.9c-0.3,0.1-0.5,0.1-0.5-0.3
	C111,112.8,111.3,112.6,111.7,112.3z"/>
<path class="st60" d="M113.4,111.3c0.3-0.1,0.5-0.1,0.5,0.3c0,0.4-0.3,0.6-0.5,0.9c-0.3,0.1-0.5,0.1-0.5-0.3
	C112.8,111.8,113.1,111.6,113.4,111.3z"/>
<path class="st60" d="M115.2,110.3c0.3-0.1,0.5-0.1,0.5,0.3s-0.3,0.6-0.5,0.9c-0.3,0.1-0.5,0.1-0.5-0.3
	C114.7,110.8,114.9,110.5,115.2,110.3z"/>
<path class="st60" d="M111.7,114.7c0.3-0.1,0.5-0.1,0.5,0.3c0,0.4-0.3,0.6-0.5,0.9c-0.3,0.1-0.5,0.1-0.5-0.3
	C111,115.2,111.3,114.8,111.7,114.7z"/>
<path class="st60" d="M113.4,113.6c0.3-0.1,0.5-0.1,0.5,0.3c0,0.4-0.3,0.6-0.5,0.9c-0.3,0.1-0.5,0.1-0.5-0.3
	C112.8,114.1,113.1,113.8,113.4,113.6z"/>
<path class="st60" d="M115.2,112.6c0.3-0.1,0.5-0.1,0.5,0.3s-0.3,0.8-0.5,0.9c-0.3,0.1-0.5,0.1-0.5-0.3
	C114.7,113.1,114.8,112.7,115.2,112.6z"/>
<g id="_Group_9">
	<g id="_Group_10">
		<g id="_Group_11">
			<g id="_Group_12">
				<g id="_Group_13">
					
						<linearGradient id="_Path_8_1_" gradientUnits="userSpaceOnUse" x1="2042.0948" y1="-11.0075" x2="2042.0948" y2="12.648" gradientTransform="matrix(-1 0 0 1 2219.2732 114.3937)">
						<stop  offset="0" style="stop-color:#9C9B9B"/>
						<stop  offset="0.21" style="stop-color:#B6B5B5"/>
						<stop  offset="0.51" style="stop-color:#D3D3D3"/>
						<stop  offset="0.76" style="stop-color:#E6E5E5"/>
						<stop  offset="0.94" style="stop-color:#ECECEC"/>
					</linearGradient>
					<polygon id="_Path_8" class="st61" points="176.5,103.8 176.9,128.9 177.6,128.5 177.8,102.9 					"/>
				</g>
				<g id="_Group_14">
					
						<linearGradient id="_Path_9_1_" gradientUnits="userSpaceOnUse" x1="2043.1974" y1="-10.1673" x2="2043.1974" y2="8.4081" gradientTransform="matrix(-1 0 0 1 2219.2732 114.3937)">
						<stop  offset="0" style="stop-color:#575756"/>
						<stop  offset="0.27" style="stop-color:#7B7B7A"/>
						<stop  offset="0.54" style="stop-color:#989898"/>
						<stop  offset="0.77" style="stop-color:#ABABAA"/>
						<stop  offset="0.94" style="stop-color:#B1B1B1"/>
					</linearGradient>
					<polygon id="_Path_9" class="st62" points="176.5,103.8 175.2,103 175.6,128.2 176.9,128.9 					"/>
				</g>
				<g id="_Group_15">
					<polygon id="_Path_10" class="st63" points="177.8,102.9 176.7,102.2 175.2,103 176.5,103.8 					"/>
				</g>
			</g>
		</g>
		<g id="_Group_16">
			<g id="_Group_17">
				<g id="_Group_18">
					
						<linearGradient id="_Path_11_1_" gradientUnits="userSpaceOnUse" x1="2058.9585" y1="5.4221" x2="2058.9585" y2="-1.765" gradientTransform="matrix(-1 0 0 1 2219.2732 114.3937)">
						<stop  offset="0" style="stop-color:#9C9B9B"/>
						<stop  offset="0.21" style="stop-color:#B6B5B5"/>
						<stop  offset="0.51" style="stop-color:#D3D3D3"/>
						<stop  offset="0.76" style="stop-color:#E6E5E5"/>
						<stop  offset="0.94" style="stop-color:#ECECEC"/>
					</linearGradient>
					<polygon id="_Path_11" class="st64" points="159.7,94.1 160.1,119.3 160.8,118.8 161,93.3 					"/>
				</g>
				<g id="_Group_19">
					
						<linearGradient id="_Path_12_1_" gradientUnits="userSpaceOnUse" x1="2059.2571" y1="-8.0732" x2="2060.8914" y2="-8.0732" gradientTransform="matrix(-1 0 0 1 2219.2732 114.3937)">
						<stop  offset="0" style="stop-color:#9C9B9B"/>
						<stop  offset="0.94" style="stop-color:#C6C6C5"/>
					</linearGradient>
					<polygon id="_Path_12" class="st65" points="159.7,94.1 158.4,93.3 158.8,118.5 160.1,119.3 					"/>
				</g>
				<g id="_Group_20">
					<polygon id="_Path_13" class="st63" points="161,93.3 159.8,92.6 158.4,93.3 159.7,94.1 					"/>
				</g>
			</g>
		</g>
	</g>
	<g id="_Group_21">
		<g id="_Group_22">
			<g id="_Group_23">
				<g id="_Group_24">
					
						<linearGradient id="_Path_14_1_" gradientUnits="userSpaceOnUse" x1="2079.0007" y1="11.7949" x2="2079.0007" y2="35.528" gradientTransform="matrix(-1 0 0 1 2219.2732 114.3937)">
						<stop  offset="0" style="stop-color:#575756"/>
						<stop  offset="0.27" style="stop-color:#7B7B7A"/>
						<stop  offset="0.54" style="stop-color:#989898"/>
						<stop  offset="0.77" style="stop-color:#ABABAA"/>
						<stop  offset="0.94" style="stop-color:#B1B1B1"/>
					</linearGradient>
					<polygon id="_Path_14" class="st66" points="139.6,124.5 139.9,149.6 140.7,149.2 141,123.6 					"/>
				</g>
				<g id="_Group_25">
					
						<linearGradient id="_Path_15_1_" gradientUnits="userSpaceOnUse" x1="2080.1682" y1="12.6093" x2="2080.1682" y2="22.2137" gradientTransform="matrix(-1 0 0 1 2219.2732 114.3937)">
						<stop  offset="0" style="stop-color:#9C9B9B"/>
						<stop  offset="0.21" style="stop-color:#B6B5B5"/>
						<stop  offset="0.51" style="stop-color:#D3D3D3"/>
						<stop  offset="0.76" style="stop-color:#E6E5E5"/>
						<stop  offset="0.94" style="stop-color:#ECECEC"/>
					</linearGradient>
					<polygon id="_Path_15" class="st67" points="139.6,124.5 138.3,123.7 138.7,148.9 139.9,149.6 					"/>
				</g>
				<g id="_Group_26">
					<polygon id="_Path_16" class="st63" points="141,123.6 139.7,122.9 138.3,123.7 139.6,124.5 					"/>
				</g>
			</g>
		</g>
		<g id="_Group_27">
			<g id="_Group_28">
				<g id="_Group_29">
					
						<linearGradient id="_Path_17_1_" gradientUnits="userSpaceOnUse" x1="2095.8645" y1="-0.9119" x2="2095.8645" y2="22.4205" gradientTransform="matrix(-1 0 0 1 2219.2732 114.3937)">
						<stop  offset="0" style="stop-color:#575756"/>
						<stop  offset="0.27" style="stop-color:#7B7B7A"/>
						<stop  offset="0.54" style="stop-color:#989898"/>
						<stop  offset="0.77" style="stop-color:#ABABAA"/>
						<stop  offset="0.94" style="stop-color:#B1B1B1"/>
					</linearGradient>
					<polygon id="_Path_17" class="st68" points="122.7,114.8 123.1,140 123.9,139.5 124.1,114 					"/>
				</g>
				<g id="_Group_30">
					
						<linearGradient id="_Path_18_1_" gradientUnits="userSpaceOnUse" x1="2097.032" y1="-8.457170e-02" x2="2097.032" y2="23.6614" gradientTransform="matrix(-1 0 0 1 2219.2732 114.3937)">
						<stop  offset="0" style="stop-color:#9C9B9B"/>
						<stop  offset="0.21" style="stop-color:#B6B5B5"/>
						<stop  offset="0.51" style="stop-color:#D3D3D3"/>
						<stop  offset="0.76" style="stop-color:#E6E5E5"/>
						<stop  offset="0.94" style="stop-color:#ECECEC"/>
					</linearGradient>
					<polygon id="_Path_18" class="st69" points="122.7,114.8 121.4,114 121.8,139.2 123.1,140 					"/>
				</g>
				<g id="_Group_31">
					<polygon id="_Path_19" class="st63" points="124.1,114 122.8,113.2 121.4,114 122.7,114.8 					"/>
				</g>
			</g>
		</g>
	</g>
	<g id="_Group_32">
		<g id="_Group_33">
			<g id="_Group_34">
				
					<linearGradient id="_Path_20_1_" gradientUnits="userSpaceOnUse" x1="2053.5879" y1="-17.6801" x2="2085.0579" y2="6.5545" gradientTransform="matrix(-1 0 0 1 2219.2732 114.3937)">
					<stop  offset="0" style="stop-color:#D0AB88"/>
					<stop  offset="0.94" style="stop-color:#F5C89D"/>
				</linearGradient>
				<polygon id="_Path_20" class="st70" points="117.5,114.7 139.7,127.6 182.4,103 160.2,90.1 				"/>
			</g>
			<g id="_Group_35">
				
					<linearGradient id="_Path_21_1_" gradientUnits="userSpaceOnUse" x1="2079.5845" y1="6.9862" x2="2101.8057" y2="6.9862" gradientTransform="matrix(-1 0 0 1 2219.2732 114.3937)">
					<stop  offset="3.000000e-02" style="stop-color:#90633F"/>
					<stop  offset="1" style="stop-color:#7D4926"/>
				</linearGradient>
				<polygon id="_Path_21" class="st71" points="117.5,114.7 117.5,115.3 139.7,128.1 139.7,127.6 				"/>
			</g>
			<g id="_Group_36">
				
					<linearGradient id="_Path_22_1_" gradientUnits="userSpaceOnUse" x1="2036.9059" y1="1.1693" x2="2079.5845" y2="1.1693" gradientTransform="matrix(-1 0 0 1 2219.2732 114.3937)">
					<stop  offset="0" style="stop-color:#AD845B"/>
					<stop  offset="4.000000e-02" style="stop-color:#B1875D"/>
					<stop  offset="0.25" style="stop-color:#C39466"/>
					<stop  offset="0.46" style="stop-color:#CE9B6B"/>
					<stop  offset="0.71" style="stop-color:#D29E6D"/>
				</linearGradient>
				<polygon id="_Path_22" class="st72" points="139.7,127.6 139.7,128.1 182.4,103.5 182.4,103 				"/>
			</g>
		</g>
	</g>
</g>
<path class="st73" d="M59.4,125.5c-2.6-1.6-4.8-0.3-4.8,2.7c0.1,3.4,1.9,6.3,4.8,8.3c2.6,1.6,4.8,0.3,4.8-2.7
	C63.9,130.4,62.2,127.3,59.4,125.5z M63.2,133.1c0,2.5-1.7,3.4-3.8,2.2c-2.2-1.4-3.6-3.9-3.8-6.6c0-2.3,1.7-3.4,3.8-2.1
	C61.6,128.1,63,130.6,63.2,133.1z"/>
<linearGradient id="SVGID_3_" gradientUnits="userSpaceOnUse" x1="-7774.1968" y1="20.6169" x2="-7771.9473" y2="7.8036" gradientTransform="matrix(-1 0 0 1 -7714.397 114.3937)">
	<stop  offset="0" style="stop-color:#FFFFFF"/>
	<stop  offset="1" style="stop-color:#BFBCAF"/>
</linearGradient>
<path class="st74" d="M59.1,126.3c-2.3-1.3-4.3-0.3-4.3,2.5c0.1,3,1.7,5.7,4.3,7.4c2.3,1.3,4.3,0.3,4.3-2.5
	C63.3,130.7,61.7,128,59.1,126.3z M62.6,133.1c0,2.2-1.6,3-3.4,1.9c-1.9-1.3-3.2-3.5-3.4-5.8c0-2.2,1.6-3,3.4-1.9
	C61.2,128.6,62.4,130.8,62.6,133.1z"/>
<path class="st75" d="M58.9,125.8c-2.6-1.6-4.8-0.3-4.8,2.7c0.1,3.4,1.9,6.3,4.8,8.3c2.6,1.6,4.8,0.3,4.8-2.7
	C63.4,130.7,61.6,127.6,58.9,125.8z M62.6,133.4c0,2.5-1.7,3.4-3.8,2.2c-2.2-1.4-3.6-3.9-3.8-6.6c0-2.5,1.7-3.4,3.8-2.2
	C61.1,128.4,62.5,130.8,62.6,133.4z"/>
<path class="st75" d="M58.9,129.8c0.8,0.5,1.3,1.3,1.3,2.2c0,0.8-0.5,1.2-1.3,0.8c-0.8-0.5-1.3-1.3-1.3-2.2
	C57.6,129.7,58.1,129.4,58.9,129.8z"/>
<path class="st73" d="M75.6,135.2c-2.6-1.6-4.8-0.3-4.8,2.7c0.1,3.4,1.9,6.3,4.8,8.3c2.6,1.6,4.8,0.3,4.8-2.7
	C80.1,140.1,78.5,137,75.6,135.2z M79.4,143c0,2.5-1.7,3.4-3.8,2.2c-2.2-1.4-3.6-3.9-3.8-6.6c0-2.5,1.7-3.4,3.8-2.2
	C77.8,137.8,79.2,140.3,79.4,143z"/>
<linearGradient id="SVGID_4_" gradientUnits="userSpaceOnUse" x1="-7790.417" y1="30.3413" x2="-7788.1675" y2="17.528" gradientTransform="matrix(-1 0 0 1 -7714.397 114.3937)">
	<stop  offset="0" style="stop-color:#FFFFFF"/>
	<stop  offset="1" style="stop-color:#BFBCAF"/>
</linearGradient>
<path class="st76" d="M75.3,136c-2.3-1.3-4.3-0.3-4.3,2.5c0.1,3,1.7,5.7,4.3,7.4c2.3,1.3,4.3,0.3,4.3-2.5
	C79.5,140.4,77.9,137.7,75.3,136z M78.8,142.8c0,2.2-1.6,3-3.4,1.9c-1.9-1.3-3.2-3.5-3.4-5.8c0-2.2,1.6-3,3.4-1.9
	C77.4,138.3,78.7,140.5,78.8,142.8L78.8,142.8z"/>
<path class="st75" d="M75.1,135.5c-2.6-1.6-4.8-0.3-4.8,2.7c0.1,3.4,1.9,6.3,4.8,8.3c2.6,1.6,4.8,0.3,4.8-2.7
	C79.6,140.4,77.8,137.3,75.1,135.5z M78.8,143.2c0,2.5-1.7,3.4-3.8,2.2c-2.2-1.4-3.6-3.9-3.8-6.6c0-2.5,1.7-3.4,3.8-2.2
	C77.3,138.1,78.7,140.5,78.8,143.2z"/>
<path class="st75" d="M75.1,139.5c0.8,0.5,1.3,1.3,1.3,2.2c0,0.8-0.5,1.2-1.3,0.8c-0.8-0.5-1.3-1.3-1.3-2.2
	C73.8,139.3,74.3,139.1,75.1,139.5z"/>
<path class="st73" d="M73.5,117.2c-2.6-1.6-4.8-0.3-4.8,2.7c0.1,3.4,1.9,6.3,4.8,8.3c2.6,1.6,4.8,0.3,4.8-2.7
	C78.1,122.2,76.4,119.1,73.5,117.2z M77.3,124.9c0,2.5-1.7,3.4-3.8,2.2c-2.2-1.4-3.6-3.9-3.8-6.6c0-2.5,1.7-3.4,3.8-2.2
	C75.7,119.8,77.2,122.3,77.3,124.9z"/>
<linearGradient id="SVGID_5_" gradientUnits="userSpaceOnUse" x1="-7788.3389" y1="12.3587" x2="-7786.0894" y2="-0.4546" gradientTransform="matrix(-1 0 0 1 -7714.397 114.3937)">
	<stop  offset="0" style="stop-color:#FFFFFF"/>
	<stop  offset="1" style="stop-color:#BFBCAF"/>
</linearGradient>
<path class="st77" d="M73.3,118c-2.3-1.3-4.3-0.3-4.3,2.5c0.1,3,1.7,5.7,4.3,7.4c2.3,1.3,4.3,0.3,4.3-2.5
	C77.4,122.4,75.9,119.7,73.3,118z M76.8,124.9c0,2.2-1.6,3-3.4,1.9c-1.9-1.3-3.2-3.5-3.4-5.8c0-2.2,1.6-3,3.4-1.9
	C75.3,120.3,76.6,122.5,76.8,124.9z"/>
<path class="st75" d="M73,117.5c-2.6-1.6-4.8-0.3-4.8,2.7c0.1,3.4,1.9,6.3,4.8,8.3c2.6,1.6,4.8,0.3,4.8-2.7
	C77.6,122.4,75.7,119.3,73,117.5z M76.8,125.1c0,2.5-1.7,3.4-3.8,2.2c-2.2-1.4-3.6-3.9-3.8-6.6c0-2.5,1.7-3.4,3.8-2.2
	C75.2,120.1,76.6,122.5,76.8,125.1L76.8,125.1z"/>
<path class="st75" d="M73,121.5c0.8,0.5,1.3,1.3,1.3,2.2c0,0.8-0.5,1.2-1.3,0.8c-0.8-0.5-1.3-1.3-1.3-2.2
	C71.7,121.4,72.2,121.1,73,121.5z"/>
<path class="st73" d="M89.7,126.9c-2.6-1.6-4.8-0.3-4.8,2.7c0.1,3.4,1.9,6.3,4.8,8.3c2.6,1.6,4.8,0.3,4.8-2.7
	C94.3,131.9,92.6,128.7,89.7,126.9z M93.5,134.7c0,2.5-1.7,3.4-3.8,2.2c-2.2-1.4-3.6-3.9-3.8-6.6c0-2.5,1.7-3.4,3.8-2.2
	C92.1,129.5,93.4,132,93.5,134.7z"/>
<linearGradient id="SVGID_6_" gradientUnits="userSpaceOnUse" x1="-7804.6641" y1="22.0518" x2="-7802.4146" y2="9.2514" gradientTransform="matrix(-1 0 0 1 -7714.397 114.3937)">
	<stop  offset="0" style="stop-color:#FFFFFF"/>
	<stop  offset="1" style="stop-color:#BFBCAF"/>
</linearGradient>
<path class="st78" d="M89.6,127.7c-2.3-1.3-4.3-0.3-4.3,2.5c0.1,3,1.7,5.7,4.3,7.4c2.3,1.3,4.3,0.3,4.3-2.5
	C93.6,132.1,92.1,129.4,89.6,127.7z M93,134.6c0,2.2-1.6,3-3.4,1.9c-1.9-1.3-3.2-3.5-3.4-5.8c0-2.2,1.6-3,3.4-1.9
	C91.6,130,92.9,132.2,93,134.6L93,134.6z"/>
<path class="st75" d="M89.2,127.2c-2.6-1.6-4.8-0.3-4.8,2.7c0.1,3.4,1.9,6.3,4.8,8.3c2.6,1.6,4.8,0.3,4.8-2.7
	C93.8,132.1,92.1,129,89.2,127.2z M93,135c0,2.5-1.7,3.4-3.8,2.2c-2.2-1.4-3.6-3.9-3.8-6.6c0-2.5,1.7-3.4,3.8-2.2
	C91.4,129.8,92.9,132.2,93,135L93,135z"/>
<path class="st75" d="M89.2,131.2c0.8,0.5,1.3,1.3,1.3,2.2c0,0.8-0.5,1.2-1.3,0.8c-0.8-0.5-1.3-1.3-1.3-2.2S88.6,130.8,89.2,131.2z"
	/>
<polygon class="st75" points="60,115.3 60.5,115 75.6,140.9 75,141.3 "/>
<polygon class="st75" points="73.9,107 74.5,106.7 89.5,132.7 89,133 "/>
<polygon class="st79" points="81.4,93.1 69.6,99.9 62.6,95.9 74.6,89.1 "/>
<path class="st80" d="M83.6,122.3L83.6,122.3c3.8-2.2,6.7-5.6,8.4-9.7l0.4-0.9l-11.9,6.9l-8.8,3.6l0,0
	C75.3,124.4,80,124.4,83.6,122.3z"/>
<polygon class="st80" points="60,95.9 72,89.1 74.6,89.1 62.6,95.9 "/>
<polygon class="st80" points="66.9,110.8 78.8,103.9 81.4,93.1 69.6,99.9 "/>
<polygon class="st79" points="78.8,103.9 92.5,111.7 80.7,118.5 66.9,110.8 "/>
<path class="st81" d="M80.7,118.5L67,110.8l2.6-10.9l-7-4H60l-3,1.7l-2.2,3v6.2l0.9,0.4v5.9l15.2,8.8c3.2,1.8,7.4,0.8,9.2-2.5
	c0.1-0.3,0.3-0.5,0.4-0.8L80.7,118.5z"/>
<polygon class="st79" points="62.6,95.9 64.6,109.4 66.9,110.8 69.6,99.9 "/>
<polygon class="st80" points="60,95.9 63.4,108.7 64.6,109.4 62.6,95.9 "/>
<polygon class="st79" points="60,95.9 57.1,97.5 62.1,107.9 63.4,108.7 "/>
<polygon class="st80" points="57.1,97.5 54.9,100.4 60.8,107.3 62.1,107.9 "/>
<line class="st82" x1="75" y1="141.3" x2="89" y2="133"/>
<line class="st82" x1="59.1" y1="131.3" x2="73.1" y2="123.1"/>
<polygon class="st32" points="98.6,157.6 119.8,145.4 119.8,121 98.6,133.1 "/>
<polygon class="st33" points="98.6,157.6 87.9,151.5 87.9,127.1 98.6,133.1 "/>
<polygon class="st34" points="119.8,121 109.2,114.8 87.9,127.1 91.4,129 98.6,133.1 "/>
<polygon class="st35" points="94.2,134.7 91.4,133.1 91.4,129 94.2,130.6 "/>
<polygon class="st36" points="115.3,118.4 112.7,116.9 91.4,129 94.2,130.6 "/>
<g>
	<g id="_Group_38">
		<g id="_Group_39">
			<g id="_Group_40">
				<g id="_Group_41">
					<g id="_Group_42">
						
							<linearGradient id="_Path_23_1_" gradientUnits="userSpaceOnUse" x1="116.728" y1="51.4017" x2="116.728" y2="55.5511" gradientTransform="matrix(1 0 0 1 0 114.3937)">
							<stop  offset="0" style="stop-color:#575756"/>
							<stop  offset="0.27" style="stop-color:#7B7B7A"/>
							<stop  offset="0.54" style="stop-color:#989898"/>
							<stop  offset="0.77" style="stop-color:#ABABAA"/>
							<stop  offset="0.94" style="stop-color:#B1B1B1"/>
						</linearGradient>
						<polygon id="_Path_23" class="st83" points="117.2,166 117,169.9 116.3,169.6 116.2,165.3 						"/>
					</g>
					<g id="_Group_43">
						
							<linearGradient id="_Path_24_1_" gradientUnits="userSpaceOnUse" x1="117.5712" y1="51.5956" x2="117.5712" y2="53.2502" gradientTransform="matrix(1 0 0 1 0 114.3937)">
							<stop  offset="0" style="stop-color:#9C9B9B"/>
							<stop  offset="0.21" style="stop-color:#B6B5B5"/>
							<stop  offset="0.51" style="stop-color:#D3D3D3"/>
							<stop  offset="0.76" style="stop-color:#E6E5E5"/>
							<stop  offset="0.94" style="stop-color:#ECECEC"/>
						</linearGradient>
						<polygon id="_Path_24" class="st84" points="117.2,166 118.2,165.5 117.9,169.3 117,169.9 						"/>
					</g>
					<g id="_Group_44">
						<polygon id="_Path_25" class="st63" points="116.2,165.3 117.1,164.8 118.2,165.5 117.2,166 						"/>
					</g>
				</g>
			</g>
			<g id="_Group_45">
				<g id="_Group_46">
					<g id="_Group_47">
						
							<linearGradient id="_Path_26_1_" gradientUnits="userSpaceOnUse" x1="136.0565" y1="41.5905" x2="136.0565" y2="45.6623" gradientTransform="matrix(1 0 0 1 0 114.3937)">
							<stop  offset="0" style="stop-color:#575756"/>
							<stop  offset="0.27" style="stop-color:#7B7B7A"/>
							<stop  offset="0.54" style="stop-color:#989898"/>
							<stop  offset="0.77" style="stop-color:#ABABAA"/>
							<stop  offset="0.94" style="stop-color:#B1B1B1"/>
						</linearGradient>
						<polygon id="_Path_26" class="st85" points="136.6,156.7 136.3,160.7 135.8,160.3 135.5,156 						"/>
					</g>
					<g id="_Group_48">
						
							<linearGradient id="_Path_27_1_" gradientUnits="userSpaceOnUse" x1="136.8997" y1="41.7844" x2="136.8997" y2="45.8821" gradientTransform="matrix(1 0 0 1 0 114.3937)">
							<stop  offset="0" style="stop-color:#9C9B9B"/>
							<stop  offset="0.21" style="stop-color:#B6B5B5"/>
							<stop  offset="0.51" style="stop-color:#D3D3D3"/>
							<stop  offset="0.76" style="stop-color:#E6E5E5"/>
							<stop  offset="0.94" style="stop-color:#ECECEC"/>
						</linearGradient>
						<polygon id="_Path_27" class="st86" points="136.6,156.7 137.5,156.2 137.2,160 136.3,160.7 						"/>
					</g>
					<g id="_Group_49">
						<polygon id="_Path_28" class="st63" points="135.5,156 136.4,155.5 137.5,156.2 136.6,156.7 						"/>
					</g>
				</g>
			</g>
		</g>
		<g id="_Group_50">
			<g id="_Group_51">
				<g id="_Group_52">
					<g id="_Group_53">
						
							<linearGradient id="_Path_29_1_" gradientUnits="userSpaceOnUse" x1="106.48" y1="45.8304" x2="106.48" y2="49.9798" gradientTransform="matrix(1 0 0 1 0 114.3937)">
							<stop  offset="0" style="stop-color:#575756"/>
							<stop  offset="0.27" style="stop-color:#7B7B7A"/>
							<stop  offset="0.54" style="stop-color:#989898"/>
							<stop  offset="0.77" style="stop-color:#ABABAA"/>
							<stop  offset="0.94" style="stop-color:#B1B1B1"/>
						</linearGradient>
						<polygon id="_Path_29" class="st87" points="107,160.4 106.6,164.3 106.1,164 106,159.8 						"/>
					</g>
					<g id="_Group_54">
						
							<linearGradient id="_Path_30_1_" gradientUnits="userSpaceOnUse" x1="107.2583" y1="46.0114" x2="107.2583" y2="47.6789" gradientTransform="matrix(1 0 0 1 0 114.3937)">
							<stop  offset="0" style="stop-color:#9C9B9B"/>
							<stop  offset="0.21" style="stop-color:#B6B5B5"/>
							<stop  offset="0.51" style="stop-color:#D3D3D3"/>
							<stop  offset="0.76" style="stop-color:#E6E5E5"/>
							<stop  offset="0.94" style="stop-color:#ECECEC"/>
						</linearGradient>
						<polygon id="_Path_30" class="st88" points="107,160.4 107.9,159.9 107.6,163.8 106.6,164.3 						"/>
					</g>
					<g id="_Group_55">
						<polygon id="_Path_31" class="st63" points="106,159.8 106.9,159.3 107.9,159.9 107,160.4 						"/>
					</g>
				</g>
			</g>
			<g id="_Group_56">
				<g id="_Group_57">
					<g id="_Group_58">
						
							<linearGradient id="_Path_32_1_" gradientUnits="userSpaceOnUse" x1="125.8085" y1="36.0062" x2="125.8085" y2="40.091" gradientTransform="matrix(1 0 0 1 0 114.3937)">
							<stop  offset="0" style="stop-color:#575756"/>
							<stop  offset="0.27" style="stop-color:#7B7B7A"/>
							<stop  offset="0.54" style="stop-color:#989898"/>
							<stop  offset="0.77" style="stop-color:#ABABAA"/>
							<stop  offset="0.94" style="stop-color:#B1B1B1"/>
						</linearGradient>
						<polygon id="_Path_32" class="st89" points="126.3,151.1 126.1,155 125.4,154.7 125.3,150.5 						"/>
					</g>
					<g id="_Group_59">
						
							<linearGradient id="_Path_33_1_" gradientUnits="userSpaceOnUse" x1="126.6517" y1="36.2001" x2="126.6517" y2="40.3108" gradientTransform="matrix(1 0 0 1 0 114.3937)">
							<stop  offset="0" style="stop-color:#9C9B9B"/>
							<stop  offset="0.21" style="stop-color:#B6B5B5"/>
							<stop  offset="0.51" style="stop-color:#D3D3D3"/>
							<stop  offset="0.76" style="stop-color:#E6E5E5"/>
							<stop  offset="0.94" style="stop-color:#ECECEC"/>
						</linearGradient>
						<polygon id="_Path_33" class="st90" points="126.3,151.1 127.2,150.6 127,154.5 126.1,155 						"/>
					</g>
					<g id="_Group_60">
						<polygon id="_Path_34" class="st63" points="125.3,150.5 126.2,149.9 127.2,150.6 126.3,151.1 						"/>
					</g>
				</g>
			</g>
		</g>
	</g>
	<g id="_Group_61">
		
			<linearGradient id="_Path_35_1_" gradientUnits="userSpaceOnUse" x1="104.7158" y1="42.9865" x2="117.9085" y2="42.9865" gradientTransform="matrix(1 0 0 1 0 114.3937)">
			<stop  offset="0" style="stop-color:#AD845B"/>
			<stop  offset="4.000000e-02" style="stop-color:#B1875D"/>
			<stop  offset="0.25" style="stop-color:#C39466"/>
			<stop  offset="0.46" style="stop-color:#CE9B6B"/>
			<stop  offset="0.71" style="stop-color:#D29E6D"/>
		</linearGradient>
		<polygon id="_Path_35" class="st91" points="104.7,161.1 104.8,146.1 117.9,153.6 117.9,168.7 		"/>
		<polygon id="_Path_36" class="st31" points="106,153.8 106,148.5 116.7,154.7 116.6,159.9 		"/>
		<polygon id="_Path_37" class="st92" points="106.5,153.4 106.5,149.4 116.2,155 116.2,159.1 		"/>
		<polygon id="_Path_38" class="st31" points="106,160 106,154.9 116.7,161.1 116.6,166.2 		"/>
		<polygon id="_Path_39" class="st92" points="106.5,159.8 106.5,155.8 116.2,161.3 116.2,165.5 		"/>
		
			<linearGradient id="_Path_40_1_" gradientUnits="userSpaceOnUse" x1="104.7547" y1="29.543" x2="138.171" y2="29.543" gradientTransform="matrix(1 0 0 1 0 114.3937)">
			<stop  offset="0" style="stop-color:#D0AB88"/>
			<stop  offset="0.94" style="stop-color:#F5C89D"/>
		</linearGradient>
		<polygon id="_Path_40" class="st93" points="104.8,146.1 125,134.3 138.1,141.9 117.9,153.6 		"/>
		
			<linearGradient id="_Path_41_1_" gradientUnits="userSpaceOnUse" x1="117.8566" y1="40.9183" x2="138.171" y2="40.9183" gradientTransform="matrix(1 0 0 1 0 114.3937)">
			<stop  offset="3.000000e-02" style="stop-color:#90633F"/>
			<stop  offset="1" style="stop-color:#7D4926"/>
		</linearGradient>
		<polygon id="_Path_41" class="st94" points="117.9,153.6 138.1,141.9 138.1,156.9 117.9,168.7 		"/>
	</g>
	<g>
		<g>
			<polygon class="st95" points="110.1,151.5 110.1,154.9 109.7,155.1 109.7,151.8 			"/>
			<g>
				<g>
					<g>
						<defs>
							<path id="SVGID_7_" d="M109.6,155.4v-3.2c0-0.1,0.1-0.3,0.1-0.3v3.4C109.6,155.1,109.6,155.2,109.6,155.4z"/>
						</defs>
						<clipPath id="SVGID_8_">
							<use xlink:href="#SVGID_7_"  style="overflow:visible;"/>
						</clipPath>
						<g class="st96">
							<g>
								<polyline class="st97" points="109.7,151.8 109.7,155.1 109.7,155.1 109.7,151.8 109.7,151.8 								"/>
								<path class="st98" d="M109.7,151.8v3.4h-0.1L109.7,151.8L109.7,151.8"/>
								<path class="st99" d="M109.6,151.9v3.2l0,0V151.9L109.6,151.9"/>
								<path class="st100" d="M109.6,151.9v3.2l0,0V151.9L109.6,151.9"/>
								<path class="st101" d="M109.6,151.9L109.6,151.9"/>
								<path class="st102" d="M109.6,152L109.6,152"/>
								<path class="st103" d="M109.6,152L109.6,152"/>
								<polyline class="st104" points="109.6,152 109.6,155.4 109.6,155.4 109.6,152 109.6,152 								"/>
							</g>
						</g>
					</g>
				</g>
			</g>
			<g>
				<g>
					<g>
						<defs>
							<path id="SVGID_9_" d="M109.1,155.4v-3.2c0,0.1,0.1,0.4,0.3,0.4v3.2C109.2,155.6,109.1,155.5,109.1,155.4z"/>
						</defs>
						<clipPath id="SVGID_10_">
							<use xlink:href="#SVGID_9_"  style="overflow:visible;"/>
						</clipPath>
						<g class="st105">
							<g>
								<path class="st106" d="M109.3,152.5v3.2c-0.1-0.1-0.3-0.3-0.3-0.4v-3.2C109.1,152.3,109.2,152.4,109.3,152.5"/>
							</g>
						</g>
					</g>
				</g>
			</g>
			<polygon class="st95" points="113,153.2 113,156.4 112.6,156.7 112.6,153.4 			"/>
			<polygon class="st107" points="111,153.4 111,156.7 109.3,155.8 109.3,152.5 			"/>
			<path class="st108" d="M112.2,153.2l0.4-0.3l0.4,0.3l-0.4,0.3c-0.5,0.3-1,0.3-1.6,0l-1.7-0.9c-0.3-0.1-0.4-0.4-0.3-0.6
				c0-0.1,0.1-0.3,0.3-0.3l0.4-0.3l0.4,0.1l-0.4,0.3c-0.3,0.1-0.3,0.4,0,0.5l1.7,0.9C111.7,153.4,111.9,153.4,112.2,153.2z"/>
			<g id="_Group_62">
				<g>
					<g>
						<defs>
							<path id="SVGID_11_" d="M112.2,153.2l0.4-0.3l0.4,0.3l-0.4,0.3c-0.5,0.3-1,0.3-1.6,0l-1.7-0.9c-0.3-0.1-0.4-0.4-0.3-0.6
								c0-0.1,0.1-0.3,0.3-0.3l0.4-0.3l0.4,0.1l-0.4,0.3c-0.3,0.1-0.3,0.4,0,0.5l1.7,0.9C111.7,153.4,111.9,153.4,112.2,153.2z"/>
						</defs>
						<clipPath id="SVGID_12_">
							<use xlink:href="#SVGID_11_"  style="overflow:visible;"/>
						</clipPath>
						<g class="st109">
							<g>
								<g>
									<defs>
										<polyline id="SVGID_13_" points="112.6,153.4 112.3,153.6 112.2,153.6 112.1,153.6 111.8,153.6 111.5,153.6 111.4,153.6 
											111.1,153.6 111,153.4 109.3,152.5 109.2,152.4 109.2,152.3 109.1,152.1 109.1,152 109.1,151.9 109.2,151.8 109.2,151.8 
											109.3,151.6 109.9,151.4 110.1,151.5 109.7,151.8 109.6,151.9 109.6,151.9 109.6,152 109.6,152 109.6,152.1 109.6,152.1 
											109.6,152.3 109.7,152.3 111.4,153.3 111.4,153.3 111.5,153.3 111.7,153.3 111.8,153.3 111.9,153.3 112.1,153.3 
											112.2,153.3 112.2,153.3 112.7,153 113,153.2 112.6,153.4 										"/>
									</defs>
									<clipPath id="SVGID_14_">
										<use xlink:href="#SVGID_13_"  style="overflow:visible;"/>
									</clipPath>
									<g class="st110">
									</g>
								</g>
							</g>
						</g>
					</g>
					<g>
						<defs>
							<path id="SVGID_15_" d="M112.2,153.2l0.4-0.3l0.4,0.3l-0.4,0.3c-0.5,0.3-1,0.3-1.6,0l-1.7-0.9c-0.3-0.1-0.4-0.4-0.3-0.6
								c0-0.1,0.1-0.3,0.3-0.3l0.4-0.3l0.4,0.1l-0.4,0.3c-0.3,0.1-0.3,0.4,0,0.5l1.7,0.9C111.7,153.4,111.9,153.4,112.2,153.2z"/>
						</defs>
						<clipPath id="SVGID_16_">
							<use xlink:href="#SVGID_15_"  style="overflow:visible;"/>
						</clipPath>
						<g class="st111">
							<g>
								<g>
									<defs>
										<path id="SVGID_17_" d="M112.6,153.4v3.2c-0.5,0.3-1,0.3-1.6,0v-3.2C111.5,153.7,112.1,153.7,112.6,153.4z"/>
									</defs>
									<clipPath id="SVGID_18_">
										<use xlink:href="#SVGID_17_"  style="overflow:visible;"/>
									</clipPath>
									<g class="st112">
										<g>
											<path class="st97" d="M112.6,153.4v3.2l-0.3,0.1v-3.2L112.6,153.4"/>
											<path class="st98" d="M112.3,153.6v3.2h-0.3v-3.2H112.3"/>
											<path class="st99" d="M112.1,153.6v3.2h-0.1L112.1,153.6L112.1,153.6"/>
											<path class="st100" d="M111.9,153.6v3.2h-0.1L111.9,153.6L111.9,153.6"/>
											<path class="st101" d="M111.8,153.6v3.2h-0.1L111.8,153.6L111.8,153.6"/>
											<path class="st102" d="M111.8,153.6v3.2h-0.1L111.8,153.6L111.8,153.6"/>
											<path class="st103" d="M111.7,153.6v3.2h-0.1L111.7,153.6L111.7,153.6"/>
											<path class="st104" d="M111.5,153.6v3.2h-0.1L111.5,153.6L111.5,153.6"/>
											<path class="st113" d="M111.4,153.6v3.2h-0.1L111.4,153.6L111.4,153.6"/>
											<path class="st114" d="M111.3,153.6v3.2h-0.1L111.3,153.6L111.3,153.6"/>
											<path class="st106" d="M111.1,153.6v3.2l-0.1-0.1v-3.2L111.1,153.6"/>
										</g>
									</g>
								</g>
							</g>
						</g>
					</g>
				</g>
			</g>
			<g>
				<g id="_Group_37">
					<polygon class="st95" points="110.1,158 110.1,161.2 109.7,161.5 109.7,158.1 					"/>
					<g>
						<g>
							<g>
								<defs>
									<path id="SVGID_19_" d="M109.6,161.7v-3.2c0-0.1,0.1-0.3,0.1-0.3v3.2C109.6,161.5,109.6,161.6,109.6,161.7z"/>
								</defs>
								<clipPath id="SVGID_20_">
									<use xlink:href="#SVGID_19_"  style="overflow:visible;"/>
								</clipPath>
								<g class="st115">
									<g>
										<polyline class="st97" points="109.7,158.1 109.7,161.5 109.7,161.5 109.7,158.2 109.7,158.1 										"/>
										<path class="st98" d="M109.7,158.2v3.2h-0.1L109.7,158.2L109.7,158.2"/>
										<path class="st99" d="M109.6,158.2v3.2l0,0V158.2L109.6,158.2"/>
										<path class="st100" d="M109.6,158.2v3.4l0,0V158.2L109.6,158.2"/>
										<path class="st101" d="M109.6,158.3L109.6,158.3"/>
										<path class="st102" d="M109.6,158.3L109.6,158.3"/>
										<path class="st103" d="M109.6,158.3L109.6,158.3"/>
										<polyline class="st104" points="109.6,158.3 109.6,161.7 109.6,161.7 109.6,158.3 109.6,158.3 										"/>
									</g>
								</g>
							</g>
						</g>
					</g>
					<g>
						<g>
							<g>
								<defs>
									<path id="SVGID_21_" d="M109.1,161.7v-3.2c0,0.1,0.1,0.4,0.3,0.4v3.2C109.2,162.1,109.1,161.8,109.1,161.7z"/>
								</defs>
								<clipPath id="SVGID_22_">
									<use xlink:href="#SVGID_21_"  style="overflow:visible;"/>
								</clipPath>
								<g class="st116">
									<g>
										<path class="st106" d="M109.3,158.9v3.2c-0.1-0.1-0.3-0.3-0.3-0.4v-3.2C109.1,158.6,109.2,158.7,109.3,158.9"/>
									</g>
								</g>
							</g>
						</g>
					</g>
					<polygon class="st95" points="113,159.5 113,162.9 112.6,163.1 112.6,159.8 					"/>
					<polygon class="st107" points="111,159.8 111,163.1 109.3,162.1 109.3,158.9 					"/>
					<path class="st108" d="M112.2,159.6l0.4-0.3l0.4,0.3l-0.4,0.3c-0.5,0.3-1,0.3-1.6,0l-1.7-0.9c-0.3-0.1-0.4-0.4-0.3-0.6
						c0-0.1,0.1-0.3,0.3-0.3l0.4-0.3l0.4,0.1l-0.4,0.3c-0.3,0.1-0.3,0.4,0,0.5l1.7,0.9C111.7,159.8,111.9,159.8,112.2,159.6z"/>
					<g id="_Group_63">
						<g>
							<g>
								<defs>
									<path id="SVGID_23_" d="M112.2,159.6l0.4-0.3l0.4,0.3l-0.4,0.3c-0.5,0.3-1,0.3-1.6,0l-1.7-0.9c-0.3-0.1-0.4-0.4-0.3-0.6
										c0-0.1,0.1-0.3,0.3-0.3l0.4-0.3l0.4,0.1l-0.4,0.3c-0.3,0.1-0.3,0.4,0,0.5l1.7,0.9C111.7,159.8,111.9,159.8,112.2,159.6z"/>
								</defs>
								<clipPath id="SVGID_24_">
									<use xlink:href="#SVGID_23_"  style="overflow:visible;"/>
								</clipPath>
								<g class="st117">
									<g>
										<g>
											<defs>
												<polyline id="SVGID_25_" points="112.6,159.8 112.6,159.8 112.3,159.9 112.2,159.9 112.1,159.9 111.8,160 111.5,159.9 
													111.4,159.9 111.1,159.9 111,159.8 109.3,158.9 109.3,158.9 109.2,158.7 109.2,158.6 109.1,158.5 109.1,158.3 
													109.1,158.3 109.2,158.2 109.2,158.1 109.3,158 109.9,157.7 110.1,158 109.7,158.1 109.6,158.2 109.6,158.2 
													109.6,158.3 109.6,158.3 109.6,158.5 109.6,158.5 109.6,158.6 109.7,158.6 111.4,159.6 111.4,159.6 111.5,159.6 
													111.7,159.6 111.8,159.6 111.9,159.6 112.1,159.6 112.2,159.6 112.2,159.6 112.7,159.4 113,159.5 112.6,159.8 
																									"/>
											</defs>
											<clipPath id="SVGID_26_">
												<use xlink:href="#SVGID_25_"  style="overflow:visible;"/>
											</clipPath>
											<g class="st118">
											</g>
										</g>
									</g>
								</g>
							</g>
							<g>
								<defs>
									<path id="SVGID_27_" d="M112.2,159.6l0.4-0.3l0.4,0.3l-0.4,0.3c-0.5,0.3-1,0.3-1.6,0l-1.7-0.9c-0.3-0.1-0.4-0.4-0.3-0.6
										c0-0.1,0.1-0.3,0.3-0.3l0.4-0.3l0.4,0.1l-0.4,0.3c-0.3,0.1-0.3,0.4,0,0.5l1.7,0.9C111.7,159.8,111.9,159.8,112.2,159.6z"/>
								</defs>
								<clipPath id="SVGID_28_">
									<use xlink:href="#SVGID_27_"  style="overflow:visible;"/>
								</clipPath>
								<g class="st119">
									<g>
										<g>
											<defs>
												<path id="SVGID_29_" d="M112.6,159.8v3.2c-0.5,0.3-1,0.3-1.6,0v-3.2C111.5,160,112.1,160,112.6,159.8z"/>
											</defs>
											<clipPath id="SVGID_30_">
												<use xlink:href="#SVGID_29_"  style="overflow:visible;"/>
											</clipPath>
											<g class="st120">
												<g>
													<path class="st97" d="M112.6,159.8v3.2l-0.3,0.1v-3.2L112.6,159.8"/>
													<path class="st98" d="M112.3,159.9v3.2h-0.3v-3.2H112.3"/>
													<path class="st99" d="M112.1,159.9v3.2h-0.1v-3.2H112.1"/>
													<path class="st100" d="M111.9,159.9v3.2h-0.1L111.9,159.9L111.9,159.9"/>
													<path class="st101" d="M111.8,160v3.2h-0.1L111.8,160L111.8,160"/>
													<path class="st102" d="M111.8,160v3.2h-0.1L111.8,160L111.8,160"/>
													<path class="st103" d="M111.7,160v3.2h-0.1L111.7,160L111.7,160"/>
													<path class="st104" d="M111.5,159.9v3.2h-0.1L111.5,159.9L111.5,159.9"/>
													<path class="st113" d="M111.4,159.9v3.2h-0.1L111.4,159.9L111.4,159.9"/>
													<path class="st114" d="M111.3,159.9v3.2h-0.1L111.3,159.9L111.3,159.9"/>
													<path class="st106" d="M111.1,159.9v3.2L111,163v-3.2L111.1,159.9"/>
												</g>
											</g>
										</g>
									</g>
								</g>
							</g>
						</g>
					</g>
				</g>
				<polygon class="st121" points="194.6,66.1 194.6,125.5 215.4,137.4 215.3,77.9 				"/>
				<polygon class="st6" points="225.7,60 215.3,54 194.6,66.1 205.1,72 215.3,77.9 236.1,66.1 				"/>
				<path class="st57" d="M236.1,66.1l-20.8,11.9l0.1,59.5l20.8-11.9L236.1,66.1z"/>
				<polygon class="st122" points="194.6,89.5 194.6,88.5 215.3,100.6 217.1,99.5 217.5,100.2 215.3,101.5 				"/>
				<polygon class="st122" points="216.9,136.6 216.7,77.2 196,65.1 196.9,64.8 217.4,76.5 217.7,76.7 217.7,136.1 				"/>
				<g>
					<polygon class="st123" points="213.9,91.8 212.6,91 211.3,91.8 212.6,92.6 					"/>
					<polygon class="st122" points="211.8,92.8 210.6,92.2 210.6,93.1 211.8,93.8 					"/>
					<polygon class="st122" points="211.8,85.7 210.5,84.9 210.6,92.2 211.8,92.8 					"/>
					<polygon class="st124" points="211.8,84.9 211.8,85.7 211.8,92.8 211.8,93.8 213.9,92.7 213.9,91.8 212.6,92.6 212.6,85.4 
						213.9,84.7 213.9,83.8 					"/>
					<polygon class="st122" points="211.8,84.9 210.5,84.3 210.5,84.9 211.8,85.7 					"/>
					<polygon class="st123" points="213.9,83.8 212.6,83 210.5,84.3 211.8,84.9 					"/>
				</g>
				<g>
					<polygon class="st123" points="213.9,113.2 212.6,112.5 211.3,113.2 212.6,114 					"/>
					<polygon class="st122" points="211.8,114.3 210.6,113.6 210.6,114.5 211.8,115.3 					"/>
					<polygon class="st122" points="211.8,107.2 210.5,106.4 210.6,113.6 211.8,114.3 					"/>
					<polygon class="st124" points="211.8,106.4 211.8,107.2 211.8,114.3 211.8,115.3 213.9,114.1 213.9,113.2 212.6,114 
						212.6,106.9 213.9,106.1 213.9,105.2 					"/>
					<polygon class="st122" points="211.8,106.4 210.5,105.7 210.5,106.4 211.8,107.2 					"/>
					<polygon class="st123" points="213.9,105.2 212.6,104.4 210.5,105.7 211.8,106.4 					"/>
				</g>
				<polygon class="st32" points="238.8,148.5 255.9,138.7 255.9,88.8 238.8,98.6 				"/>
				<polygon class="st33" points="238.8,148.5 221.7,138.7 221.7,88.8 238.8,98.6 				"/>
				<polygon class="st34" points="255.9,88.8 238.8,79 221.7,88.8 227.3,92 238.8,98.6 				"/>
				<polygon class="st35" points="231.7,101.2 227.3,98.6 227.3,92 231.7,94.5 				"/>
				<polygon class="st36" points="248.7,84.7 244.4,82.2 227.3,92 231.7,94.5 				"/>
				<path class="st125" d="M198.6,118.8L198.6,118.8L198.6,118.8z"/>
				<path class="st125" d="M188.2,124.7L188.2,124.7L188.2,124.7z"/>
				<rect x="206.5" y="133.7" class="st75" width="0.6" height="4.5"/>
				
					<linearGradient id="SVGID_31_" gradientUnits="userSpaceOnUse" x1="890.1176" y1="19.0725" x2="894.541" y2="19.0725" gradientTransform="matrix(1 0 0 1 -684.66 114.3937)">
					<stop  offset="0" style="stop-color:#FFEBDC"/>
					<stop  offset="1" style="stop-color:#BFBCAF"/>
				</linearGradient>
				<polygon class="st126" points="209.9,133.1 207.1,134.7 205.5,133.8 208.2,132.2 				"/>
				<path class="st127" d="M195.3,115.2c0-0.3-0.1-0.6-0.5-0.6c-0.3,0-0.6,0.1-0.6,0.5l0,0c0,0.5,0,1,0.3,1.6
					c0.1,0.4,0.3,0.9,0.3,1.3c-0.1,0.8-0.1,1.7,0,2.5c0.1,0.6,0.1,1.2,0,1.8c-0.1,0.8-0.4,1.6-0.6,2.2c-0.3,0.5-0.6,1-1,1.6
					c-0.3,0.3-0.1,0.6,0,0.8c0.3,0.3,0.6,0.1,0.8,0c0.5-0.5,0.9-1.2,1.2-1.8c0.4-0.8,0.6-1.7,0.8-2.5c0.1-0.6,0.1-1.4,0-2.1
					c-0.1-0.8-0.1-1.4,0-2.2c0-0.6-0.1-1.3-0.4-1.8C195.5,115.8,195.3,115.6,195.3,115.2z"/>
				<path class="st75" d="M193.4,125.1c0.6,0.4,1,1.2,1.2,1.9c0,0.8-0.5,1-1.2,0.6c-0.6-0.4-1-1.2-1.2-1.9
					C192.2,125,192.7,124.7,193.4,125.1z"/>
				<path class="st73" d="M192.2,117.2c-4.7-2.7-8.6-0.5-8.6,4.9c0.4,6.1,3.5,11.5,8.6,14.7c4.7,2.7,8.6,0.5,8.6-4.9
					C200.4,125.9,197.3,120.5,192.2,117.2z M199,130.9c0,4.4-3.1,6.1-6.9,3.9c-4-2.6-6.6-7-6.9-11.8c0-4.4,3.1-6.1,6.9-3.9
					C196.2,121.8,198.7,126.2,199,130.9z"/>
				
					<linearGradient id="SVGID_32_" gradientUnits="userSpaceOnUse" x1="-8592.2432" y1="19.862" x2="-8588.1699" y2="-3.2047" gradientTransform="matrix(-1 0 0 1 -8399.0566 114.3937)">
					<stop  offset="0" style="stop-color:#FFFFFF"/>
					<stop  offset="1" style="stop-color:#BFBCAF"/>
				</linearGradient>
				<path class="st128" d="M192,118.5c-4.3-2.5-7.7-0.5-7.7,4.4c0.3,5.4,3.1,10.3,7.7,13.2c4.3,2.5,7.7,0.5,7.7-4.4
					C199.4,126.4,196.5,121.5,192,118.5z M198.1,130.9c0,3.9-2.7,5.4-6.1,3.5c-3.6-2.3-5.8-6.3-6.1-10.6c0-3.9,2.7-5.4,6.1-3.5
					C195.6,122.7,197.8,126.7,198.1,130.9z"/>
				<path class="st75" d="M191.3,117.6c-4.7-2.7-8.6-0.5-8.6,4.9c0.4,6.1,3.5,11.5,8.6,14.7c4.7,2.7,8.6,0.5,8.6-4.9
					C199.6,126.4,196.4,120.9,191.3,117.6z M198.2,131.5c0,4.4-3.1,6.1-6.9,3.9c-4-2.6-6.6-7-6.9-11.8c0-4.4,3.1-6.1,6.9-3.9
					C195.3,122.3,197.9,126.7,198.2,131.5z"/>
				<path class="st129" d="M219.5,141.8c0.1,0.3,0.5,0.4,0.8,0.3c0.3-0.1,0.4-0.5,0.3-0.8l0,0l-7.7-15.4c-0.1-0.3-0.5-0.4-0.8-0.3
					c-0.3,0.1-0.4,0.5-0.3,0.8L219.5,141.8z"/>
				<path class="st73" d="M218.7,132.5c-4.7-2.7-8.6-0.5-8.6,4.9c0.4,6.1,3.5,11.5,8.6,14.7c4.7,2.7,8.6,0.5,8.6-4.9
					C227,141.3,223.7,135.7,218.7,132.5z M225.6,146.3c0,4.4-3.1,6.1-6.9,3.9c-4-2.6-6.6-7-6.9-11.8c0-4.4,3.1-6.1,6.9-3.9
					C222.7,137,225.3,141.4,225.6,146.3L225.6,146.3z"/>
				
					<linearGradient id="SVGID_33_" gradientUnits="userSpaceOnUse" x1="-8619.2539" y1="34.8148" x2="-8614.5078" y2="17.0986" gradientTransform="matrix(-1 0 0 1 -8399.0566 114.3937)">
					<stop  offset="0" style="stop-color:#FFEBDC"/>
					<stop  offset="1" style="stop-color:#BFBCAF"/>
				</linearGradient>
				<path class="st130" d="M218.4,133.8c-4.3-2.5-7.7-0.5-7.7,4.4c0.3,5.4,3.1,10.3,7.7,13.2c4.3,2.5,7.7,0.5,7.7-4.4
					C225.8,141.7,223,136.8,218.4,133.8z M224.7,146.2c0,3.9-2.7,5.4-6.1,3.5c-3.6-2.3-5.8-6.3-6.1-10.6c0-3.9,2.7-5.4,6.1-3.5
					C222.1,137.9,224.4,141.9,224.7,146.2L224.7,146.2z"/>
				<path class="st129" d="M211.6,126.3c0.4,0.3,0.9,0.3,1.3-0.1c0.3-0.4,0.3-0.9-0.1-1.3c0,0,0,0-0.1,0l-17.4-12.8
					c-0.4-0.3-0.9-0.1-1.2,0.3c-0.3,0.4-0.1,0.9,0.1,1.2L211.6,126.3z"/>
				<path class="st129" d="M214.8,121.4c0.1-0.5-0.1-0.9-0.6-1c-0.4-0.1-0.9,0.1-1,0.4l-7.3,18.1c-0.3,0.4,0,0.9,0.4,1.2
					c0.4,0.3,0.9,0,1.2-0.4v-0.1L214.8,121.4z"/>
				<path class="st75" d="M217.9,132.9c-4.7-2.7-8.6-0.5-8.6,4.9c0.4,6.1,3.5,11.5,8.6,14.7c4.7,2.7,8.6,0.5,8.6-4.9
					C226.1,141.7,223,136.2,217.9,132.9z M224.7,146.7c0,4.4-3.1,6.1-6.9,3.9c-4-2.6-6.6-7-6.9-11.8c0-4.4,3.1-6.1,6.9-3.9
					C221.9,137.5,224.4,141.9,224.7,146.7L224.7,146.7z"/>
				<path class="st75" d="M217.9,140.9c0.9,0.6,1.6,1.7,1.7,2.8c0,1-0.8,1.4-1.7,0.9c-0.9-0.6-1.6-1.7-1.7-2.8
					C216.2,140.8,217,140.4,217.9,140.9z"/>
				<path class="st75" d="M219.5,140c0.9,0.6,1.6,1.7,1.7,2.8c0,1-0.8,1.4-1.7,0.9c-0.9-0.6-1.6-1.7-1.7-2.8
					C217.9,139.9,218.6,139.5,219.5,140z"/>
				<path class="st129" d="M196,109.4c0.1-0.5-0.3-0.9-0.8-1c-0.5-0.1-0.9,0.3-1,0.8v0.1l-0.6,7c-0.1,0.5,0.3,0.9,0.8,1
					c0.5,0.1,0.9-0.3,1-0.8v-0.1L196,109.4z"/>
				<path class="st129" d="M194.8,115.7c0-0.3-0.1-0.6-0.5-0.6c-0.3,0-0.6,0.1-0.6,0.5l0,0c-0.1,0.5-0.3,1-0.5,1.4
					c-0.4,0.8-0.6,1.6-0.8,2.5c-0.1,0.8-0.1,1.7,0,2.5c0.1,0.6,0.1,1.2,0,1.8c-0.1,0.8-0.3,1.4-0.5,2.2c-0.3,0.5-0.6,1-1,1.6
					c-0.3,0.3-0.1,0.6,0,0.8c0.3,0.3,0.6,0.1,0.8,0c0.5-0.5,0.9-1.2,1.2-1.8c0.4-0.8,0.6-1.7,0.8-2.5c0.1-0.6,0.1-1.4,0-2.1
					c-0.1-0.8-0.1-1.4,0-2.2s0.4-1.4,0.8-2.1C194.4,116.9,194.6,116.3,194.8,115.7z"/>
				<path class="st75" d="M191.3,126.3c0.6,0.4,1,1.2,1.2,1.9c0,0.8-0.5,1-1.2,0.6c-0.6-0.4-1-1.2-1.2-1.9
					C190.3,126.2,190.7,125.9,191.3,126.3z"/>
				<path class="st131" d="M202.6,103.7c0.3-0.1,0.4-0.5,0.3-0.9c-0.1-0.4-0.5-0.4-0.9-0.3l-3.1,1.8c-0.4,0.4-0.8,0.9-0.9,1.4
					c-0.1,0.3-0.3,0.5-0.4,0.8l0,0l-1.4,0.8l0,0l-1.4,0.8l0,0l-1.4,0.8l0,0l-1.4,0.8c-0.1,0.1,0.1-0.1,0.1-0.3l0,0
					c-0.4-0.4-0.8-0.8-1.4-0.4l-3.1,1.8c-0.3,0.1-0.4,0.5-0.3,0.9s0.5,0.4,0.9,0.3l3.1-1.8c0.1-0.1-0.1,0.1-0.1,0.3l0,0
					c0.4,0.4,0.8,0.8,1.4,0.4l1.4-0.8l0,0l1.4-0.8l0,0l1.4-0.8l0,0l1.4-0.8l0,0c0.4-0.4,0.8-0.9,0.9-1.4c0.1-0.3,0.3-0.5,0.4-0.8
					L202.6,103.7z"/>
				<path class="st75" d="M187.3,111.7c-0.1-0.3-0.1-0.6,0.3-0.9l3.1-1.8c0.3-0.3,0.6-0.1,0.9,0.1c0.3,0.3,0.1,0.6-0.1,0.9
					c0,0-0.1,0-0.1,0.1l-3.1,1.8C187.8,112.2,187.4,112.1,187.3,111.7z M198.7,105.2c-0.1-0.3-0.1-0.6,0.3-0.9l3.1-1.8
					c0.3-0.3,0.6-0.1,0.9,0.1c0.3,0.3,0.1,0.6-0.1,0.9c0,0-0.1,0-0.1,0.1l-3.1,1.8C199.2,105.6,198.8,105.5,198.7,105.2z"/>
				<path class="st129" d="M217.4,143.1c0.1,0.3,0.5,0.4,0.8,0.3s0.4-0.5,0.3-0.8l0,0l-6.9-15c-0.1-0.3-0.5-0.4-0.8-0.3
					s-0.4,0.5-0.3,0.8L217.4,143.1z"/>
				<path class="st129" d="M195.7,115c-0.3-0.4-0.8-0.6-1.2-0.4c-0.4,0.3-0.6,0.8-0.4,1.2l0,0l11.8,23.7c0.3,0.4,0.8,0.6,1.2,0.4
					c0.4-0.3,0.6-0.8,0.4-1.2L195.7,115z"/>
				<path class="st75" d="M206.2,135.7c1.3,0.8,1.9,2.2,2.1,3.6c0,1.2-0.8,1.8-1.8,1.4v1.9h-0.6v-2.3c-1-0.8-1.7-2.1-1.8-3.4
					C204.2,135.6,205.1,135,206.2,135.7z"/>
				
					<linearGradient id="SVGID_34_" gradientUnits="userSpaceOnUse" x1="-8603.9443" y1="27.5817" x2="-8603.2979" y2="36.7992" gradientTransform="matrix(-1 0 0 1 -8399.0566 114.3937)">
					<stop  offset="0" style="stop-color:#FFEBDC"/>
					<stop  offset="1" style="stop-color:#BFBCAF"/>
				</linearGradient>
				<polygon class="st132" points="207,142.7 204.2,144.4 202.6,143.5 205.3,141.8 				"/>
				<path class="st133" d="M214.8,121.4c0.1-0.5-0.1-0.9-0.6-1c-0.4-0.1-0.9,0.1-1,0.4l-1.3,3.4c-0.3,0.4,0,0.9,0.4,1.2
					c0.4,0.3,0.9,0,1.2-0.4v-0.1L214.8,121.4z"/>
				<path class="st75" d="M212.3,122.7l-2.9-3.6c-0.3-0.5-0.3-1.2,0-1.7c0.1-0.3,0.5-0.4,0.8-0.3l8,2.1c0.9,0.3,0.6,1.9,0.1,2.2
					l-3.4,1.9C214.3,123.8,213,123.6,212.3,122.7z"/>
				<path class="st73" d="M212.3,121.8l-2.9-3.6c-0.3-0.3-0.1-0.8,0.1-1c0.1-0.1,0.4-0.1,0.6-0.1l8,2.1c0.4,0.1,0.6,0.5,0.5,0.9
					c0,0.1-0.1,0.3-0.3,0.4l-3.4,1.9C214.3,122.8,213,122.7,212.3,121.8z"/>
				<g>
					<path class="st134" d="M163.8,137c-0.4,0.3-0.3,0.5,0,0.6c0.4,0.1,0.8,0.1,1.2,0c0.4-0.3,0.3-0.5,0-0.6
						C164.6,136.9,164.2,136.9,163.8,137z"/>
					<path class="st134" d="M163.6,129.7c0-1.3,0-2.5,0-3.5l0,0l0,0l0,0l0,0l0,0l0,0l0.1-0.1c0.4-0.1,0.8-0.1,1.2,0l0.1,0.1l0,0l0,0
						l0,0l0,0l0,0l0,0l0,0v3.5c0,1.3,0,6.6,0,7.6c0,0.1-0.1,0.3-0.3,0.4c-0.4,0.1-0.8,0.1-1.2,0c-0.1,0-0.3-0.3-0.3-0.4L163.6,129.7
						z"/>
				</g>
				<g>
					<path class="st134" d="M173.2,142.2c-0.4,0.3-0.3,0.5,0,0.6c0.4,0.1,0.8,0.1,1.2,0c0.4-0.3,0.3-0.5,0-0.6
						C174.1,142.1,173.5,142.1,173.2,142.2z"/>
					<path class="st134" d="M172.9,135c0-1.3,0-2.5,0-3.5l0,0l0,0l0,0l0,0l0,0l0,0l0.1-0.1c0.4-0.1,0.8-0.1,1.2,0l0.1,0.1l0,0l0,0
						l0,0l0,0l0,0l0,0l0,0v3.5c0,1.3,0,6.6,0,7.6c0,0.1-0.1,0.3-0.3,0.4c-0.4,0.1-0.8,0.1-1.2,0c-0.1,0-0.3-0.3-0.3-0.4L172.9,135z"
						/>
				</g>
				<g>
					<path class="st134" d="M183.7,136.1c-0.4,0.3-0.3,0.5,0,0.6c0.4,0.1,0.8,0.1,1.2,0c0.4-0.3,0.3-0.5,0-0.6
						C184.6,135.9,184.1,135.9,183.7,136.1z"/>
					<path class="st134" d="M183.5,128.7c0-1.3,0-0.6,0-1.7l0,0l0,0l0,0l0,0l0,0l0,0l0.1-0.1c0.4-0.1,0.8-0.1,1.2,0l0.1,0.1l0,0l0,0
						l0,0l0,0l0,0l0,0l0,0v1.7c0,1.3,0,6.6,0,7.6c0,0.1-0.1,0.3-0.3,0.4c-0.4,0.1-0.8,0.1-1.2,0c-0.1,0-0.3-0.3-0.3-0.4L183.5,128.7
						z"/>
				</g>
				<g>
					<polygon class="st29" points="174.7,133 163.2,126.3 163.2,127.2 174.7,133.9 					"/>
					<polygon class="st31" points="186.1,126.4 174.6,119.7 163.2,126.3 174.7,133 					"/>
					<polygon class="st30" points="174.7,133 174.7,133.9 186.1,127.3 186.1,126.4 					"/>
				</g>
				<g>
					<polygon class="st29" points="163.9,110.8 163.2,110.4 163.2,126.3 164.1,126.7 					"/>
					<polygon class="st31" points="175.4,104.3 174.6,103.8 163.2,110.4 163.9,110.8 					"/>
					<polygon class="st135" points="163.9,110.8 164.1,126.7 175.4,120.2 175.4,104.3 					"/>
				</g>
				<g>
					<path class="st134" d="M147.1,146.6c-0.4,0.3-0.3,0.5,0,0.6c0.4,0.1,0.8,0.1,1.2,0c0.4-0.3,0.3-0.5,0-0.6
						C148,146.5,147.5,146.5,147.1,146.6z"/>
					<path class="st134" d="M146.8,139.3c0-1.3,0-2.5,0-3.5l0,0l0,0l0,0l0,0l0,0l0,0l0.1-0.1c0.4-0.1,0.8-0.1,1.2,0l0.1,0.1l0,0l0,0
						l0,0l0,0l0,0l0,0l0,0v3.5c0,1.3,0,6.6,0,7.6c0,0.1-0.1,0.3-0.3,0.4c-0.4,0.1-0.8,0.1-1.2,0c-0.1,0-0.3-0.3-0.3-0.4L146.8,139.3
						z"/>
				</g>
				<g>
					<path class="st134" d="M156.4,151.9c-0.4,0.3-0.3,0.5,0,0.6c0.4,0.1,0.8,0.1,1.2,0c0.4-0.3,0.3-0.5,0-0.6
						C157.3,151.8,156.8,151.8,156.4,151.9z"/>
					<path class="st134" d="M156.3,144.6c0-1.3,0-2.5,0-3.5l0,0l0,0l0,0l0,0l0,0l0,0l0.1-0.1c0.4-0.1,0.8-0.1,1.2,0l0.1,0.1l0,0l0,0
						l0,0l0,0l0,0l0,0l0,0v3.5c0,1.3,0,6.6,0,7.6c0,0.1-0.1,0.3-0.3,0.4c-0.4,0.1-0.8,0.1-1.2,0c-0.1,0-0.3-0.3-0.3-0.4L156.3,144.6
						z"/>
				</g>
				<g>
					<path class="st134" d="M167.1,145.7c-0.4,0.3-0.3,0.5,0,0.6c0.4,0.1,0.8,0.1,1.2,0c0.4-0.3,0.3-0.5,0-0.6
						C167.8,145.6,167.4,145.6,167.1,145.7z"/>
					<path class="st134" d="M166.8,138.4c0-1.3,0-0.6,0-1.7l0,0l0,0l0,0l0,0l0,0l0,0l0.1-0.1c0.4-0.1,0.8-0.1,1.2,0l0.1,0.1l0,0l0,0
						l0,0l0,0l0,0l0,0l0,0v1.7c0,1.3,0,6.6,0,7.6c0,0.1-0.1,0.3-0.3,0.4c-0.4,0.1-0.8,0.1-1.2,0c-0.1,0-0.3-0.3-0.3-0.4L166.8,138.4
						z"/>
				</g>
				<g>
					<polygon class="st29" points="158,142.6 146.4,135.9 146.4,136.9 158,143.6 					"/>
					<polygon class="st31" points="169.4,136.1 157.8,129.4 146.4,135.9 158,142.6 					"/>
					<polygon class="st30" points="158,142.6 158,143.6 169.4,137 169.4,136.1 					"/>
				</g>
				<g>
					<polygon class="st29" points="147.3,120.5 146.4,120.1 146.4,136 147.3,136.4 					"/>
					<polygon class="st31" points="158.8,114 157.8,113.5 146.4,120.1 147.3,120.5 					"/>
					<polygon class="st135" points="147.3,120.5 147.3,136.4 158.8,129.8 158.8,114 					"/>
				</g>
				<path class="st136" d="M180.7,153.4c0,4.1,5.7,7.5,12.8,7.5c7.1,0,12.8-3.4,12.8-7.5v-6.2h-25.7L180.7,153.4L180.7,153.4z"/>
				<ellipse class="st137" cx="193.5" cy="147.2" rx="12.8" ry="7.5"/>
				<ellipse class="st136" cx="193.5" cy="147.2" rx="8.2" ry="4.5"/>
				<path class="st136" d="M180.7,145.3c0,4.1,5.7,7.5,12.8,7.5c7.1,0,12.8-3.4,12.8-7.5v-6.2h-25.7L180.7,145.3L180.7,145.3z"/>
				<ellipse class="st137" cx="193.5" cy="139.1" rx="12.8" ry="7.5"/>
				<ellipse class="st136" cx="193.5" cy="139.1" rx="8.2" ry="4.5"/>
				<path class="st136" d="M180.7,137.2c0,4.1,5.7,7.5,12.8,7.5c7.1,0,12.8-3.4,12.8-7.5v-6.2h-25.7L180.7,137.2L180.7,137.2z"/>
				<ellipse class="st137" cx="193.5" cy="130.8" rx="12.8" ry="7.5"/>
				<ellipse class="st136" cx="193.5" cy="130.8" rx="8.2" ry="4.5"/>
				<path class="st136" d="M180.7,129c0,4.1,5.7,7.5,12.8,7.5c7.1,0,12.8-3.4,12.8-7.5v-6.2h-25.7L180.7,129L180.7,129z"/>
				<ellipse class="st137" cx="193.5" cy="122.7" rx="12.8" ry="7.5"/>
				<ellipse class="st136" cx="193.5" cy="122.7" rx="8.2" ry="4.5"/>
				<polygon class="st32" points="173.9,171.8 187,164.2 187,149 173.9,156.7 				"/>
				<polygon class="st33" points="173.9,171.8 160.8,164.2 160.8,149 173.9,156.7 				"/>
				<polygon class="st34" points="187,149 173.9,141.5 160.8,149 169.5,154.1 173.9,156.7 				"/>
				<polygon class="st35" points="167.8,155.8 166.2,154.7 166.2,152.3 167.8,153.2 				"/>
				<polygon class="st36" points="181.1,145.6 179.4,144.6 166.2,152.3 167.8,153.2 				"/>
				<g>
					<polygon class="st138" points="135.7,173.2 147,166.8 147,156.8 135.8,163.3 					"/>
					<g>
						<g>
							<path class="st139" d="M137.6,170.4l11.2-6.5c-0.1,0.1-0.3,0.1-0.4,0l-11.2,6.5C137.4,170.5,137.5,170.5,137.6,170.4
								L137.6,170.4z"/>
						</g>
					</g>
					<g>
						<g>
							<path class="st139" d="M137.2,170.4l11.2-6.5c-0.4-0.3-0.5-0.6-0.5-1c0-0.1,0-0.3,0.1-0.4l-11.2,6.5
								c-0.1,0.1-0.1,0.3-0.1,0.4C136.7,169.7,136.8,170.1,137.2,170.4z"/>
						</g>
					</g>
					<g>
						<g>
							<path class="st140" d="M137.2,169.1l11.2-6.5c-0.1-0.1-0.3-0.1-0.4,0l-11.2,6.5C137,168.9,137.1,168.9,137.2,169.1z"/>
						</g>
					</g>
					<g>
						<g>
							<path class="st140" d="M137.6,170.4l11.2-6.5c0.1-0.1,0.1-0.3,0.1-0.4c0-0.4-0.3-0.8-0.5-1l-11.2,6.5c0.4,0.3,0.5,0.6,0.5,1
								C137.9,170.1,137.7,170.4,137.6,170.4L137.6,170.4z"/>
						</g>
					</g>
					<path class="st141" d="M137.2,169.1c-0.3-0.1-0.5,0-0.5,0.4s0.3,0.8,0.5,1c0.3,0.1,0.5,0,0.5-0.4
						C137.7,169.6,137.6,169.2,137.2,169.1z"/>
					<polygon class="st138" points="135.8,162 147,155.5 147,150.9 135.8,157.3 					"/>
					<polygon class="st142" points="150.2,181.6 161.5,175.2 147,166.8 135.7,173.2 					"/>
					<polygon class="st143" points="150.3,171.5 161.5,165.1 147,156.8 135.8,163.3 					"/>
					<polygon class="st142" points="150.3,170.4 161.5,163.9 147,155.5 135.8,162 					"/>
					<g>
						<g>
							<path class="st139" d="M137.2,161.2l11.2-6.5c-0.4-0.3-0.5-0.6-0.5-1c0-0.1,0-0.3,0.1-0.4l-11.2,6.5
								c-0.1,0.1-0.1,0.3-0.1,0.4C136.7,160.7,137,160.9,137.2,161.2L137.2,161.2z"/>
						</g>
					</g>
					<g>
						<g>
							<path class="st139" d="M137.7,161.3l11.2-6.5c-0.1,0.1-0.3,0.1-0.4,0l-11.2,6.5C137.4,161.3,137.6,161.3,137.7,161.3z"/>
						</g>
					</g>
					<g>
						<g>
							<path class="st142" d="M151.1,183.8l11.2-6.5l0,0L151.1,183.8L151.1,183.8z"/>
						</g>
					</g>
					<g>
						<g>
							<path class="st140" d="M137.4,159.9l11.2-6.5c-0.1-0.1-0.3-0.1-0.4,0l-11.2,6.5C137,159.8,137.2,159.8,137.4,159.9z"/>
						</g>
					</g>
					<g>
						<g>
							<path class="st140" d="M137.7,161.3l11.2-6.5c0.1-0.1,0.1-0.3,0.1-0.4c0-0.4-0.3-0.8-0.5-1l-11.2,6.5c0.4,0.3,0.5,0.6,0.5,1
								C137.9,161.1,137.9,161.2,137.7,161.3z"/>
						</g>
					</g>
					<path class="st144" d="M150.3,170.4l-14.5-8.4v-4.7l14.5,8.4V170.4z M137.4,161.2c0.3,0.1,0.5,0,0.5-0.4s-0.3-0.8-0.5-1
						c-0.3-0.1-0.5,0-0.5,0.4C136.7,160.7,137,160.9,137.4,161.2z"/>
					<path class="st141" d="M137.4,159.9c-0.3-0.1-0.5,0-0.5,0.4c0,0.4,0.3,0.8,0.5,1c0.3,0.1,0.5,0,0.5-0.4
						S137.6,160.2,137.4,159.9z"/>
					<polygon class="st5" points="135.8,155.8 147,149.2 146,148.7 134.9,155.2 					"/>
					<polygon class="st3" points="135.8,156 147,149.6 147,149.2 135.8,155.8 					"/>
					<polygon class="st145" points="150.2,181.6 161.5,175.2 161.5,165.1 150.3,171.5 					"/>
					<path class="st144" d="M150.2,181.6l-14.5-8.4v-10l14.5,8.4V181.6z M137.2,170.4c0.3,0.1,0.5,0,0.5-0.4c0-0.4-0.3-0.8-0.5-1
						c-0.3-0.1-0.5,0-0.5,0.4S136.8,170.1,137.2,170.4z"/>
					<polygon class="st143" points="150.3,165.7 161.5,159.3 147,150.9 135.8,157.3 					"/>
					<polygon class="st145" points="150.3,170.4 161.5,163.9 161.5,159.3 150.3,165.7 					"/>
					<polygon class="st23" points="150.3,164.4 161.5,158 147,149.6 135.8,156 					"/>
					<polygon class="st3" points="151.1,183.7 162.3,177.2 162.4,159 151.2,165.5 					"/>
					<polygon class="st3" points="151.2,165.5 162.4,159 162.4,158.5 151.2,164.9 					"/>
					<polygon class="st3" points="151.2,164.9 162.4,158.5 162.4,158.1 151.2,164.6 					"/>
					<path class="st21" d="M135.8,156l14.5,8.4V164l0.9,0.5v0.9v18.4c0,0.4-3.6-1.6-8.2-4.1c-4.5-2.6-8.2-4.9-8.2-5.3V156v-0.9
						l0.9,0.5L135.8,156z M135.8,173.2l14.4,8.4v-10l-14.5-8.4L135.8,173.2L135.8,173.2z M135.8,162l14.5,8.4v-4.7l-14.5-8.4V162z"
						/>
					<polygon class="st5" points="151.2,164.6 162.4,158.1 161.5,157.6 150.3,164 					"/>
				</g>
			</g>
		</g>
	</g>
</g>
</svg>
