<?xml version="1.0" encoding="utf-8"?>
<!-- Generator: Adobe Illustrator 23.0.0, SVG Export Plug-In . SVG Version: 6.00 Build 0)  -->
<svg version="1.1" id="Layer_1" xmlns="http://www.w3.org/2000/svg" xmlns:xlink="http://www.w3.org/1999/xlink" x="0px" y="0px"
	 width="272.8px" height="200.4px" viewBox="0 0 272.8 200.4" style="enable-background:new 0 0 272.8 200.4;" xml:space="preserve"
	>
<style type="text/css">
	.st0{fill:#EAE9E4;stroke:#FFFFFF;stroke-miterlimit:10;}
	.st1{fill:url(#SVGID_1_);stroke:#FFFFFF;stroke-miterlimit:10;}
	.st2{fill:url(#SVGID_2_);stroke:#FFFFFF;stroke-miterlimit:10;}
	.st3{fill:#3D1701;}
	.st4{fill:#250E01;}
	.st5{fill:#692901;}
	.st6{fill:#FFCC94;}
	.st7{fill:#7295AA;}
	.st8{fill:#3FC977;}
	.st9{fill:#B28E69;}
	.st10{fill:#072E47;}
	.st11{fill:#664429;}
	.st12{fill:#AF7846;}
	.st13{fill:#FA7564;}
	.st14{fill:#FA543F;}
	.st15{fill:#FFA323;}
	.st16{fill:#F7BD57;}
	.st17{fill:#BFCBE3;}
	.st18{fill:#D0D9EA;}
	.st19{fill:#E1E4EA;}
	.st20{fill:#393C41;}
	.st21{fill:#9ED7E2;}
	.st22{fill:#FAFBFD;}
	.st23{fill:#374246;}
	.st24{fill:#56676E;}
	.st25{fill:#02415E;}
	.st26{fill:#025074;}
	.st27{fill:#DEF3EE;}
	.st28{fill:#230E01;}
	.st29{fill:#5B3520;}
	.st30{fill:#9F9B90;}
	.st31{fill:#F5EEDD;}
	.st32{fill:#2B1101;}
	.st33{fill:#5A3520;}
	.st34{fill:#8B5231;}
	.st35{fill:#4A2C1A;}
	.st36{fill:#4C1C01;}
	.st37{fill:#572201;}
	.st38{fill:#BCB596;}
	.st39{fill:#F1EBDA;}
	.st40{fill:#D8D1B4;}
	.st41{fill:#49C1CA;}
	.st42{fill:#389BA0;}
	.st43{fill:#B03814;}
	.st44{fill:#F39E02;}
	.st45{fill:#F8CD16;}
	.st46{fill:#223437;}
	.st47{fill:#406166;}
	.st48{fill:#0C181A;}
	.st49{fill:url(#_Path__1_);}
	.st50{fill:url(#_Path_2_1_);}
	.st51{fill:#E2E0DC;}
	.st52{fill:url(#_Path_4_1_);}
	.st53{fill:url(#_Path_5_1_);}
	.st54{fill:url(#_Path_7_1_);}
	.st55{fill:url(#_Path_8_1_);}
	.st56{fill:url(#_Path_10_1_);}
	.st57{fill:url(#_Path_11_1_);}
	.st58{fill:url(#_Path_13_1_);}
	.st59{fill:#FFFFFF;}
	.st60{fill:#ECECEC;}
	.st61{fill:url(#_Path_18_1_);}
	.st62{fill:url(#_Path_19_1_);}
	.st63{fill:#A2A2A2;}
	.st64{clip-path:url(#SVGID_4_);}
	.st65{fill:#9C9C9C;}
	.st66{fill:#999999;}
	.st67{fill:#969696;}
	.st68{fill:#949494;}
	.st69{fill:#919191;}
	.st70{fill:#8F8F8F;}
	.st71{fill:#8C8C8C;}
	.st72{fill:#8A8A8A;}
	.st73{clip-path:url(#SVGID_6_);}
	.st74{fill:#828282;}
	.st75{fill:#848484;}
	.st76{fill:#AEAEAE;}
	.st77{clip-path:url(#SVGID_8_);}
	.st78{clip-path:url(#SVGID_10_);}
	.st79{clip-path:url(#SVGID_12_);}
	.st80{clip-path:url(#SVGID_14_);}
	.st81{fill:#878787;}
	.st82{fill:#858585;}
	.st83{clip-path:url(#SVGID_16_);}
	.st84{clip-path:url(#SVGID_18_);}
	.st85{clip-path:url(#SVGID_20_);}
	.st86{clip-path:url(#SVGID_22_);}
	.st87{clip-path:url(#SVGID_24_);}
	.st88{clip-path:url(#SVGID_26_);}
	.st89{fill:#CCD6EA;}
	.st90{fill:#A6BAE3;}
	.st91{fill:#1A4B6C;}
	.st92{fill:#656A69;}
	.st93{fill:#231F20;}
	.st94{fill:url(#SVGID_27_);}
	.st95{fill:#3CC272;}
	.st96{fill:#414042;}
	.st97{fill:url(#SVGID_28_);}
	.st98{fill:none;stroke:#FBBC05;stroke-miterlimit:10;}
	.st99{fill:url(#SVGID_29_);}
	.st100{fill:#FBBC05;}
	.st101{fill:#C9C9C6;}
	.st102{fill:url(#SVGID_30_);}
	.st103{fill:#A0E0B8;stroke:#FBBC05;stroke-miterlimit:10;}
	.st104{fill:#E4B185;}
	.st105{fill:#B38A68;}
	.st106{fill:#CD9F78;}
	.st107{fill:#998458;}
	.st108{fill:#B29867;}
	.st109{fill:#07334E;}
	.st110{fill:#DCCEB6;}
	.st111{fill:#EDCEBA;}
	.st112{fill:#F0E7D8;}
	.st113{fill:url(#_Path_20_1_);}
	.st114{fill:#9C9B9B;}
	.st115{fill:url(#_Path_27_1_);}
	.st116{fill:#292320;}
	.st117{fill:#413833;}
</style>
<title>Artboard 8@2x</title>
<polygon class="st0" points="156.5,199.9 117.7,177.7 156.1,156.1 194.8,178.3 "/>
<polygon class="st0" points="117.7,177.7 78.8,155.4 117.3,133.8 156.1,156.1 "/>
<polygon class="st0" points="194.8,178.3 156.1,156.1 194.5,134.6 233.3,156.7 "/>
<polygon class="st0" points="156.1,156.1 117.3,133.8 155.6,112.2 194.5,134.6 "/>
<polygon class="st0" points="78.8,155.4 39.9,133 78.4,111.4 117.3,133.8 "/>
<polygon class="st0" points="117.3,133.8 78.4,111.4 116.9,90.1 155.6,112.2 "/>
<polygon class="st0" points="39.9,133 1,110.9 39.5,89.3 78.4,111.4 "/>
<polygon class="st0" points="78.4,111.4 39.5,89.3 78,67.7 116.9,90.1 "/>
<polygon class="st0" points="233.3,156.7 194.5,134.6 232.9,113 271.8,135.1 "/>
<polygon class="st0" points="194.5,134.6 155.6,112.2 194.1,90.6 232.9,113 "/>
<polygon class="st0" points="155.6,112.2 116.9,90.1 155.2,68.5 194.1,90.6 "/>
<polygon class="st0" points="116.9,90.1 78,67.7 116.5,46.1 155.2,68.5 "/>
<linearGradient id="SVGID_1_" gradientUnits="userSpaceOnUse" x1="200.3434" y1="-9.5008" x2="175.8821" y2="33.1335" gradientTransform="matrix(1 0 0 1 0 66.3937)">
	<stop  offset="0" style="stop-color:#EAE9E4;stop-opacity:0"/>
	<stop  offset="1" style="stop-color:#EAE9E4"/>
</linearGradient>
<polygon class="st1" points="271.4,89.9 116.1,0.9 116.5,46.1 271.8,135.1 "/>
<linearGradient id="SVGID_2_" gradientUnits="userSpaceOnUse" x1="51.6995" y1="-21.4531" x2="76.2317" y2="17.5867" gradientTransform="matrix(1 0 0 1 0 66.3937)">
	<stop  offset="0" style="stop-color:#EAE9E4;stop-opacity:0"/>
	<stop  offset="1" style="stop-color:#EAE9E4"/>
</linearGradient>
<polygon class="st2" points="0.8,65.6 116.1,0.9 116.5,46.1 1,110.9 "/>
<g>
	<g>
		<path class="st3" d="M150.2,49.2L114.6,29c-0.2-0.2-0.6-0.2-0.8-0.2L149.2,49C149.4,49,149.8,49,150.2,49.2L150.2,49.2z"/>
		<path class="st3" d="M149.2,49l-35.4-20.2c-0.4,0-0.6,0.2-1,0.2l35.4,20.4C148.6,49.2,149,49,149.2,49L149.2,49z"/>
		<path class="st3" d="M148.4,49.4L112.8,29l-0.2,0.2l4.4,2.7C117.3,31.7,148.3,49.4,148.4,49.4L148.4,49.4z"/>
	</g>
	<g>
		<path class="st4" d="M92.4,67.9L88,65.2c0,0.8,0.2,1.3,0.8,1.7l4.4,2.7C92.6,69.3,92.2,68.5,92.4,67.9z"/>
	</g>
	<polygon class="st4" points="92.4,49.2 87.8,46.7 87.8,65.2 92.4,67.9 	"/>
	<polygon class="st3" points="117.3,31.7 112.6,29.2 90.5,41.9 95.1,44.6 	"/>
	<g>
		<g>
			<path class="st3" d="M95.1,44.6l-4.4-2.7c-1.2,0.8-1.9,1.9-2.5,3.1l4.4,2.7C93,46.3,94,45.4,95.1,44.6z"/>
			<path class="st4" d="M92.6,47.7L88.2,45C88,45.4,88,45.8,88,46.1l4.4,2.7C92.4,48.4,92.4,48.1,92.6,47.7L92.6,47.7z"/>
			<path class="st4" d="M92.4,48.8L88,46.1c0,0.2,0,0.2,0,0.4l4.4,2.7C92.4,49,92.4,49,92.4,48.8L92.4,48.8z"/>
		</g>
	</g>
	<path class="st5" d="M95.1,44.6c-1.7,1-2.7,2.7-2.7,4.6v18.7c0,1.7,1.2,2.5,2.7,1.5l53.1,4.8c1.5-1,2.5-2.7,2.7-4.6V51
		c0-1.7-32.1-20-33.7-19.3L95.1,44.6z"/>
</g>
<g>
	<g>
		<path class="st6" d="M115.3,18.4l3.8-2.3c-0.6-0.4-1.5-0.6-2.1-0.2l-3.8,2.3C113.8,17.8,114.8,18,115.3,18.4z"/>
	</g>
	<g>
		<g>
			<path class="st7" d="M177.3,78.9l3.8-2.3c0.6-0.4,1-1.2,1-1.9l-3.8,2.3C178.3,77.7,177.9,78.5,177.3,78.9z"/>
		</g>
	</g>
	<polygon class="st8" points="178.3,77 182.1,74.6 182.1,55.8 178.3,57.9 	"/>
	<polygon class="st6" points="175.2,52.7 179.1,50.4 119.2,16.3 115.3,18.4 	"/>
	<g>
		<path class="st6" d="M178.3,57.9l3.8-2.3c-0.2-2.1-1.3-4.2-3.1-5.4l-3.8,2.3C176.9,53.8,178.1,55.8,178.3,57.9z"/>
	</g>
	<path class="st9" d="M115.3,18.4c-1.7-1-3.1-0.2-3.1,1.7v22.7c0,1.9,1.3,0.8,3.1,1.7l59.9,34.1c1.7,1,3.1,0.2,3.1-1.7V57.9
		c-0.2-2.1-1.3-4.2-3.1-5.4L115.3,18.4z"/>
</g>
<g>
	<g>
		<path class="st3" d="M91.9,61.4v6.5c0,0.8,0.6,1.3,1.2,1.5v-6.5C92.2,62.7,91.9,62.1,91.9,61.4z"/>
	</g>
	<g>
		<path class="st10" d="M171.5,84.5V91c0.6-0.2,1-1,1.2-1.5v-6.5C172.7,83.7,172.1,84.3,171.5,84.5z"/>
	</g>
	<polygon class="st3" points="92.8,62.9 92.8,69.4 152.5,103.7 148.3,94.9 	"/>
	<polygon class="st10" points="153.6,94.9 153.8,101.4 171.5,91 171.5,84.5 	"/>
	<g>
		<path class="st3" d="M148.3,94.9v6.5c1.7,0.8,3.7,0.8,5.4,0v-6.5C152.1,95.6,150,95.6,148.3,94.9z"/>
	</g>
	<path class="st5" d="M92.8,59.8c-1,0.4-1.3,1.2-1,2.1c0.2,0.6,0.6,1,1,1l55.4,32c1.7,0.8,3.7,0.8,5.4,0l17.9-10.2
		c1-0.4,1.3-1.2,1-2.1c-0.2-0.6-0.6-1-1-1l-55.4-32.2c-1.7-0.8-3.7-0.8-5.4,0L92.8,59.8z"/>
</g>
<g>
	<path class="st11" d="M92.8,56l55.4,32c1.7,0.8,3.7,0.8,5.4,0l17.9-10.2c0.6-0.2,1-1,1.2-1.5v6.5c0,0.8-0.6,1.3-1.2,1.5l-17.9,10.2
		c-1.7,0.8-3.7,0.8-5.4,0l-55.4-32c-0.6-0.2-1-1-1.2-1.5v-6.5C91.9,55.2,92.2,55.8,92.8,56z"/>
	<path class="st12" d="M92.8,52.9c-0.8,0.2-1.3,1.2-1,2.1c0.2,0.6,0.6,1,1,1l55.4,32c1.7,0.8,3.7,0.8,5.4,0l17.9-10.2
		c1-0.4,1.3-1.2,1-2.1c-0.2-0.6-0.6-1-1-1l-55.4-32.2c-1.7-0.8-3.7-0.8-5.4,0L92.8,52.9z"/>
</g>
<g>
	<g>
		<g>
			<path class="st6" d="M144,50.8l4.4-2.7l-0.4-0.2l-4.4,2.7L144,50.8z"/>
			<path class="st6" d="M143.6,50.6l4.4-2.7c-0.4-0.2-0.6-0.2-1,0l-4.4,2.7C143.1,50.4,143.4,50.4,143.6,50.6z"/>
			<path class="st13" d="M142.9,50.6l4.4-2.7h-0.2L142.9,50.6L142.9,50.6L142.9,50.6z"/>
		</g>
	</g>
	<g>
		<g>
			<path class="st14" d="M162.5,78.1l4.4-2.5c0.4-0.2,0.6-0.8,0.6-1.3l-4.4,2.5C163.1,77.3,162.9,77.9,162.5,78.1L162.5,78.1z"/>
		</g>
	</g>
	<polygon class="st15" points="163.1,77 167.5,74.3 167.5,61.5 163.1,64.1 	"/>
	<polygon class="st6" points="161,60.6 165.4,57.9 148.6,48.1 144,50.8 	"/>
	<g>
		<g>
			<path class="st15" d="M163.1,64.1l4.4-2.5c0-0.6-0.2-1-0.4-1.3l-4.4,2.5C162.9,63.1,162.9,63.7,163.1,64.1L163.1,64.1z"/>
			<path class="st6" d="M162.7,62.7l4.4-2.5c-0.2-0.4-0.4-0.8-0.6-1.2l-4.4,2.5C162.3,61.9,162.5,62.3,162.7,62.7z"/>
			<path class="st6" d="M162.1,61.5l4.4-2.7c-0.4-0.4-0.6-0.8-1.2-1l-4.4,2.7C161.3,60.8,161.7,61.2,162.1,61.5L162.1,61.5z"/>
		</g>
	</g>
	<path class="st16" d="M144,50.8c-1.2-0.6-2.1-0.2-2.1,1.2v12.7c0,1.5,0.8,2.7,2.1,3.7l16.9,9.8c1.2,0.6,2.1,0.2,2.1-1.2V64.2
		c0-1.5-0.8-2.7-2.1-3.7L144,50.8z"/>
</g>
<g>
	<g>
		<g>
			<path class="st6" d="M112.5,32.8l4.4-2.7h-0.4l-4.4,2.7H112.5L112.5,32.8z"/>
			<path class="st6" d="M112.1,32.7l4.4-2.7c-0.4-0.2-0.6-0.2-1,0l-4.4,2.7C111.5,32.5,111.7,32.5,112.1,32.7L112.1,32.7z"/>
			<path class="st13" d="M111.1,32.7l4.4-2.7h-0.2L111.1,32.7L111.1,32.7L111.1,32.7z"/>
		</g>
	</g>
	<g>
		<g>
			<path class="st15" d="M130.7,60.4l4.4-2.7c0.4-0.4,0.6-0.8,0.6-1.3l-4.4,2.7C131.5,59.4,131.3,60,130.7,60.4z"/>
		</g>
	</g>
	<polygon class="st15" points="131.3,59 135.9,56.3 135.9,43.6 131.5,46.1 	"/>
	<polygon class="st6" points="129.4,42.7 133.8,40 116.9,30.1 112.5,32.8 	"/>
	<g>
		<g>
			<path class="st15" d="M131.5,46.1l4.4-2.7c0-0.6-0.2-1-0.4-1.3l-4.4,2.7C131.3,45.2,131.5,45.8,131.5,46.1z"/>
			<path class="st6" d="M131.1,44.8l4.4-2.7c-0.2-0.4-0.4-1-0.8-1.2l-4.4,2.7C130.7,44,130.9,44.4,131.1,44.8z"/>
			<path class="st6" d="M130.4,43.6l4.4-2.7c-0.4-0.4-0.6-0.8-1.2-1l-4.4,2.7C129.8,42.9,130.2,43.2,130.4,43.6z"/>
		</g>
	</g>
	<path class="st16" d="M112.5,32.8c-1.2-0.6-2.1-0.2-2.1,1.2v12.7c0,1.5,0.8,2.7,2.1,3.7l16.9,9.8c1.2,0.6,2.1,0.2,2.1-1.2V46.3
		c0-1.5-0.8-2.7-2.1-3.7L112.5,32.8z"/>
</g>
<g>
	<g>
		<path class="st4" d="M154.6,103.7l-4.4-2.5c0,0.8,0.2,1.3,0.8,1.7l4.4,2.7C155,105.3,154.6,104.5,154.6,103.7L154.6,103.7z"/>
	</g>
	<polygon class="st4" points="154.6,87.2 150.2,84.5 150.2,101.2 154.6,103.7 	"/>
	<g>
		<g>
			<path class="st5" d="M152.9,79.9L175,67.1l0.2-0.2c0.4-0.2,0.6-0.2,1-0.2c0.2,0,0.6,0,0.8,0.2l4.4,2.7c-0.2-0.2-0.6-0.2-0.8-0.2
				c-0.4,0-0.6,0.2-1,0.2l-0.2,0.2l-22.1,12.7c-1.2,0.8-1.9,1.9-2.5,3.1l-4.4-2.7C151,81.6,151.7,80.4,152.9,79.9z"/>
			<path class="st4" d="M154.8,85.6l-4.4-2.7c-0.2,0.4-0.2,0.8-0.2,1.2l4.4,2.7C154.6,86.4,154.8,86,154.8,85.6L154.8,85.6z"/>
			<path class="st4" d="M154.6,86.8l-4.4-2.7c0,0.2,0,0.2,0,0.4l4.4,2.7C154.6,87,154.6,86.8,154.6,86.8z"/>
		</g>
	</g>
	<path class="st3" d="M157.3,82.4c-1.5,1-2.7,2.7-2.7,4.6v16.8c0,1.7,1.2,2.5,2.7,1.5l22.1-12.7c1.5-1,2.7-2.7,2.7-4.6V71.2
		c0-1.7-1.2-2.5-2.7-1.5L157.3,82.4z"/>
</g>
<g>
	<polygon class="st17" points="68.6,104.3 41.8,88.7 41.6,44 68.4,59.6 	"/>
	<polygon class="st18" points="68.4,59.6 41.6,44 73.2,25.9 99.9,41.5 	"/>
	<polygon class="st19" points="99.9,73.7 99.9,41.5 68.4,59.6 68.6,104.3 69.7,103.7 73,101.8 99.9,86.2 	"/>
</g>
<polygon class="st20" points="69.9,71 69.9,97.4 70.9,96.8 74,95.1 99.2,80.6 99.2,54 "/>
<polygon class="st21" points="72.8,72 72.8,93.1 73.6,92.6 76.1,91.2 96.3,79.5 96.3,58.3 "/>
<polygon class="st22" points="72.8,72 72.8,74.5 73.6,73.9 76.1,72.5 96.3,60.8 96.3,58.3 "/>
<g>
	<path class="st23" d="M89.9,39.2c2.7,1.7,2.5,4.4-0.2,6c-3.1,1.5-6.7,1.5-9.8-0.2c-2.7-1.7-2.5-4.4,0.2-6
		C83.2,37.5,86.9,37.7,89.9,39.2z"/>
	<path class="st24" d="M89.9,39.2c2.7,1.5,2.5,4-0.2,5.6c-3.1,1.5-6.5,1.5-9.6,0c-2.7-1.5-2.5-4,0.2-5.6
		C83.2,37.5,86.9,37.5,89.9,39.2z"/>
</g>
<g>
	<path class="st23" d="M75.7,47.7c2.7,1.7,2.5,4.4-0.2,6c-3.1,1.7-6.7,1.5-9.8,0c-2.7-1.7-2.5-4.4,0.2-6
		C69,45.9,72.8,45.9,75.7,47.7z"/>
	<path class="st24" d="M75.7,47.5c2.7,1.5,2.5,4-0.2,5.6c-3.1,1.5-6.5,1.5-9.6,0c-2.7-1.5-2.5-4,0.2-5.6
		C69.2,45.9,72.6,45.9,75.7,47.5z"/>
</g>
<g>
	<path class="st23" d="M77,31.3c2.7,1.7,2.5,4.4-0.2,6c-3.1,1.7-6.7,1.5-9.8,0c-2.7-1.7-2.5-4.4,0.2-6C70.3,29.6,74,29.6,77,31.3z"
		/>
	<path class="st24" d="M77,31.1c2.7,1.5,2.5,4-0.2,5.6c-3.1,1.5-6.5,1.5-9.6,0c-2.7-1.5-2.5-4,0.2-5.6C70.5,29.6,74,29.6,77,31.1z"
		/>
</g>
<g>
	<path class="st23" d="M62.4,40c2.7,1.7,2.5,4.4-0.2,6c-3.1,1.7-6.7,1.5-9.8,0c-2.7-1.7-2.5-4.4,0.2-6C55.7,38.2,59.3,38.2,62.4,40z
		"/>
	<path class="st24" d="M62.4,39.8c2.7,1.5,2.5,4-0.2,5.6c-3.1,1.5-6.5,1.5-9.6,0c-2.7-1.5-2.5-4,0.2-5.6
		C55.9,38.2,59.3,38.2,62.4,39.8z"/>
</g>
<path class="st25" d="M72.8,62.3c1.2-0.6,2.3-0.2,2.3,1c-0.2,1.3-1,2.5-2.3,3.3c-1.2,0.6-2.3,0.2-2.3-1
	C70.9,64.2,71.7,62.9,72.8,62.3z"/>
<path class="st26" d="M73.2,62.1c1.2-0.6,2.1-0.2,2.1,1c-0.2,1.3-1,2.5-2.1,3.3c-1.2,0.6-2.1,0.2-2.1-1C71.3,64.1,72,62.9,73.2,62.1
	z"/>
<polygon class="st27" points="73.2,64.1 73.2,64.1 73.2,62.5 73.4,62.3 "/>
<path class="st25" d="M79,58.9c1.2-0.8,2.3-0.2,2.3,1c-0.2,1.3-1,2.7-2.3,3.3c-1.2,0.6-2.3,0.2-2.3-1C76.9,60.8,77.6,59.6,79,58.9z"
	/>
<path class="st26" d="M79.2,58.7c1.2-0.6,2.1-0.2,2.1,1c-0.2,1.3-1,2.5-2.1,3.1c-1.2,0.6-2.1,0.2-2.1-1
	C77.4,60.6,78.2,59.4,79.2,58.7z"/>
<polygon class="st27" points="79.4,60.4 79.2,60.6 79.2,59 79.4,58.9 "/>
<path class="st25" d="M84.5,55.6c1.2-0.8,2.3-0.2,2.3,1c-0.2,1.3-1,2.7-2.3,3.3c-1.2,0.8-2.3,0.2-2.3-1
	C82.4,57.5,83.2,56.2,84.5,55.6z"/>
<path class="st26" d="M84.7,55.4c1.2-0.6,2.1-0.2,2.1,1c-0.2,1.3-1,2.5-2.1,3.3c-1.2,0.6-2.1,0.2-2.1-1C83,57.3,83.8,56.2,84.7,55.4
	z"/>
<polygon class="st27" points="84.9,57.3 84.7,57.3 84.7,55.8 84.9,55.6 "/>
<path class="st25" d="M89.7,52.7c1.2-0.8,2.3-0.2,2.3,1c-0.2,1.3-1,2.7-2.3,3.3c-1.2,0.8-2.3,0.2-2.3-1
	C87.6,54.6,88.6,53.3,89.7,52.7z"/>
<path class="st26" d="M90.1,52.5c1.2-0.6,2.1-0.2,2.1,1c-0.2,1.3-1,2.5-2.1,3.3c-1.2,0.6-2.1,0.2-2.1-1C88.2,54.4,89,53.3,90.1,52.5
	z"/>
<polygon class="st27" points="90.1,54.2 89.9,54.4 89.9,52.7 90.1,52.7 "/>
<path class="st25" d="M95.3,49.2c1.2-0.8,2.3-0.2,2.3,1c-0.2,1.3-1,2.7-2.3,3.5c-1.2,0.8-2.3,0.2-2.3-1C93.2,51.1,94.2,50,95.3,49.2
	z"/>
<path class="st26" d="M95.7,49.2c1.2-0.6,2.1-0.2,2.1,1c-0.2,1.3-1,2.5-2.1,3.3c-1.2,0.6-2.1,0.2-2.1-1C93.8,51.1,94.6,50,95.7,49.2
	z"/>
<polygon class="st27" points="95.9,51 95.7,51.1 95.7,49.4 95.9,49.4 "/>
<g>
	<polygon class="st28" points="87.4,93.7 104,84.1 104,69.3 87.4,78.9 	"/>
	<g>
		<g>
			<path class="st29" d="M90.3,89.5l16.6-9.6c-0.2,0.2-0.4,0.2-0.6,0l-16.6,9.6C89.9,89.7,90.1,89.7,90.3,89.5L90.3,89.5z"/>
		</g>
	</g>
	<g>
		<g>
			<path class="st29" d="M89.7,89.5l16.6-9.6c-0.6-0.4-0.8-1-0.8-1.5c0-0.2,0-0.4,0.2-0.6l-16.6,9.6C89,87.6,89,87.7,89,87.9
				C89,88.5,89.2,89.1,89.7,89.5z"/>
		</g>
	</g>
	<g>
		<g>
			<path class="st30" d="M89.7,87.6l16.6-9.6c-0.2-0.2-0.4-0.2-0.6,0l-16.6,9.6C89.4,87.4,89.6,87.4,89.7,87.6z"/>
		</g>
	</g>
	<g>
		<g>
			<path class="st30" d="M90.3,89.5l16.6-9.6c0.2-0.2,0.2-0.4,0.2-0.6c0-0.6-0.4-1.2-0.8-1.5l-16.6,9.6c0.6,0.4,0.8,1,0.8,1.5
				C90.5,89.3,90.5,89.5,90.3,89.5L90.3,89.5z"/>
		</g>
	</g>
	<path class="st31" d="M89.7,87.6c-0.4-0.2-0.8,0-0.8,0.6s0.4,1.2,0.8,1.5c0.4,0.2,0.8,0,0.8-0.6C90.5,88.3,90.1,87.9,89.7,87.6z"/>
	<polygon class="st28" points="87.4,77 104,67.3 104.2,60.4 87.4,70 	"/>
	<polygon class="st32" points="109,106.2 125.5,96.6 104,84.1 87.4,93.7 	"/>
	<polygon class="st33" points="109,91.4 125.5,81.6 104,69.3 87.4,78.9 	"/>
	<polygon class="st32" points="109,89.5 125.5,79.9 104,67.3 87.4,77 	"/>
	<g>
		<g>
			<path class="st29" d="M89.7,75.8l16.6-9.6c-0.6-0.4-0.8-1-0.8-1.5c0-0.2,0-0.4,0.2-0.6l-16.6,9.6C89,73.9,89,74.1,89,74.3
				C89,75,89.4,75.6,89.7,75.8L89.7,75.8z"/>
		</g>
	</g>
	<g>
		<g>
			<path class="st29" d="M90.3,76l16.6-9.6c-0.2,0.2-0.4,0.2-0.6,0L89.7,76C89.9,76,90.1,76,90.3,76z"/>
		</g>
	</g>
	<g>
		<g>
			<path class="st32" d="M110.3,109.5l16.6-9.6l0,0L110.3,109.5L110.3,109.5z"/>
		</g>
	</g>
	<g>
		<g>
			<path class="st30" d="M89.7,73.9l16.6-9.6c-0.2-0.2-0.4-0.2-0.6,0l-16.6,9.6C89.4,73.9,89.6,73.9,89.7,73.9z"/>
		</g>
	</g>
	<g>
		<g>
			<path class="st30" d="M90.3,76l16.6-9.6c0.2-0.2,0.2-0.4,0.2-0.6c0-0.6-0.4-1.2-0.8-1.5l-16.6,9.6c0.6,0.4,0.8,1,0.8,1.5
				C90.7,75.6,90.5,75.8,90.3,76z"/>
		</g>
	</g>
	<path class="st34" d="M109,89.5L87.4,77V70L109,82.5V89.5z M89.7,75.8c0.4,0.2,0.8,0,0.8-0.6s-0.4-1.2-0.8-1.5
		c-0.4-0.2-0.8,0-0.8,0.6C89,75,89.4,75.6,89.7,75.8z"/>
	<path class="st31" d="M89.7,73.9c-0.4-0.2-0.8,0-0.8,0.6s0.4,1.2,0.8,1.5c0.4,0.2,0.8,0,0.8-0.6S90.3,74.3,89.7,73.9z"/>
	<polygon class="st5" points="87.4,67.7 104.2,58.1 102.8,57.3 86.3,66.9 	"/>
	<polygon class="st3" points="87.4,68.1 104.2,58.5 104.2,58.1 87.4,67.7 	"/>
	<polygon class="st35" points="109,106.2 125.5,96.6 125.5,81.6 109,91.4 	"/>
	<path class="st34" d="M109,106.2L87.4,93.7V78.9L109,91.4V106.2z M89.7,89.5c0.4,0.2,0.8,0,0.8-0.6s-0.4-1.2-0.8-1.5
		c-0.4-0.2-0.8,0-0.8,0.6C89,88.5,89.2,89.1,89.7,89.5z"/>
	<polygon class="st33" points="109,82.5 125.7,72.9 104.2,60.4 87.4,70 	"/>
	<polygon class="st35" points="109,89.5 125.5,79.9 125.7,72.9 109,82.5 	"/>
	<polygon class="st36" points="109,80.6 125.7,71 104.2,58.5 87.4,68.1 	"/>
	<polygon class="st3" points="110.3,109.5 126.9,99.7 126.9,72.5 110.3,82.2 	"/>
	<polygon class="st3" points="110.3,82.2 126.9,72.5 126.9,71.8 110.3,81.4 	"/>
	<polygon class="st3" points="110.3,81.4 126.9,71.8 126.9,71.2 110.3,80.8 	"/>
	<path class="st37" d="M87.4,68.1L109,80.6V80l1.3,0.8v1.3v27.4c0,0.6-5.4-2.3-12.1-6.2c-6.7-3.9-12.1-7.3-12.1-7.7V68.1v-1.3
		l1.3,0.8L87.4,68.1z M87.4,93.7l21.6,12.5V91.4L87.4,78.9V93.7L87.4,93.7z M87.4,77L109,89.5v-6.9L87.4,70V77L87.4,77z"/>
	<polygon class="st5" points="110.3,80.8 126.9,71.2 125.7,70.4 109,80 	"/>
</g>
<polygon class="st38" points="161.2,67.7 161,109.3 189.4,125.7 189.3,84.1 "/>
<polygon class="st39" points="203.3,59.6 189.3,51.3 161.2,67.7 175.2,75.8 189.3,84.1 217.5,67.7 "/>
<path class="st40" d="M217.5,67.7l-28.1,16.4v41.6l28.1-16.4V67.7z"/>
<path class="st39" d="M174.8,87.9c-5.4-3.1-9.6-0.6-9.6,5.4c0.4,6.7,4,12.9,9.6,16.6c5.4,3.1,9.6,0.6,9.6-5.4
	C184.1,97.8,180.4,91.6,174.8,87.9z"/>
<path class="st41" d="M179.1,110.1c-1.3,0-2.5-0.4-3.7-1.2c-5.2-3.5-8.7-9.2-9-15.4c0-3.5,1.5-5.6,4-5.6c1.3,0,2.5,0.4,3.7,1.2
	c5.2,3.5,8.7,9.2,9,15.4C183.1,108.2,181.6,110.3,179.1,110.1L179.1,110.1z"/>
<path class="st42" d="M166.2,74.3c-1.3-0.8-2.3-0.2-2.3,1.3c0.2,1.5,1,3.1,2.3,3.9c1.3,0.8,2.3,0.2,2.3-1.3
	C168.3,76.6,167.5,75,166.2,74.3z"/>
<path class="st43" d="M170.6,78.1c-0.6-0.4-1.2,0-1.2,0.6c0,0.8,0.4,1.5,1.2,1.9c0.6,0.4,1.2,0,1.2-0.6
	C171.5,79.3,171.2,78.5,170.6,78.1z"/>
<path class="st44" d="M174,80.2c-0.6-0.4-1.2,0-1.2,0.6c0,0.8,0.4,1.5,1.2,1.9c0.6,0.4,1.2,0,1.2-0.6
	C175.2,81.4,174.6,80.6,174,80.2z"/>
<polygon class="st45" points="68.4,18.6 68.4,107.2 37.4,125.1 37.6,36.5 "/>
<polygon class="st6" points="22.2,9.7 37.6,0.9 68.4,18.6 53,27.6 37.6,36.5 6.8,18.6 "/>
<path class="st44" d="M6.6,107.2l30.8,17.7V36.3L6.8,18.6L6.6,107.2z"/>
<polygon class="st46" points="68.4,53.7 68.4,52.3 37.6,70.2 35.1,68.7 34.5,69.6 37.6,71.6 "/>
<polygon class="st46" points="35.3,124 35.5,35.4 66.3,17.4 65.1,16.9 34.5,34.4 34.3,34.6 34.1,123.2 "/>
<g>
	<polygon class="st47" points="39.7,57.1 41.6,56 43.6,57.1 41.6,58.3 	"/>
	<polygon class="st46" points="42.8,58.7 44.7,57.7 44.7,59 42.8,60.2 	"/>
	<polygon class="st46" points="42.8,48.1 44.7,46.9 44.7,57.7 42.8,58.7 	"/>
	<polygon class="st48" points="42.8,46.9 42.8,48.1 42.8,58.7 42.8,60.2 39.7,58.5 39.7,57.1 41.6,58.3 41.6,47.7 39.7,46.5 
		39.7,45.2 	"/>
	<polygon class="st46" points="42.8,46.9 44.7,45.9 44.7,46.9 42.8,48.1 	"/>
	<polygon class="st47" points="39.7,45.2 41.6,44 44.7,45.9 42.8,46.9 	"/>
</g>
<g>
	<polygon class="st47" points="39.7,89.1 41.6,87.9 43.6,89.1 41.6,90.3 	"/>
	<polygon class="st46" points="42.8,90.6 44.7,89.7 44.7,91 42.8,92.2 	"/>
	<polygon class="st46" points="42.8,80 44.7,78.9 44.7,89.7 42.8,90.6 	"/>
	<polygon class="st48" points="42.8,78.9 42.8,80 42.8,90.6 42.8,92.2 39.7,90.4 39.7,89.1 41.6,90.3 41.6,79.7 39.7,78.5 
		39.7,77.2 	"/>
	<polygon class="st46" points="42.8,78.9 44.7,77.9 44.7,78.9 42.8,80 	"/>
	<polygon class="st47" points="39.7,77.2 41.6,76 44.7,77.9 42.8,78.9 	"/>
</g>
<g>
	<g id="_Group_2">
		<g id="_Group_3">
			<g id="_Group_4">
				<g id="_Group_5">
					<g id="_Group_6">
						
							<linearGradient id="_Path__1_" gradientUnits="userSpaceOnUse" x1="119.7712" y1="58.4775" x2="119.7712" y2="64.6613" gradientTransform="matrix(1 0 0 1 0 66.3937)">
							<stop  offset="0" style="stop-color:#575756"/>
							<stop  offset="0.27" style="stop-color:#7B7B7A"/>
							<stop  offset="0.54" style="stop-color:#989898"/>
							<stop  offset="0.77" style="stop-color:#ABABAA"/>
							<stop  offset="0.94" style="stop-color:#B1B1B1"/>
						</linearGradient>
						<polygon id="_Path_" class="st49" points="120.5,125.1 120.2,130.9 119.2,130.5 119,124.2 						"/>
					</g>
					<g id="_Group_7">
						
							<linearGradient id="_Path_2_1_" gradientUnits="userSpaceOnUse" x1="121.0223" y1="58.7472" x2="121.0223" y2="61.2323" gradientTransform="matrix(1 0 0 1 0 66.3937)">
							<stop  offset="0" style="stop-color:#9C9B9B"/>
							<stop  offset="0.21" style="stop-color:#B6B5B5"/>
							<stop  offset="0.51" style="stop-color:#D3D3D3"/>
							<stop  offset="0.76" style="stop-color:#E6E5E5"/>
							<stop  offset="0.94" style="stop-color:#ECECEC"/>
						</linearGradient>
						<polygon id="_Path_2" class="st50" points="120.5,125.1 121.9,124.4 121.5,130.1 120.2,130.9 						"/>
					</g>
					<g id="_Group_8">
						<polygon id="_Path_3" class="st51" points="119,124.2 120.3,123.4 121.9,124.4 120.5,125.1 						"/>
					</g>
				</g>
			</g>
			<g id="_Group_9">
				<g id="_Group_10">
					<g id="_Group_11">
						
							<linearGradient id="_Path_4_1_" gradientUnits="userSpaceOnUse" x1="148.4495" y1="43.8366" x2="148.4495" y2="49.9241" gradientTransform="matrix(1 0 0 1 0 66.3937)">
							<stop  offset="0" style="stop-color:#575756"/>
							<stop  offset="0.27" style="stop-color:#7B7B7A"/>
							<stop  offset="0.54" style="stop-color:#989898"/>
							<stop  offset="0.77" style="stop-color:#ABABAA"/>
							<stop  offset="0.94" style="stop-color:#B1B1B1"/>
						</linearGradient>
						<polygon id="_Path_4" class="st52" points="149.2,111.3 148.8,117.2 147.9,116.6 147.7,110.3 						"/>
					</g>
					<g id="_Group_12">
						
							<linearGradient id="_Path_5_1_" gradientUnits="userSpaceOnUse" x1="149.7005" y1="44.1256" x2="149.7005" y2="50.2516" gradientTransform="matrix(1 0 0 1 0 66.3937)">
							<stop  offset="0" style="stop-color:#9C9B9B"/>
							<stop  offset="0.21" style="stop-color:#B6B5B5"/>
							<stop  offset="0.51" style="stop-color:#D3D3D3"/>
							<stop  offset="0.76" style="stop-color:#E6E5E5"/>
							<stop  offset="0.94" style="stop-color:#ECECEC"/>
						</linearGradient>
						<polygon id="_Path_5" class="st53" points="149.2,111.3 150.6,110.5 150.2,116.3 148.8,117.2 						"/>
					</g>
					<g id="_Group_13">
						<polygon id="_Path_6" class="st51" points="147.7,110.3 149,109.5 150.6,110.5 149.2,111.3 						"/>
					</g>
				</g>
			</g>
		</g>
		<g id="_Group_14">
			<g id="_Group_15">
				<g id="_Group_16">
					<g id="_Group_17">
						
							<linearGradient id="_Path_7_1_" gradientUnits="userSpaceOnUse" x1="104.566" y1="50.1553" x2="104.566" y2="56.3391" gradientTransform="matrix(1 0 0 1 0 66.3937)">
							<stop  offset="0" style="stop-color:#575756"/>
							<stop  offset="0.27" style="stop-color:#7B7B7A"/>
							<stop  offset="0.54" style="stop-color:#989898"/>
							<stop  offset="0.77" style="stop-color:#ABABAA"/>
							<stop  offset="0.94" style="stop-color:#B1B1B1"/>
						</linearGradient>
						<polygon id="_Path_7" class="st54" points="105.3,116.8 104.8,122.6 104,122.2 103.8,115.9 						"/>
					</g>
					<g id="_Group_18">
						
							<linearGradient id="_Path_8_1_" gradientUnits="userSpaceOnUse" x1="105.6245" y1="50.4443" x2="105.6245" y2="52.9101" gradientTransform="matrix(1 0 0 1 0 66.3937)">
							<stop  offset="0" style="stop-color:#9C9B9B"/>
							<stop  offset="0.21" style="stop-color:#B6B5B5"/>
							<stop  offset="0.51" style="stop-color:#D3D3D3"/>
							<stop  offset="0.76" style="stop-color:#E6E5E5"/>
							<stop  offset="0.94" style="stop-color:#ECECEC"/>
						</linearGradient>
						<polygon id="_Path_8" class="st55" points="105.3,116.8 106.5,116.1 106.1,121.8 104.8,122.6 						"/>
					</g>
					<g id="_Group_19">
						<polygon id="_Path_9" class="st51" points="103.8,115.9 105.1,115.1 106.5,116.1 105.3,116.8 						"/>
					</g>
				</g>
			</g>
			<g id="_Group_20">
				<g id="_Group_21">
					<g id="_Group_22">
						
							<linearGradient id="_Path_10_1_" gradientUnits="userSpaceOnUse" x1="133.2442" y1="35.5337" x2="133.2442" y2="41.602" gradientTransform="matrix(1 0 0 1 0 66.3937)">
							<stop  offset="0" style="stop-color:#575756"/>
							<stop  offset="0.27" style="stop-color:#7B7B7A"/>
							<stop  offset="0.54" style="stop-color:#989898"/>
							<stop  offset="0.77" style="stop-color:#ABABAA"/>
							<stop  offset="0.94" style="stop-color:#B1B1B1"/>
						</linearGradient>
						<polygon id="_Path_10" class="st56" points="134,103 133.4,108.7 132.7,108.4 132.5,102 						"/>
					</g>
					<g id="_Group_23">
						
							<linearGradient id="_Path_11_1_" gradientUnits="userSpaceOnUse" x1="134.399" y1="35.8227" x2="134.399" y2="41.9295" gradientTransform="matrix(1 0 0 1 0 66.3937)">
							<stop  offset="0" style="stop-color:#9C9B9B"/>
							<stop  offset="0.21" style="stop-color:#B6B5B5"/>
							<stop  offset="0.51" style="stop-color:#D3D3D3"/>
							<stop  offset="0.76" style="stop-color:#E6E5E5"/>
							<stop  offset="0.94" style="stop-color:#ECECEC"/>
						</linearGradient>
						<polygon id="_Path_11" class="st57" points="134,103 135.4,102.2 134.8,108 133.4,108.7 						"/>
					</g>
					<g id="_Group_24">
						<polygon id="_Path_12" class="st51" points="132.5,102 133.8,101.2 135.4,102.2 134,103 						"/>
					</g>
				</g>
			</g>
		</g>
	</g>
	<g id="_Group_25">
		
			<linearGradient id="_Path_13_1_" gradientUnits="userSpaceOnUse" x1="101.9098" y1="45.9172" x2="121.4842" y2="45.9172" gradientTransform="matrix(1 0 0 1 0 66.3937)">
			<stop  offset="0" style="stop-color:#AD845B"/>
			<stop  offset="4.000000e-02" style="stop-color:#B1875D"/>
			<stop  offset="0.25" style="stop-color:#C39466"/>
			<stop  offset="0.46" style="stop-color:#CE9B6B"/>
			<stop  offset="0.71" style="stop-color:#D29E6D"/>
		</linearGradient>
		<polygon id="_Path_13" class="st58" points="101.9,117.8 102.1,95.5 121.5,106.6 121.5,129.2 		"/>
		<polygon id="_Path_14" class="st59" points="103.8,107 103.8,99.1 119.8,108.4 119.6,116.1 		"/>
		<polygon id="_Path_15" class="st60" points="104.4,106.4 104.6,100.5 119,108.7 119,114.9 		"/>
		<polygon id="_Path_16" class="st59" points="103.8,116.3 103.8,108.6 119.8,117.8 119.6,125.5 		"/>
		<polygon id="_Path_17" class="st60" points="104.4,115.9 104.6,109.9 119,118.2 119,124.4 		"/>
		
			<linearGradient id="_Path_18_1_" gradientUnits="userSpaceOnUse" x1="101.9676" y1="25.8823" x2="151.5483" y2="25.8823" gradientTransform="matrix(1 0 0 1 0 66.3937)">
			<stop  offset="0" style="stop-color:#D0AB88"/>
			<stop  offset="0.94" style="stop-color:#F5C89D"/>
		</linearGradient>
		<polygon id="_Path_18" class="st61" points="102.1,95.5 132.1,77.9 151.5,89.3 121.5,106.6 		"/>
		
			<linearGradient id="_Path_19_1_" gradientUnits="userSpaceOnUse" x1="121.4265" y1="42.8349" x2="151.5483" y2="42.8349" gradientTransform="matrix(1 0 0 1 0 66.3937)">
			<stop  offset="3.000000e-02" style="stop-color:#90633F"/>
			<stop  offset="1" style="stop-color:#7D4926"/>
		</linearGradient>
		<polygon id="_Path_19" class="st62" points="121.5,106.6 151.5,89.3 151.5,111.6 121.5,129.2 		"/>
	</g>
	<g>
		<g>
			<polygon class="st63" points="110,103.5 110,108.6 109.4,108.9 109.4,103.9 			"/>
			<g>
				<g>
					<g>
						<defs>
							<path id="SVGID_3_" d="M109,109.3v-4.8c0-0.2,0.2-0.4,0.2-0.4v4.8C109.2,108.9,109,109.1,109,109.3z"/>
						</defs>
						<clipPath id="SVGID_4_">
							<use xlink:href="#SVGID_3_"  style="overflow:visible;"/>
						</clipPath>
						<g class="st64">
							<g>
								<polyline class="st65" points="109.4,103.9 109.4,108.9 109.4,108.9 109.4,103.9 109.4,103.9 								"/>
								<path class="st66" d="M109.4,103.9v5h-0.2L109.4,103.9L109.4,103.9"/>
								<path class="st67" d="M109.2,104.1v4.8l0,0V104.1L109.2,104.1"/>
								<path class="st68" d="M109.2,104.1v4.8l0,0V104.1L109.2,104.1"/>
								<path class="st69" d="M109.2,104.1L109.2,104.1"/>
								<path class="st70" d="M109.2,104.3L109.2,104.3"/>
								<path class="st71" d="M109,104.3L109,104.3"/>
								<polyline class="st72" points="109,104.3 109,109.3 109,109.3 109,104.3 109,104.3 								"/>
							</g>
						</g>
					</g>
				</g>
			</g>
			<g>
				<g>
					<g>
						<defs>
							<path id="SVGID_5_" d="M108.4,109.3v-4.8c0,0.4,0.2,0.6,0.4,0.8v4.8C108.6,109.7,108.4,109.5,108.4,109.3z"/>
						</defs>
						<clipPath id="SVGID_6_">
							<use xlink:href="#SVGID_5_"  style="overflow:visible;"/>
						</clipPath>
						<g class="st73">
							<g>
								<path class="st74" d="M108.8,105.1v4.8c-0.2-0.2-0.4-0.4-0.6-0.6v-4.8C108.4,104.7,108.4,104.9,108.8,105.1"/>
							</g>
						</g>
					</g>
				</g>
			</g>
			<polygon class="st63" points="114.2,106 114.2,110.9 113.6,111.3 113.6,106.4 			"/>
			<polygon class="st75" points="111.3,106.4 111.3,111.3 108.8,109.9 108.8,105.1 			"/>
			<path class="st76" d="M113,106.2l0.6-0.4l0.6,0.4l-0.6,0.4c-0.8,0.4-1.5,0.4-2.3,0l-2.5-1.5c-0.4-0.2-0.6-0.6-0.4-1
				c0-0.2,0.2-0.4,0.4-0.4l0.6-0.4l0.6,0.4l-0.6,0.4c-0.4,0.2-0.4,0.6,0,0.8l2.5,1.3C112.1,106.4,112.6,106.4,113,106.2z"/>
			<g id="_Group_26">
				<g>
					<g>
						<defs>
							<path id="SVGID_7_" d="M113,106.2l0.6-0.4l0.6,0.4l-0.6,0.4c-0.8,0.4-1.5,0.4-2.3,0l-2.5-1.5c-0.4-0.2-0.6-0.6-0.4-1
								c0-0.2,0.2-0.4,0.4-0.4l0.6-0.4l0.6,0.4l-0.6,0.4c-0.4,0.2-0.4,0.6,0,0.8l2.5,1.3C112.1,106.4,112.6,106.4,113,106.2z"/>
						</defs>
						<clipPath id="SVGID_8_">
							<use xlink:href="#SVGID_7_"  style="overflow:visible;"/>
						</clipPath>
						<g class="st77">
							<g>
								<g>
									<defs>
										<polyline id="SVGID_9_" points="113.6,106.4 113.6,106.4 113.2,106.6 113,106.6 112.6,106.6 112.5,106.6 112.1,106.6 
											111.9,106.6 111.5,106.6 111.3,106.4 108.8,105.1 108.6,104.9 108.4,104.7 108.4,104.5 108.4,104.3 108.4,104.1 
											108.4,103.9 108.6,103.9 108.8,103.7 109.6,103.4 110,103.5 109.4,103.9 109.2,104.1 109.2,104.1 109.2,104.3 109,104.3 
											109.2,104.5 109.2,104.5 109.2,104.7 109.4,104.7 111.7,106.2 111.9,106.2 112.1,106.2 112.3,106.2 112.5,106.2 
											112.6,106.2 112.8,106.2 112.8,106.2 113,106.2 113.6,105.9 114.2,106 113.6,106.4 										"/>
									</defs>
									<clipPath id="SVGID_10_">
										<use xlink:href="#SVGID_9_"  style="overflow:visible;"/>
									</clipPath>
									<g class="st78">
									</g>
								</g>
							</g>
						</g>
					</g>
					<g>
						<defs>
							<path id="SVGID_11_" d="M113,106.2l0.6-0.4l0.6,0.4l-0.6,0.4c-0.8,0.4-1.5,0.4-2.3,0l-2.5-1.5c-0.4-0.2-0.6-0.6-0.4-1
								c0-0.2,0.2-0.4,0.4-0.4l0.6-0.4l0.6,0.4l-0.6,0.4c-0.4,0.2-0.4,0.6,0,0.8l2.5,1.3C112.1,106.4,112.6,106.4,113,106.2z"/>
						</defs>
						<clipPath id="SVGID_12_">
							<use xlink:href="#SVGID_11_"  style="overflow:visible;"/>
						</clipPath>
						<g class="st79">
							<g>
								<g>
									<defs>
										<path id="SVGID_13_" d="M113.6,106.4v4.8c-0.8,0.4-1.5,0.4-2.3,0v-4.8C112.1,106.8,112.8,106.8,113.6,106.4z"/>
									</defs>
									<clipPath id="SVGID_14_">
										<use xlink:href="#SVGID_13_"  style="overflow:visible;"/>
									</clipPath>
									<g class="st80">
										<g>
											<path class="st65" d="M113.6,106.4v4.8l-0.4,0.2v-4.8L113.6,106.4"/>
											<path class="st66" d="M113.2,106.6v4.8h-0.4v-4.8H113.2"/>
											<path class="st67" d="M112.8,106.6v4.8h-0.2v-4.8H112.8"/>
											<path class="st68" d="M112.6,106.6v4.8h-0.2L112.6,106.6L112.6,106.6"/>
											<path class="st69" d="M112.5,106.6v4.8h-0.2L112.5,106.6L112.5,106.6"/>
											<path class="st70" d="M112.3,106.6v4.8h-0.2L112.3,106.6L112.3,106.6"/>
											<path class="st71" d="M112.3,106.6v4.8h-0.2L112.3,106.6L112.3,106.6"/>
											<path class="st72" d="M112.1,106.6v4.8h-0.2L112.1,106.6L112.1,106.6"/>
											<path class="st81" d="M111.9,106.6v4.8h-0.2L111.9,106.6L111.9,106.6"/>
											<path class="st82" d="M111.7,106.6v4.8h-0.2L111.7,106.6L111.7,106.6"/>
											<path class="st74" d="M111.5,106.6v4.8l-0.2-0.2v-4.8L111.5,106.6"/>
										</g>
									</g>
								</g>
							</g>
						</g>
					</g>
				</g>
			</g>
			<g>
				<g id="_Group_">
					<polygon class="st63" points="110,113.2 110,118 109.4,118.4 109.4,113.6 					"/>
					<g>
						<g>
							<g>
								<defs>
									<path id="SVGID_15_" d="M109,118.8v-4.8c0-0.2,0.2-0.4,0.2-0.4v4.8C109.2,118.4,109,118.6,109,118.8z"/>
								</defs>
								<clipPath id="SVGID_16_">
									<use xlink:href="#SVGID_15_"  style="overflow:visible;"/>
								</clipPath>
								<g class="st83">
									<g>
										<polyline class="st65" points="109.4,113.6 109.4,118.4 109.4,118.4 109.4,113.6 109.4,113.6 										"/>
										<path class="st66" d="M109.4,113.6v4.8h-0.2L109.4,113.6L109.4,113.6"/>
										<path class="st67" d="M109.2,113.6v4.8l0,0V113.6L109.2,113.6"/>
										<path class="st68" d="M109.2,113.6v5l0,0V113.6L109.2,113.6"/>
										<path class="st69" d="M109.2,113.8L109.2,113.8"/>
										<path class="st70" d="M109.2,113.8L109.2,113.8"/>
										<path class="st71" d="M109,113.8L109,113.8"/>
										<polyline class="st72" points="109,113.8 109,118.8 109,118.8 109,113.8 109,113.8 										"/>
									</g>
								</g>
							</g>
						</g>
					</g>
					<g>
						<g>
							<g>
								<defs>
									<path id="SVGID_17_" d="M108.4,118.8v-4.8c0,0.4,0.2,0.6,0.6,0.6v4.8C108.6,119.1,108.4,119,108.4,118.8z"/>
								</defs>
								<clipPath id="SVGID_18_">
									<use xlink:href="#SVGID_17_"  style="overflow:visible;"/>
								</clipPath>
								<g class="st84">
									<g>
										<path class="st74" d="M108.8,114.5v4.8c-0.2-0.2-0.4-0.4-0.6-0.6v-5C108.4,114.1,108.6,114.3,108.8,114.5"/>
									</g>
								</g>
							</g>
						</g>
					</g>
					<polygon class="st75" points="111.3,115.9 111.3,120.9 108.8,119.3 108.8,114.5 					"/>
					<polygon class="st63" points="114.2,115.5 114.2,120.5 113.6,120.9 113.6,115.9 					"/>
					<path class="st76" d="M113,115.7l0.6-0.4l0.6,0.4l-0.6,0.4c-0.8,0.4-1.5,0.4-2.3,0l-2.5-1.5c-0.6-0.4-0.6-1,0-1.3l0.6-0.4
						l0.6,0.4l-0.6,0.4c-0.4,0.2-0.4,0.6,0,0.8l2.5,1.3C112.1,115.9,112.6,115.9,113,115.7z"/>
					<g id="_Group_27">
						<g>
							<g>
								<defs>
									<path id="SVGID_19_" d="M113,115.7l0.6-0.4l0.6,0.4l-0.6,0.4c-0.8,0.4-1.5,0.4-2.3,0l-2.5-1.5c-0.6-0.4-0.6-1,0-1.3
										l0.6-0.4l0.6,0.4l-0.6,0.4c-0.4,0.2-0.4,0.6,0,0.8l2.5,1.3C112.1,115.9,112.6,115.9,113,115.7z"/>
								</defs>
								<clipPath id="SVGID_20_">
									<use xlink:href="#SVGID_19_"  style="overflow:visible;"/>
								</clipPath>
								<g class="st85">
									<g>
										<g>
											<defs>
												<polyline id="SVGID_21_" points="113.6,115.9 113.2,116.1 113,116.1 112.6,116.1 112.5,116.3 112.1,116.1 111.9,116.1 
													111.5,116.1 111.3,115.9 108.8,114.5 108.8,114.5 108.6,114.3 108.4,114.1 108.4,113.9 108.4,113.8 108.4,113.8 
													108.4,113.6 108.6,113.4 108.8,113.2 109.4,112.8 110,113.2 109.4,113.6 109.2,113.6 109.2,113.6 109.2,113.8 
													109,113.8 109.2,113.9 109.2,113.9 109.2,114.1 109.4,114.1 111.7,115.7 111.9,115.7 112.1,115.7 112.3,115.7 
													112.5,115.9 112.6,115.7 112.6,115.7 112.8,115.7 113,115.7 113.6,115.3 114.2,115.5 113.6,115.9 												"/>
											</defs>
											<clipPath id="SVGID_22_">
												<use xlink:href="#SVGID_21_"  style="overflow:visible;"/>
											</clipPath>
											<g class="st86">
											</g>
										</g>
									</g>
								</g>
							</g>
							<g>
								<defs>
									<path id="SVGID_23_" d="M113,115.7l0.6-0.4l0.6,0.4l-0.6,0.4c-0.8,0.4-1.5,0.4-2.3,0l-2.5-1.5c-0.6-0.4-0.6-1,0-1.3
										l0.6-0.4l0.6,0.4l-0.6,0.4c-0.4,0.2-0.4,0.6,0,0.8l2.5,1.3C112.1,115.9,112.6,115.9,113,115.7z"/>
								</defs>
								<clipPath id="SVGID_24_">
									<use xlink:href="#SVGID_23_"  style="overflow:visible;"/>
								</clipPath>
								<g class="st87">
									<g>
										<g>
											<defs>
												<path id="SVGID_25_" d="M113.6,115.9v4.8c-0.8,0.4-1.5,0.4-2.3,0v-4.8C112.1,116.3,112.8,116.3,113.6,115.9z"/>
											</defs>
											<clipPath id="SVGID_26_">
												<use xlink:href="#SVGID_25_"  style="overflow:visible;"/>
											</clipPath>
											<g class="st88">
												<g>
													<path class="st65" d="M113.6,115.9v4.8l-0.4,0.2v-5H113.6"/>
													<path class="st66" d="M113.2,116.1v4.8h-0.4v-4.8H113.2"/>
													<path class="st67" d="M112.8,116.1v4.8h-0.2v-4.8H112.8"/>
													<path class="st68" d="M112.6,116.3v4.8h-0.2L112.6,116.3L112.6,116.3"/>
													<path class="st69" d="M112.5,116.3v4.8h-0.2L112.5,116.3L112.5,116.3"/>
													<path class="st70" d="M112.3,116.3v4.8h-0.2L112.3,116.3L112.3,116.3"/>
													<path class="st71" d="M112.3,116.3v4.8h-0.2L112.3,116.3L112.3,116.3"/>
													<path class="st72" d="M112.1,116.1v4.8h-0.2L112.1,116.1L112.1,116.1"/>
													<path class="st81" d="M111.9,116.1v4.8h-0.2L111.9,116.1L111.9,116.1"/>
													<path class="st82" d="M111.7,116.1v4.8h-0.2L111.7,116.1L111.7,116.1"/>
													<path class="st74" d="M111.5,116.1v4.8l-0.2-0.2v-4.8L111.5,116.1"/>
												</g>
											</g>
										</g>
									</g>
								</g>
							</g>
						</g>
					</g>
				</g>
				<g>
					<polygon class="st17" points="152.3,138.6 133.4,127.6 133.2,110.7 152.1,121.7 					"/>
					<polygon class="st89" points="152.1,121.7 133.2,110.7 158.7,96 177.5,107 					"/>
					<polygon class="st19" points="177.5,107 177.7,124 152.3,138.6 152.1,121.7 					"/>
				</g>
				<polygon class="st26" points="169.6,113.2 153.5,122.6 153.5,135.9 169.6,126.5 				"/>
				<polygon class="st21" points="154,122.8 169,114.3 169,126.3 154,134.8 				"/>
				<polygon class="st26" points="176.9,109.3 170,113.2 170,116.3 176.9,112.2 				"/>
				<polygon class="st22" points="168.7,124 167.7,124.5 167.7,117.4 168.7,116.8 				"/>
				<path class="st26" d="M174,121.1c0.8-0.6,1.5-0.2,1.5,0.6c0,1-0.6,1.9-1.5,2.5c-0.8,0.6-1.5,0.2-1.5-0.6
					C172.7,122.4,173.3,121.5,174,121.1z"/>
				<polygon class="st90" points="174.2,122.4 174,122.4 174,121.3 174.2,121.1 				"/>
				<path class="st91" d="M171.4,117.4c0.4-0.2,0.8,0,0.8,0.4c0,0.4-0.4,0.8-0.8,1.2c-0.4,0.2-0.8,0-0.8-0.4
					C170.6,118,171,117.6,171.4,117.4z"/>
				<path class="st91" d="M173.5,116.1c0.4-0.2,0.8,0,0.8,0.4c0,0.4-0.4,0.8-0.8,1.2c-0.4,0.2-0.8,0-0.8-0.4
					C172.9,116.6,173.1,116.3,173.5,116.1z"/>
				<path class="st91" d="M175.6,114.7c0.4-0.2,0.8,0,0.8,0.4s-0.4,0.8-0.8,1.2c-0.4,0.2-0.8,0-0.8-0.4
					C175,115.3,175.2,114.9,175.6,114.7z"/>
				<path class="st91" d="M171.4,120.1c0.4-0.2,0.8,0,0.8,0.4c0,0.4-0.4,0.8-0.8,1.2c-0.4,0.2-0.8,0-0.8-0.4
					C170.6,120.7,171,120.3,171.4,120.1z"/>
				<path class="st91" d="M173.5,118.8c0.4-0.2,0.8,0,0.8,0.4s-0.4,0.8-0.8,1.2c-0.4,0.2-0.8,0-0.8-0.4
					C172.9,119.5,173.1,119.1,173.5,118.8z"/>
				<path class="st91" d="M175.6,117.6c0.4-0.2,0.8,0,0.8,0.4s-0.4,0.8-0.8,1.2c-0.4,0.2-0.8,0-0.8-0.4
					C175,118.2,175.2,117.8,175.6,117.6z"/>
				<path class="st92" d="M204.8,95.6L204.8,95.6L204.8,95.6z"/>
				<path class="st92" d="M220,104.5L220,104.5L220,104.5z"/>
				<rect x="192.1" y="117.6" class="st93" width="1" height="6.7"/>
				
					<linearGradient id="SVGID_27_" gradientUnits="userSpaceOnUse" x1="2724.3318" y1="51.0222" x2="2730.876" y2="51.0222" gradientTransform="matrix(-1 0 0 1 2918.8977 66.3937)">
					<stop  offset="0" style="stop-color:#FFEBDC"/>
					<stop  offset="1" style="stop-color:#BFBCAF"/>
				</linearGradient>
				<polygon class="st94" points="188.1,116.8 192.1,119.3 194.6,117.8 190.4,115.5 				"/>
				<path class="st95" d="M209.7,90.3c0-0.4,0.2-1,0.8-1c0.4,0,1,0.2,1,0.8l0,0c0,0.8,0,1.5-0.4,2.3c-0.2,0.6-0.4,1.3-0.4,1.9
					c0.2,1.2,0.2,2.5,0,3.7c-0.2,1-0.2,1.7,0,2.7c0.2,1.2,0.6,2.3,1,3.3c0.4,0.8,1,1.5,1.5,2.3c0.4,0.4,0.2,1,0,1.2
					c-0.2,0.2-1,0.2-1.2,0c-0.8-0.8-1.3-1.7-1.7-2.7c-0.6-1.2-1-2.5-1.2-3.7c-0.2-1-0.2-2.1,0-3.1c0.2-1.2,0.2-2.1,0-3.3
					c0-1,0.2-1.9,0.6-2.7C209.5,91.2,209.7,90.6,209.7,90.3z"/>
				<path class="st93" d="M212.5,104.9c-1,0.6-1.5,1.7-1.7,2.9c0,1.2,0.8,1.5,1.7,1c1-0.6,1.5-1.7,1.7-2.9
					C214.1,104.7,213.3,104.3,212.5,104.9z"/>
				<path class="st96" d="M214.3,93.1c-7.5,4.8-12.3,13.1-12.7,22.2c0,8.1,5.8,11.4,12.7,7.3c7.5-4.8,12.3-13.1,12.7-22.2
					C227,92.4,221.2,89.1,214.3,93.1z M214.3,96c5.6-3.3,10.2-0.6,10.2,5.8c-0.4,7.1-4.2,13.7-10.2,17.5c-5.6,3.3-10.2,0.6-10.2-5.8
					C204.5,106.6,208.3,100.1,214.3,96z"/>
				
					<linearGradient id="SVGID_28_" gradientUnits="userSpaceOnUse" x1="-10320.0127" y1="52.1696" x2="-10313.9453" y2="17.8235" gradientTransform="matrix(1 0 0 1 10532.8701 66.3937)">
					<stop  offset="0" style="stop-color:#FFFFFF"/>
					<stop  offset="1" style="stop-color:#BFBCAF"/>
				</linearGradient>
				<path class="st97" d="M214.7,95.3c-6.7,4.4-11,11.8-11.4,19.6c0,7.3,5,10.2,11.4,6.5c6.7-4.4,11-11.8,11.4-19.6
					C226,94.5,221,91.6,214.7,95.3z M214.7,97.8c5-2.9,9-0.6,9,5.2c-0.4,6.4-3.7,12.1-9,15.8c-5,2.9-9,0.6-9-5.2
					C206,107.2,209.3,101.4,214.7,97.8z"/>
				<path class="st93" d="M215.4,93.9c-7.5,4.8-12.3,13.1-12.7,22.2c0,8.1,5.8,11.4,12.7,7.3c7.5-5,12.1-13.1,12.7-22
					C228.1,93.1,222.4,89.9,215.4,93.9L215.4,93.9z M215.4,96.8c5.6-3.3,10.2-0.6,10.2,5.8c-0.4,7.1-4.2,13.7-10.2,17.5
					c-5.6,3.3-10.2,0.6-10.2-5.8C205.8,107.2,209.5,100.7,215.4,96.8z"/>
				<path class="st98" d="M173.9,129.9c-0.2,0.4-0.8,0.6-1.2,0.4c-0.4-0.2-0.6-0.8-0.4-1.2l0,0l11.2-22.9c0.2-0.4,0.8-0.6,1.2-0.4
					c0.4,0.2,0.6,0.8,0.4,1.2l0,0L173.9,129.9z"/>
				<path class="st96" d="M175,115.9c-7.5,4.8-12.3,13.1-12.7,22c0,8.1,5.8,11.4,12.7,7.3c7.5-4.8,12.3-13.1,12.7-22
					C187.7,115.1,181.9,111.8,175,115.9L175,115.9z M175,118.8c5.6-3.3,10.2-0.6,10.2,5.8c-0.4,7.1-4.2,13.7-10.2,17.5
					c-5.6,3.3-10.2,0.6-10.2-5.8C165.2,129.4,168.9,122.8,175,118.8L175,118.8z"/>
				
					<linearGradient id="SVGID_29_" gradientUnits="userSpaceOnUse" x1="-10360.2695" y1="74.4117" x2="-10353.1982" y2="48.0222" gradientTransform="matrix(1 0 0 1 10532.8701 66.3937)">
					<stop  offset="0" style="stop-color:#FFEBDC"/>
					<stop  offset="1" style="stop-color:#BFBCAF"/>
				</linearGradient>
				<path class="st99" d="M175.2,118c-6.7,4.4-11,11.8-11.4,19.6c0,7.3,5,10.2,11.4,6.5c6.7-4.4,11-11.8,11.4-19.6
					C186.6,117.2,181.6,114.3,175.2,118L175.2,118z M175.2,120.7c5-2.9,9-0.6,9,5.2c-0.4,6.4-3.7,12.3-9,15.8c-5,2.9-9,0.6-9-5.2
					C166.5,129.9,169.8,124.2,175.2,120.7L175.2,120.7z"/>
				<path class="st100" d="M185.4,106.8c-0.6,0.4-1.3,0.4-1.9-0.2c-0.4-0.6-0.4-1.3,0.2-1.9l25.8-19.1c0.6-0.4,1.3-0.2,1.7,0.4
					c0.4,0.6,0.2,1.3-0.2,1.7L185.4,106.8z"/>
				<path class="st100" d="M180.8,99.3c-0.2-0.8,0.2-1.3,1-1.5c0.6-0.2,1.3,0.2,1.5,0.6l10.8,27c0.4,0.6,0,1.3-0.6,1.7
					c-0.6,0.4-1.3,0-1.7-0.6v-0.2L180.8,99.3z"/>
				<path class="st93" d="M176.2,116.6c-7.5,4.8-12.3,13.1-12.7,22c0,8.1,5.8,11.4,12.7,7.3c7.5-4.8,12.3-13.1,12.7-22
					C188.9,115.9,183.1,112.6,176.2,116.6z M176.2,119.5c5.6-3.3,10.2-0.6,10.2,5.8c-0.4,7.1-4.2,13.7-10.2,17.7
					c-5.6,3.3-10.2,0.6-10.2-5.8C166.3,130.1,170.2,123.6,176.2,119.5L176.2,119.5z"/>
				<path class="st93" d="M176.2,128.6c-1.3,1-2.3,2.5-2.5,4.2c0,1.5,1.2,2.1,2.5,1.3c1.3-1,2.3-2.5,2.5-4.2
					C178.7,128.4,177.5,127.6,176.2,128.6z"/>
				<path class="st93" d="M173.7,127c-1.3,1-2.3,2.5-2.5,4.2c0,1.5,1.2,2.1,2.5,1.3c1.3-1,2.3-2.5,2.5-4.2
					C176.2,126.9,175,126.3,173.7,127z"/>
				<path class="st100" d="M208.7,81.4c-0.2-0.8,0.4-1.3,1.2-1.5c0.8-0.2,1.3,0.4,1.5,1.2v0.2l1,10.4c0.2,0.8-0.4,1.3-1.2,1.5
					c-0.8,0.2-1.3-0.4-1.5-1.2v-0.2L208.7,81.4z"/>
				<path class="st100" d="M210.4,91c0-0.4,0.2-1,0.8-1c0.4,0,1,0.2,1,0.8l0,0c0.2,0.8,0.4,1.5,0.8,2.1c0.6,1.2,1,2.3,1.2,3.7
					c0.2,1.2,0.2,2.5,0,3.7c-0.2,1-0.2,1.7,0,2.7c0.2,1.2,0.6,2.3,1,3.3c0.4,0.8,1,1.5,1.5,2.3c0.4,0.4,0.2,1,0,1.2
					c-0.2,0.2-1,0.2-1.2,0c-0.8-0.8-1.3-1.7-1.7-2.7c-0.6-1.2-1-2.5-1.2-3.7c-0.2-1-0.2-2.1,0-3.1c0.2-1.2,0.2-2.1,0-3.3
					c-0.2-1.2-0.6-2.1-1.2-3.1C211,92.6,210.6,91.8,210.4,91z"/>
				<path class="st93" d="M215.4,106.6c-1,0.6-1.5,1.7-1.7,2.9c0,1.2,0.8,1.5,1.7,1s1.5-1.7,1.7-2.9
					C217.2,106.6,216.4,106,215.4,106.6z"/>
				<path class="st101" d="M198.7,72.9c-0.4-0.2-0.6-0.8-0.4-1.3c0.2-0.4,0.8-0.6,1.3-0.4l4.6,2.7c0.6,0.6,1.2,1.3,1.3,2.1
					c0.2,0.4,0.4,0.8,0.6,1.2l0,0l2.1,1.2l0,0l2.1,1.2l0,0l2.1,1.2l0,0l2.1,1.3c0.2,0.2-0.2-0.2-0.2-0.4l0,0
					c0.6-0.6,1.2-1.2,2.1-0.6l4.6,2.7c0.4,0.2,0.6,0.8,0.4,1.3c-0.2,0.4-0.8,0.6-1.3,0.4l0,0l-4.6-2.7c-0.2-0.2,0.2,0.2,0.2,0.4l0,0
					c-0.6,0.6-1.2,1.2-2.1,0.6l-2.1-1.2l0,0l-2.1-1.2l0,0l-2.1-1.2l0,0l-2.1-1.2l0,0c-0.6-0.6-1.2-1.3-1.3-2.1
					c-0.2-0.4-0.4-0.8-0.6-1.2L198.7,72.9z"/>
				<path class="st93" d="M220.8,85.4c-0.2,0-0.4,0-0.6-0.2l-4.6-2.7c-0.6-0.2-0.8-0.8-0.4-1.3c0.2-0.6,0.8-0.8,1.3-0.4
					c0,0,0.2,0,0.2,0.2l4.6,2.7c0.4,0.2,0.6,0.8,0.4,1.3C221.4,85.2,221,85.4,220.8,85.4z M203.7,75.6c-0.2,0-0.4,0-0.6-0.2
					l-4.6-2.7c-0.6-0.2-0.8-0.8-0.4-1.3c0.2-0.6,0.8-0.8,1.3-0.4c0,0,0.2,0,0.2,0.2l4.6,2.7c0.4,0.2,0.6,0.8,0.4,1.3
					C204.5,75.4,204.1,75.6,203.7,75.6z"/>
				<path class="st100" d="M176.9,131.7c-0.2,0.4-0.8,0.6-1.2,0.4c-0.4-0.2-0.6-0.8-0.4-1.2l10.2-22.2c0.2-0.4,0.8-0.6,1.2-0.4
					c0.4,0.2,0.6,0.8,0.4,1.2l0,0L176.9,131.7z"/>
				<path class="st100" d="M209.1,89.9c0.4-0.6,1.2-1,1.7-0.6c0.6,0.4,1,1.2,0.6,1.7l0,0l-17.5,35.3c-0.4,0.6-1.2,1-1.7,0.6
					s-1-1.2-0.6-1.7L209.1,89.9z"/>
				<path class="st93" d="M193.5,120.7c-1.9,1.2-2.9,3.3-3.1,5.4c0,1.7,1.2,2.7,2.7,2.1v2.9h1v-3.5c1.5-1.2,2.5-3.1,2.5-5
					C196.6,120.5,195.2,119.7,193.5,120.7z"/>
				
					<linearGradient id="SVGID_30_" gradientUnits="userSpaceOnUse" x1="-10337.3848" y1="63.6613" x2="-10336.4219" y2="77.4157" gradientTransform="matrix(1 0 0 1 10532.8701 66.3937)">
					<stop  offset="0" style="stop-color:#FFEBDC"/>
					<stop  offset="1" style="stop-color:#BFBCAF"/>
				</linearGradient>
				<polygon class="st102" points="192.3,131.3 196.6,133.6 198.9,132.2 194.8,129.7 				"/>
				<path class="st103" d="M180.8,99.3c-0.2-0.8,0.2-1.3,1-1.5c0.6-0.2,1.3,0.2,1.5,0.6l1.9,5c0.4,0.6,0,1.3-0.6,1.7
					c-0.6,0.4-1.3,0-1.7-0.6v-0.2L180.8,99.3z"/>
				<path class="st93" d="M184.2,101.2l4.2-5.4c0.4-0.8,0.4-1.7,0-2.5c-0.2-0.4-0.8-0.6-1.2-0.4L175.4,96c-1.3,0.4-1,2.9-0.2,3.3
					l5,2.9C181.6,103,183.3,102.6,184.2,101.2z"/>
				<path class="st96" d="M184.2,99.9l4.2-5.4c0.4-0.4,0.2-1.2-0.2-1.5c-0.2-0.2-0.6-0.2-1-0.2l-11.9,3.1c-0.6,0.2-1,0.8-0.8,1.3
					c0,0.2,0.2,0.4,0.4,0.6l5,2.9C181.6,101.6,183.3,101.2,184.2,99.9z"/>
				<polygon class="st104" points="67.2,135.1 98.8,117 98.8,80.6 67.2,98.7 				"/>
				<polygon class="st105" points="67.2,135.1 51.4,126.1 51.4,89.7 67.2,98.7 				"/>
				<polygon class="st106" points="98.8,80.6 83,71.6 51.4,89.7 56.6,92.8 67.2,98.7 				"/>
				<polygon class="st107" points="60.7,101 56.6,98.7 56.6,92.8 60.7,94.9 				"/>
				<polygon class="st108" points="92.1,76.8 88.2,74.5 56.6,92.8 60.7,94.9 				"/>
				<g>
					<path class="st109" d="M135.7,159c-0.6,0.4-0.4,0.8,0,1c0.6,0.2,1.2,0.2,1.7,0c0.6-0.4,0.4-0.8,0-1
						C136.9,158.8,136.3,158.8,135.7,159z"/>
					<path class="st109" d="M135.4,148.2c0-1.9,0-3.7,0-5.2l0,0l0,0l0,0l0,0l0,0l0,0l0.2-0.2c0.6-0.2,1.2-0.2,1.7,0l0.2,0.2l0,0l0,0
						l0,0l0,0l0,0l0,0l0,0v5.2c0,1.9,0,9.8,0,11.4c0,0.2-0.2,0.4-0.4,0.6c-0.6,0.2-1.2,0.2-1.7,0c-0.2,0-0.4-0.4-0.4-0.6
						L135.4,148.2z"/>
				</g>
				<g>
					<path class="st109" d="M149.6,166.9c-0.6,0.4-0.4,0.8,0,1c0.6,0.2,1.2,0.2,1.7,0c0.6-0.4,0.4-0.8,0-1
						C150.8,166.5,150.2,166.5,149.6,166.9z"/>
					<path class="st109" d="M149.2,156.1c0-1.9,0-3.7,0-5.2l0,0l0,0l0,0l0,0l0,0l0,0l0.2-0.2c0.6-0.2,1.2-0.2,1.7,0l0.2,0.2l0,0l0,0
						l0,0l0,0l0,0l0,0l0,0v5.2c0,1.9,0,9.8,0,11.4c0,0.2-0.2,0.4-0.4,0.6c-0.6,0.2-1.2,0.2-1.7,0c-0.2,0-0.4-0.4-0.4-0.6
						L149.2,156.1z"/>
				</g>
				<g>
					<path class="st109" d="M165.2,157.7c-0.6,0.4-0.4,0.8,0,1c0.6,0.2,1.2,0.2,1.7,0c0.6-0.4,0.4-0.8,0-1
						C166.3,157.3,165.8,157.3,165.2,157.7z"/>
					<path class="st109" d="M164.8,146.9c0-1.9,0-1,0-2.5l0,0l0,0l0,0l0,0l0,0l0,0l0.2-0.2c0.6-0.2,1.2-0.2,1.7,0l0.2,0.2l0,0l0,0
						l0,0l0,0l0,0l0,0l0,0v2.5c0,1.9,0,9.8,0,11.4c0,0.2-0.2,0.4-0.4,0.6c-0.6,0.2-1.2,0.2-1.7,0c-0.2,0-0.4-0.4-0.4-0.6
						L164.8,146.9z"/>
				</g>
				<g>
					<polygon class="st110" points="151.9,153.1 134.8,143 134.8,144.4 151.9,154.4 					"/>
					<polygon class="st59" points="168.9,143.2 151.7,133.2 134.8,143 151.9,153.1 					"/>
					<polygon class="st111" points="151.9,153.1 151.9,154.4 168.9,144.6 168.9,143.2 					"/>
				</g>
				<g>
					<polygon class="st110" points="135.9,120.1 134.8,119.3 134.8,143 135.9,143.8 					"/>
					<polygon class="st59" points="152.9,110.3 151.7,109.5 134.8,119.3 135.9,120.1 					"/>
					<polygon class="st112" points="135.9,120.1 135.9,143.8 152.9,134 152.9,110.3 					"/>
				</g>
				<g>
					<path class="st109" d="M158.3,172.9c-0.6,0.4-0.4,0.8,0,1c0.6,0.2,1.2,0.2,1.7,0c0.6-0.4,0.4-0.8,0-1
						C159.6,172.7,158.8,172.7,158.3,172.9z"/>
					<path class="st109" d="M158.1,162.1c0-1.9,0-3.7,0-5.2l0,0l0,0l0,0l0,0l0,0l0,0l0.2-0.2c0.6-0.2,1.2-0.2,1.7,0l0.2,0.2l0,0l0,0
						l0,0l0,0l0,0l0,0l0,0v5.2c0,1.9,0,9.8,0,11.4c0,0.2-0.2,0.4-0.4,0.6c-0.6,0.2-1.2,0.2-1.7,0c-0.2,0-0.4-0.4-0.4-0.6
						L158.1,162.1z"/>
				</g>
				<g>
					<path class="st109" d="M172.1,180.8c-0.6,0.4-0.4,0.8,0,1c0.6,0.2,1.2,0.2,1.7,0c0.6-0.4,0.4-0.8,0-1
						C173.5,180.4,172.7,180.4,172.1,180.8z"/>
					<path class="st109" d="M171.9,170c0-1.9,0-3.7,0-5.2l0,0l0,0l0,0l0,0l0,0l0,0l0.4-0.6c0.6-0.2,1.2-0.2,1.7,0l0.2,0.2l0,0l0,0
						l0,0l0,0l0,0l0,0l0,0v5.2c0,1.9,0,9.8,0,11.4c0,0.2-0.2,0.4-0.4,0.6c-0.6,0.2-1.2,0.2-1.7,0c-0.2,0-0.4-0.4-0.4-0.6L171.9,170z
						"/>
				</g>
				<g>
					<path class="st109" d="M187.9,171.5c-0.6,0.4-0.4,0.8,0,1c0.6,0.2,1.3,0.2,1.7,0c0.6-0.4,0.4-0.8,0-1
						C189.1,171.2,188.3,171.2,187.9,171.5z"/>
					<path class="st109" d="M187.5,160.8c0-1.9,0-1,0-2.5l0,0l0,0l0,0l0,0l0,0l0,0l0.2-0.2c0.6-0.2,1.2-0.2,1.7,0l0.2,0.2l0,0l0,0
						l0,0l0,0l0,0l0,0l0,0v2.5c0,1.9,0,9.8,0,11.4c0,0.2,0,0.4,0,0.4c-0.6,0.2-1.2,0.2-1.7,0c-0.2,0-0.4-0.4-0.4-0.6V160.8z"/>
				</g>
				<g>
					<polygon class="st110" points="174.4,166.9 157.3,156.9 157.3,158.3 174.4,168.3 					"/>
					<polygon class="st59" points="191.4,157.1 174.2,147.1 157.3,156.9 174.4,166.9 					"/>
					<polygon class="st111" points="174.4,166.9 174.4,168.3 191.4,158.4 191.4,157.1 					"/>
				</g>
				<g>
					<polygon class="st110" points="158.7,134 157.3,133.2 157.3,156.9 158.7,157.7 					"/>
					<polygon class="st59" points="175.6,124.2 174.2,123.4 157.3,133.2 158.7,134 					"/>
					<polygon class="st112" points="158.7,134 158.7,157.7 175.6,147.9 175.6,124.2 					"/>
				</g>
				<polygon class="st104" points="242.8,146.7 262.6,135.3 262.6,112.4 242.8,124 				"/>
				<polygon class="st105" points="242.8,146.7 222.9,135.3 222.9,112.4 242.8,124 				"/>
				<polygon class="st106" points="262.6,112.4 242.8,101 222.9,112.4 236.2,120.1 242.8,124 				"/>
				<polygon class="st107" points="233.7,122.4 231.2,121.1 231.2,117.2 233.7,118.6 				"/>
				<polygon class="st108" points="253.3,107.2 250.8,105.9 231.2,117.2 233.7,118.6 				"/>
				<polygon class="st104" points="242.8,121.3 262.6,109.9 262.6,87 242.8,98.5 				"/>
				<polygon class="st105" points="242.8,121.3 222.9,109.9 222.9,87 242.8,98.5 				"/>
				<polygon class="st106" points="262.6,87 242.8,75.6 222.9,87 236.2,94.7 242.8,98.5 				"/>
				<polygon class="st107" points="233.7,97 231.2,95.6 231.2,91.8 233.7,93.1 				"/>
				<polygon class="st108" points="253.3,81.8 250.8,80.4 231.2,91.8 233.7,93.1 				"/>
				<g id="_Group_28">
					
						<linearGradient id="_Path_20_1_" gradientUnits="userSpaceOnUse" x1="248.6117" y1="32.1432" x2="256.657" y2="32.1432" gradientTransform="matrix(1 0 0 1 0 66.3937)">
						<stop  offset="6.000000e-02" style="stop-color:#C6C6C5"/>
						<stop  offset="1" style="stop-color:#9C9B9B"/>
					</linearGradient>
					<polygon id="_Path_20" class="st113" points="248.5,97.8 256.6,93.1 256.6,99.1 248.5,103.9 					"/>
					<g id="_Group_29">
						<g id="_Group_30">
							<polygon id="_Path_21" class="st114" points="251,97.4 251,97.8 249.3,98.7 249.3,98.5 							"/>
						</g>
						<g id="_Group_31">
							<polygon id="_Path_22" class="st114" points="256,98.2 256,98.3 254.3,99.5 254.3,99.1 							"/>
						</g>
						<g id="_Group_32">
							<polygon id="_Path_23" class="st114" points="256,98.7 256,98.9 254.3,99.9 254.3,99.7 							"/>
						</g>
						<g id="_Group_33">
							<polygon id="_Path_24" class="st114" points="253.7,96.8 253.7,97 249.3,99.5 249.3,99.3 							"/>
						</g>
						<g id="_Group_34">
							<polygon id="_Path_25" class="st114" points="253.7,97.4 253.7,97.6 249.3,100.3 249.3,99.9 							"/>
						</g>
						<g id="_Group_35">
							<polygon id="_Path_26" class="st114" points="252.4,98.7 252.4,98.9 249.3,100.8 249.3,100.5 							"/>
						</g>
					</g>
				</g>
				<polygon class="st104" points="91.7,149.6 111.3,138.2 111.3,115.3 91.7,126.9 				"/>
				<polygon class="st105" points="91.7,149.6 71.8,138.2 71.8,115.3 91.7,126.9 				"/>
				<polygon class="st106" points="111.3,115.3 91.7,103.9 71.8,115.3 84.9,123 91.7,126.9 				"/>
				<polygon class="st107" points="82.4,125.3 79.9,124 79.9,120.1 82.4,121.5 				"/>
				<polygon class="st108" points="102.3,110.1 99.8,108.6 79.9,120.1 82.4,121.5 				"/>
				<g id="_Group_36">
					
						<linearGradient id="_Path_27_1_" gradientUnits="userSpaceOnUse" x1="97.4445" y1="60.3654" x2="105.4898" y2="60.3654" gradientTransform="matrix(1 0 0 1 0 66.3937)">
						<stop  offset="6.000000e-02" style="stop-color:#C6C6C5"/>
						<stop  offset="1" style="stop-color:#9C9B9B"/>
					</linearGradient>
					<polygon id="_Path_27" class="st115" points="97.4,126.1 105.5,121.3 105.5,127.4 97.4,132.2 					"/>
					<g id="_Group_37">
						<g id="_Group_38">
							<polygon id="_Path_28" class="st114" points="99.8,125.7 99.8,126.1 98,127 98,126.7 							"/>
						</g>
						<g id="_Group_39">
							<polygon id="_Path_29" class="st114" points="105,126.5 105,126.7 103.2,127.6 103.2,127.4 							"/>
						</g>
						<g id="_Group_40">
							<polygon id="_Path_30" class="st114" points="105,126.9 105,127.2 103.2,128.2 103.2,128 							"/>
						</g>
						<g id="_Group_41">
							<polygon id="_Path_31" class="st114" points="102.4,124.9 102.4,125.3 98,127.8 98,127.6 							"/>
						</g>
						<g id="_Group_42">
							<polygon id="_Path_32" class="st114" points="102.4,125.7 102.4,125.9 98,128.4 98,128.2 							"/>
						</g>
						<g id="_Group_43">
							<polygon id="_Path_33" class="st114" points="101.3,126.9 101.3,127.2 98,129 98,128.8 							"/>
						</g>
					</g>
				</g>
				<path class="st116" d="M190,148.2c0,6.2,8.5,11.2,19.1,11.2s19.1-5,19.1-11.2V139H190V148.2z"/>
				<ellipse class="st117" cx="209.1" cy="138.8" rx="19.1" ry="11.2"/>
				<ellipse class="st116" cx="209.1" cy="138.8" rx="12.1" ry="6.7"/>
				<path class="st116" d="M190,135.9c0,6.2,8.5,11.2,19.1,11.2s19.1-4.8,19.1-11.2v-9.2H190V135.9z"/>
				<ellipse class="st117" cx="209.1" cy="126.7" rx="19.1" ry="11.2"/>
				<ellipse class="st116" cx="209.1" cy="126.7" rx="12.1" ry="6.7"/>
				<path class="st116" d="M190,123.8c0,6.2,8.5,11.2,19.1,11.2s19.1-5,19.1-11.2v-9.2H190V123.8z"/>
				<ellipse class="st117" cx="209.1" cy="114.5" rx="19.1" ry="11.2"/>
				<ellipse class="st116" cx="209.1" cy="114.5" rx="12.1" ry="6.7"/>
				<path class="st116" d="M190,111.6c0,6.2,8.5,11.2,19.1,11.2s19.1-5,19.1-11.2v-9.2H190V111.6z"/>
				<ellipse class="st117" cx="209.1" cy="102.4" rx="19.1" ry="11.2"/>
				<ellipse class="st116" cx="209.1" cy="102.4" rx="12.1" ry="6.7"/>
			</g>
		</g>
	</g>
</g>
</svg>
