<?xml version="1.0" encoding="utf-8"?>
<!-- Generator: Adobe Illustrator 23.0.0, SVG Export Plug-In . SVG Version: 6.00 Build 0)  -->
<svg version="1.1" id="Layer_1" xmlns="http://www.w3.org/2000/svg" xmlns:xlink="http://www.w3.org/1999/xlink" x="0px" y="0px"
	 width="292px" height="140.9px" viewBox="0 0 292 140.9" style="enable-background:new 0 0 292 140.9;" xml:space="preserve">
<style type="text/css">
	.st0{fill:none;stroke:#FFD29C;stroke-width:1.0011;stroke-miterlimit:10;}
	.st1{fill:url(#SVGID_1_);stroke:#8FC0E4;stroke-width:0.7622;stroke-miterlimit:10;}
	.st2{fill:none;stroke:#8FC0E4;stroke-width:0.7622;stroke-miterlimit:10;}
	.st3{fill:url(#SVGID_2_);stroke:#8FC0E4;stroke-width:0.7622;stroke-miterlimit:10;}
	.st4{fill:url(#SVGID_3_);stroke:#8FC0E4;stroke-width:0.7622;stroke-miterlimit:10;}
	.st5{fill:url(#SVGID_4_);stroke:#8FC0E4;stroke-width:0.7622;stroke-miterlimit:10;}
</style>
<line class="st0" x1="292" y1="140.4" x2="0" y2="140.4"/>
<g>
	
		<linearGradient id="SVGID_1_" gradientUnits="userSpaceOnUse" x1="4501.1465" y1="12709.1904" x2="4596.9404" y2="12709.1904" gradientTransform="matrix(-1 0 0 1 4654.2959 -12593.498)">
		<stop  offset="0" style="stop-color:#303030"/>
		<stop  offset="0.5113" style="stop-color:#515151"/>
		<stop  offset="1" style="stop-color:#303030"/>
	</linearGradient>
	<path class="st1" d="M52.7,116.9c0,0,0-12.9,0-15.8c0-3,2.8-8.4,12.3-8.4s38.7,0,38.7,0s31.4,0,41,0c9.6,0,12.3,5.6,12.3,8.4
		c0,2.8,0,15.8,0,15.8s0,10.5,0,13.5c0,3-2.8,8.4-12.3,8.4c-9.5,0-41,0-41,0s-29.1,0-38.7,0s-12.3-5.6-12.3-8.4
		C52.7,127.4,52.7,116.9,52.7,116.9z"/>
	<line class="st2" x1="52.7" y1="113.6" x2="156.9" y2="113.6"/>
	<line class="st2" x1="52.7" y1="107" x2="156.9" y2="107"/>
	<line class="st2" x1="52.7" y1="117.9" x2="156.9" y2="117.9"/>
	<line class="st2" x1="52.7" y1="124.6" x2="156.9" y2="124.6"/>
	<line class="st2" x1="58.5" y1="137.7" x2="64.5" y2="131.5"/>
	<line class="st2" x1="68.5" y1="138.8" x2="75.5" y2="131.5"/>
	<line class="st2" x1="79.4" y1="138.8" x2="86.4" y2="131.5"/>
	<line class="st2" x1="90.4" y1="138.8" x2="97.5" y2="131.5"/>
	<line class="st2" x1="101.3" y1="138.8" x2="108.5" y2="131.5"/>
	<line class="st2" x1="112.3" y1="138.8" x2="119.4" y2="131.5"/>
	<line class="st2" x1="123.2" y1="138.8" x2="130.4" y2="131.5"/>
	<line class="st2" x1="134.2" y1="138.8" x2="141.3" y2="131.5"/>
	<line class="st2" x1="145.1" y1="138.8" x2="152.3" y2="131.5"/>
	<line class="st2" x1="58.5" y1="93.8" x2="64.5" y2="99.9"/>
	<line class="st2" x1="68.5" y1="92.6" x2="75.5" y2="99.9"/>
	<line class="st2" x1="79.4" y1="92.6" x2="86.4" y2="99.9"/>
	<line class="st2" x1="90.4" y1="92.6" x2="97.5" y2="99.9"/>
	<line class="st2" x1="101.3" y1="92.6" x2="108.5" y2="99.9"/>
	<line class="st2" x1="112.3" y1="92.6" x2="119.4" y2="99.9"/>
	<line class="st2" x1="123.2" y1="92.6" x2="130.4" y2="99.9"/>
	<line class="st2" x1="134.2" y1="92.6" x2="141.3" y2="99.9"/>
	<line class="st2" x1="145.1" y1="92.6" x2="152.3" y2="99.9"/>
	
		<linearGradient id="SVGID_2_" gradientUnits="userSpaceOnUse" x1="4501.1465" y1="12616.9414" x2="4596.9404" y2="12616.9414" gradientTransform="matrix(-1 0 0 1 4654.2959 -12593.498)">
		<stop  offset="0" style="stop-color:#303030"/>
		<stop  offset="0.5113" style="stop-color:#515151"/>
		<stop  offset="1" style="stop-color:#303030"/>
	</linearGradient>
	<path class="st3" d="M52.7,24.6c0,0,0-12.9,0-15.8S55.5,0.4,65,0.4s38.7,0,38.7,0s31.4,0,41,0c9.6,0,12.3,5.6,12.3,8.4
		s0,15.8,0,15.8s0,10.5,0,13.5s-2.8,8.4-12.3,8.4c-9.5,0-41,0-41,0s-29.1,0-38.7,0s-12.3-5.6-12.3-8.4S52.7,24.6,52.7,24.6z"/>
	<line class="st2" x1="52.7" y1="21.4" x2="156.9" y2="21.4"/>
	<line class="st2" x1="52.7" y1="14.7" x2="156.9" y2="14.7"/>
	<line class="st2" x1="52.7" y1="25.7" x2="156.9" y2="25.7"/>
	<line class="st2" x1="52.7" y1="32.3" x2="156.9" y2="32.3"/>
	<line class="st2" x1="58.5" y1="45.5" x2="64.5" y2="39.4"/>
	<line class="st2" x1="68.5" y1="46.5" x2="75.5" y2="39.4"/>
	<line class="st2" x1="79.4" y1="46.5" x2="86.4" y2="39.4"/>
	<line class="st2" x1="90.4" y1="46.5" x2="97.5" y2="39.4"/>
	<line class="st2" x1="101.3" y1="46.5" x2="108.5" y2="39.4"/>
	<line class="st2" x1="112.3" y1="46.5" x2="119.4" y2="39.4"/>
	<line class="st2" x1="123.2" y1="46.5" x2="130.4" y2="39.4"/>
	<line class="st2" x1="134.2" y1="46.5" x2="141.3" y2="39.4"/>
	<line class="st2" x1="145.1" y1="46.5" x2="152.3" y2="39.4"/>
	<line class="st2" x1="58.5" y1="1.6" x2="64.5" y2="7.6"/>
	<line class="st2" x1="68.5" y1="0.5" x2="75.5" y2="7.6"/>
	<line class="st2" x1="79.4" y1="0.5" x2="86.4" y2="7.6"/>
	<line class="st2" x1="90.4" y1="0.5" x2="97.5" y2="7.6"/>
	<line class="st2" x1="101.3" y1="0.5" x2="108.5" y2="7.6"/>
	<line class="st2" x1="112.3" y1="0.5" x2="119.4" y2="7.6"/>
	<line class="st2" x1="123.2" y1="0.5" x2="130.4" y2="7.6"/>
	<line class="st2" x1="134.2" y1="0.5" x2="141.3" y2="7.6"/>
	<line class="st2" x1="145.1" y1="0.5" x2="152.3" y2="7.6"/>
	
		<linearGradient id="SVGID_3_" gradientUnits="userSpaceOnUse" x1="-4425.4644" y1="14016.9512" x2="-4328.5425" y2="14016.9512" gradientTransform="matrix(-0.3853 -0.9228 -0.9228 0.3853 11450.3613 -9356.623)">
		<stop  offset="0" style="stop-color:#303030"/>
		<stop  offset="0.5113" style="stop-color:#515151"/>
		<stop  offset="1" style="stop-color:#303030"/>
	</linearGradient>
	<path class="st4" d="M180.3,33.5c0,0,11.7-4.9,14.3-6.1c2.6-1.2,8.8-0.7,12.4,8.3c3.7,9,14.9,36.2,14.9,36.2s12.1,29.3,15.8,38.3
		s-0.3,13.6-2.9,14.8c-2.6,1.2-14.3,6.1-14.3,6.1s-9.6,4.1-12.3,5.2c-2.6,1.2-8.8,0.7-12.4-8.3c-3.7-9-15.8-38.3-15.8-38.3
		s-11.2-27.2-14.9-36.2c-3.6-9,0.3-13.6,2.9-14.8C170.8,37.6,180.3,33.5,180.3,33.5z"/>
	<line class="st2" x1="183.4" y1="32.3" x2="223.5" y2="129.7"/>
	<line class="st2" x1="179.4" y1="33.9" x2="219.6" y2="131.4"/>
	<line class="st2" x1="173.4" y1="36.5" x2="213.6" y2="133.9"/>
	<line class="st2" x1="189.7" y1="29.7" x2="229.9" y2="127.2"/>
	<line class="st2" x1="163.7" y1="47.1" x2="171.6" y2="50.3"/>
	<line class="st2" x1="166.6" y1="56.7" x2="175.8" y2="60.6"/>
	<line class="st2" x1="170.7" y1="66.9" x2="180" y2="70.8"/>
	<line class="st2" x1="174.9" y1="77.3" x2="184.3" y2="81.1"/>
	<line class="st2" x1="179.1" y1="87.5" x2="188.5" y2="91.3"/>
	<line class="st2" x1="183.4" y1="97.7" x2="192.7" y2="101.5"/>
	<line class="st2" x1="187.6" y1="107.9" x2="197" y2="111.8"/>
	<line class="st2" x1="191.8" y1="118.2" x2="201.2" y2="122"/>
	<line class="st2" x1="196.1" y1="128.4" x2="205.4" y2="132.3"/>
	<line class="st2" x1="203.7" y1="30.1" x2="200.5" y2="38.1"/>
	<line class="st2" x1="208.5" y1="39" x2="204.7" y2="48.3"/>
	<line class="st2" x1="212.7" y1="49.2" x2="208.9" y2="58.6"/>
	<line class="st2" x1="217" y1="59.5" x2="213.2" y2="68.8"/>
	<line class="st2" x1="221.2" y1="69.7" x2="217.4" y2="79"/>
	<line class="st2" x1="225.4" y1="79.9" x2="221.6" y2="89.4"/>
	<line class="st2" x1="229.7" y1="90.1" x2="225.9" y2="99.6"/>
	<line class="st2" x1="233.9" y1="100.5" x2="230.1" y2="109.8"/>
	<line class="st2" x1="238.1" y1="110.7" x2="234.3" y2="120"/>
	
		<linearGradient id="SVGID_4_" gradientUnits="userSpaceOnUse" x1="4493.2363" y1="12663.0664" x2="4589.0303" y2="12663.0664" gradientTransform="matrix(-1 0 0 1 4654.2959 -12593.498)">
		<stop  offset="0" style="stop-color:#303030"/>
		<stop  offset="0.5113" style="stop-color:#515151"/>
		<stop  offset="1" style="stop-color:#303030"/>
	</linearGradient>
	<path class="st5" d="M60.6,70.8c0,0,0-12.9,0-15.8c0-3,2.8-8.4,12.3-8.4s38.7,0,38.7,0s31.4,0,41,0c9.6,0,12.3,5.6,12.3,8.4
		c0,3,0,15.8,0,15.8s0,10.5,0,13.5s-2.8,8.4-12.3,8.4c-9.5,0-41,0-41,0s-29.1,0-38.7,0s-12.3-5.5-12.3-8.4
		C60.6,81.4,60.6,70.8,60.6,70.8z"/>
	<line class="st2" x1="60.6" y1="67.5" x2="164.8" y2="67.5"/>
	<line class="st2" x1="60.6" y1="60.8" x2="164.8" y2="60.8"/>
	<line class="st2" x1="60.6" y1="71.8" x2="164.8" y2="71.8"/>
	<line class="st2" x1="60.6" y1="78.4" x2="164.8" y2="78.4"/>
	<line class="st2" x1="66.4" y1="91.6" x2="72.4" y2="85.5"/>
	<line class="st2" x1="76.4" y1="92.6" x2="83.5" y2="85.5"/>
	<line class="st2" x1="87.3" y1="92.6" x2="94.5" y2="85.5"/>
	<line class="st2" x1="98.3" y1="92.6" x2="105.4" y2="85.5"/>
	<line class="st2" x1="109.2" y1="92.6" x2="116.4" y2="85.5"/>
	<line class="st2" x1="120.2" y1="92.6" x2="127.3" y2="85.5"/>
	<line class="st2" x1="131.1" y1="92.6" x2="138.3" y2="85.5"/>
	<line class="st2" x1="142.1" y1="92.6" x2="149.2" y2="85.5"/>
	<line class="st2" x1="153.2" y1="92.6" x2="160.2" y2="85.5"/>
	<line class="st2" x1="66.4" y1="47.7" x2="72.4" y2="53.7"/>
	<line class="st2" x1="76.4" y1="46.7" x2="83.5" y2="53.7"/>
	<line class="st2" x1="87.3" y1="46.7" x2="94.5" y2="53.7"/>
	<line class="st2" x1="98.3" y1="46.7" x2="105.4" y2="53.7"/>
	<line class="st2" x1="109.2" y1="46.7" x2="116.4" y2="53.7"/>
	<line class="st2" x1="120.2" y1="46.7" x2="127.3" y2="53.7"/>
	<line class="st2" x1="131.1" y1="46.7" x2="138.3" y2="53.7"/>
	<line class="st2" x1="142.1" y1="46.7" x2="149.2" y2="53.7"/>
	<line class="st2" x1="153.2" y1="46.7" x2="160.2" y2="53.7"/>
</g>
</svg>
