<?xml version="1.0" encoding="utf-8"?>
<!-- Generator: Adobe Illustrator 23.0.0, SVG Export Plug-In . SVG Version: 6.00 Build 0)  -->
<svg version="1.1" id="Layer_1" xmlns="http://www.w3.org/2000/svg" xmlns:xlink="http://www.w3.org/1999/xlink" x="0px" y="0px"
	 width="239.6px" height="213.4px" viewBox="0 0 239.6 213.4" style="enable-background:new 0 0 239.6 213.4;" xml:space="preserve"
	>
<style type="text/css">
	.st0{fill:#EAE9E4;stroke:#FFFFFF;stroke-miterlimit:10;}
	.st1{fill:url(#SVGID_1_);stroke:#FFFFFF;stroke-miterlimit:10;}
	.st2{fill:url(#SVGID_2_);stroke:#FFFFFF;stroke-miterlimit:10;}
	.st3{fill:#656A69;}
	.st4{fill:#231F20;}
	.st5{fill:url(#SVGID_3_);}
	.st6{fill:#FFEDC0;stroke:#FBBC05;stroke-miterlimit:10;}
	.st7{fill:#414042;}
	.st8{fill:url(#SVGID_4_);}
	.st9{fill:url(#SVGID_5_);}
	.st10{fill:#FBBC05;}
	.st11{fill:#C9C9C6;}
	.st12{fill:url(#SVGID_6_);}
	.st13{fill:#292320;}
	.st14{fill:#413833;}
	.st15{fill:#E4B185;}
	.st16{fill:#B38A68;}
	.st17{fill:#CD9F78;}
	.st18{fill:#998458;}
	.st19{fill:#B29867;}
	.st20{fill:url(#_Path__1_);}
	.st21{fill:#9C9B9B;}
	.st22{fill:url(#_Path_8_1_);}
</style>
<title>Artboard 5@2x</title>
<polygon class="st0" points="160,212.9 80.6,167.3 159.2,123 238.6,168.8 "/>
<polygon class="st0" points="80.6,167.3 1,121.7 79.7,77.5 159.2,123 "/>
<linearGradient id="SVGID_1_" gradientUnits="userSpaceOnUse" x1="173.4171" y1="-14.146" x2="131.2326" y2="57.5753" gradientTransform="matrix(1 0 0 1 0 74.3937)">
	<stop  offset="0" style="stop-color:#EAE9E4;stop-opacity:0"/>
	<stop  offset="1" style="stop-color:#EAE9E4"/>
</linearGradient>
<polygon class="st1" points="238.3,92 79.3,0.9 79.7,77.5 238.6,168.8 "/>
<linearGradient id="SVGID_2_" gradientUnits="userSpaceOnUse" x1="27.405" y1="-36.1673" x2="66.1208" y2="33.9151" gradientTransform="matrix(1 0 0 1 0 74.3937)">
	<stop  offset="0" style="stop-color:#EAE9E4;stop-opacity:0"/>
	<stop  offset="1" style="stop-color:#EAE9E4"/>
</linearGradient>
<polygon class="st2" points="0.6,44.9 79.3,0.9 79.7,77.5 1,121.7 "/>
<path class="st3" d="M125.7,75.9L125.7,75.9L125.7,75.9z"/>
<path class="st3" d="M100.8,90.3L100.8,90.3L100.8,90.3z"/>
<rect x="144.5" y="111.7" class="st4" width="1.5" height="11"/>
<linearGradient id="SVGID_3_" gradientUnits="userSpaceOnUse" x1="142.1343" y1="36.916" x2="152.7519" y2="36.916" gradientTransform="matrix(1 0 0 1 0 74.3937)">
	<stop  offset="0" style="stop-color:#FFEBDC"/>
	<stop  offset="1" style="stop-color:#BFBCAF"/>
</linearGradient>
<polygon class="st5" points="152.8,110.6 146,114.3 142.1,112.1 148.9,108.3 "/>
<path class="st6" d="M117.7,67.2c0-0.8-0.6-1.3-1.3-1.5c-0.6,0-1.1,0.4-1.3,0.9c-0.2,1.3,0.2,2.6,0.8,3.8c0.4,0.9,0.8,2.1,0.8,3.2
	c-0.2,1.9-0.2,4,0,5.9c0.2,1.3,0.2,2.8,0,4.3c-0.2,1.9-0.8,3.6-1.5,5.3c-0.6,1.3-1.5,2.6-2.5,3.6c-0.6,0.6-0.6,1.3,0,1.9
	c0.6,0.6,1.3,0.6,1.9,0l0.2-0.2c1.1-1.3,2.1-2.6,2.8-4.3c0.9-1.9,1.5-4,1.7-6.1c0.2-1.7,0.2-3.4,0-4.9c-0.2-1.7-0.2-3.6,0-5.3
	c0-1.5-0.2-3-0.8-4.5C118.1,68.8,117.9,68,117.7,67.2z"/>
<path class="st4" d="M113.2,91.1c1.7,1.1,2.6,2.8,2.8,4.7c0,1.7-1.3,2.5-2.8,1.5c-1.7-1.1-2.6-2.8-2.8-4.7
	C110.4,90.9,111.7,90.1,113.2,91.1z"/>
<path class="st7" d="M110.2,72c-11.3-6.6-20.6-1.3-20.6,11.9s9.2,29.1,20.6,35.7c11.3,6.6,20.6,1.3,20.6-11.9S121.7,78.6,110.2,72z
	 M126.6,105.3c0,10.6-7.4,14.8-16.4,9.5c-9.1-5.3-16.4-18-16.4-28.6s7.4-14.8,16.4-9.5S126.6,94.9,126.6,105.3L126.6,105.3z"/>
<linearGradient id="SVGID_4_" gradientUnits="userSpaceOnUse" x1="-8402.8037" y1="38.8087" x2="-8392.9717" y2="-16.8942" gradientTransform="matrix(-1 0 0 1 -8290.0576 74.3937)">
	<stop  offset="0" style="stop-color:#FFFFFF"/>
	<stop  offset="1" style="stop-color:#BFBCAF"/>
</linearGradient>
<path class="st8" d="M109.8,75.4C99.6,69.5,91.3,74.2,91.3,86s8.3,26.1,18.5,32c10.2,5.9,18.5,1.1,18.5-10.6S119.8,81.2,109.8,75.4z
	 M124.4,105.1c0,9.5-6.6,13.2-14.7,8.5C101,107.9,95.5,98.4,94.9,88c0-9.5,6.6-13.2,14.7-8.5C118.5,85.2,123.8,94.7,124.4,105.1z"/>
<path class="st4" d="M108.3,73.1C97,66.5,87.8,71.8,87.8,85s9.2,29.1,20.6,35.7c11.3,6.6,20.6,1.3,20.6-11.9S119.6,79.7,108.3,73.1z
	 M124.7,106.6c0,10.6-7.4,14.8-16.4,9.5c-9.1-5.3-16.4-18-16.4-28.6s7.4-14.8,16.4-9.5S124.7,96,124.7,106.6z"/>
<path class="st6" d="M175.6,131.5c0.4,0.8,1.1,0.9,1.9,0.6c0.8-0.4,0.9-1.1,0.6-1.9l0,0l-18.3-37.1c-0.4-0.8-1.1-0.9-1.9-0.6
	s-0.9,1.1-0.6,1.9L175.6,131.5z"/>
<path class="st7" d="M173.9,108.9c-11.3-6.6-20.6-1.3-20.6,11.9s9.2,29.1,20.6,35.7c11.3,6.6,20.6,1.3,20.6-11.9
	C194.5,131.4,185.3,115.5,173.9,108.9z M190.4,142.1c0,10.6-7.4,14.8-16.4,9.5c-9.1-5.3-16.4-18-16.4-28.4s7.4-14.8,16.4-9.5
	C183,119.1,190.4,131.7,190.4,142.1L190.4,142.1z"/>
<linearGradient id="SVGID_5_" gradientUnits="userSpaceOnUse" x1="-8467.665" y1="74.9508" x2="-8456.209" y2="32.167" gradientTransform="matrix(-1 0 0 1 -8290.0576 74.3937)">
	<stop  offset="0" style="stop-color:#FFEBDC"/>
	<stop  offset="1" style="stop-color:#BFBCAF"/>
</linearGradient>
<path class="st9" d="M173.4,112.3c-10.2-5.9-18.5-1.1-18.5,10.6c0,11.7,8.1,26.1,18.5,32c10.4,5.9,18.5,1.1,18.5-10.6
	C191.9,132.5,183.6,118.1,173.4,112.3z M188.1,142.1c0,9.5-6.6,13.2-14.7,8.5c-8.7-5.7-14.1-15.1-14.7-25.5c0-9.5,6.6-13.2,14.7-8.5
	C182.1,122.3,187.5,131.7,188.1,142.1z"/>
<path class="st10" d="M157,94.1c0.9,0.8,2.3,0.6,3-0.4c0.8-0.9,0.6-2.3-0.4-3l-42.1-31c-0.9-0.8-2.3-0.6-3,0.4
	c-0.8,0.9-0.6,2.3,0.4,3L157,94.1z"/>
<path class="st10" d="M164.5,82c0.4-1.1-0.4-2.3-1.5-2.6c-0.9-0.4-2.1,0.2-2.5,1.1l-17.4,43.7c-0.4,1.1,0.2,2.3,1.1,2.8
	c0.9,0.6,2.3-0.2,2.8-1.1l0,0L164.5,82z"/>
<path class="st4" d="M171.9,110c-11.3-6.6-20.6-1.3-20.6,11.9s9.2,29.1,20.6,35.7c11.3,6.6,20.6,1.3,20.6-11.9
	C192.4,132.5,183.4,116.6,171.9,110z M188.3,143.5c0,10.6-7.4,14.8-16.4,9.5c-9.1-5.3-16.4-18-16.4-28.6s7.4-14.8,16.4-9.5
	C180.9,120.2,188.3,132.9,188.3,143.5L188.3,143.5z"/>
<path class="st4" d="M171.9,129.3c2.3,1.5,3.8,4,4,6.8c0,2.5-1.7,3.6-4,2.3c-2.3-1.5-3.8-4.2-4-7
	C168.1,129.1,169.8,128.1,171.9,129.3z"/>
<path class="st4" d="M175.8,127c2.3,1.5,3.8,4,4,6.8c0,2.5-1.7,3.6-4,2.3c-2.3-1.5-3.8-4-4-6.8C171.9,126.8,173.8,125.9,175.8,127z"
	/>
<path class="st10" d="M119.3,53.1c0.2-1.1-0.8-2.3-1.9-2.3c-1.1-0.2-2.3,0.8-2.3,1.9l0,0l-1.7,17c-0.2,1.1,0.8,2.3,1.9,2.3
	c1.1,0.2,2.3-0.8,2.3-1.9L119.3,53.1z"/>
<path class="st10" d="M116.4,68.4c0.2-0.8-0.2-1.5-0.9-1.7c-0.8-0.2-1.5,0.2-1.7,0.9v0.2c-0.4,1.1-0.8,2.3-1.3,3.4
	c-0.9,1.9-1.5,3.8-2.1,5.9c-0.2,1.9-0.2,4,0,5.9c0.2,1.3,0.2,2.8,0,4.3c-0.2,1.9-0.8,3.6-1.5,5.3c-0.6,1.3-1.3,2.6-2.3,3.8
	c-0.6,0.6-0.6,1.3,0,1.9c0.6,0.6,1.3,0.6,1.9,0l0.2-0.2c1.1-1.3,2.1-2.6,2.8-4.3c0.8-1.9,1.5-4,1.7-6.1c0.2-1.7,0.2-3.4,0-4.9
	c-0.2-1.7-0.2-3.6,0-5.3c0.4-1.7,1.1-3.4,1.9-5.1C115.7,71.2,116.2,69.9,116.4,68.4z"/>
<path class="st4" d="M108.3,93.9c1.7,1.1,2.6,2.8,2.8,4.7c0,1.7-1.3,2.5-2.8,1.5c-1.7-1.1-2.6-2.8-2.8-4.7
	C105.5,93.7,106.8,93,108.3,93.9z"/>
<path class="st11" d="M135.5,39.3c0.8-0.4,1.1-1.3,0.8-2.1c-0.4-0.8-1.3-1.1-2.1-0.8c0,0-0.2,0-0.2,0.2l-7.5,4.2
	c-1.1,0.9-1.9,2.1-2.3,3.4c-0.4,0.8-0.6,1.3-1.1,2.1l0,0l-3.4,1.9l0,0l-3.4,1.9l0,0l-3.4,1.9l0,0l-3.4,1.9c-0.4,0.2,0.4-0.4,0.2-0.6
	l0,0c-0.9-0.9-1.9-1.9-3.6-0.9l-7,4.3c-0.8,0.6-0.9,1.5-0.4,2.1c0.4,0.6,1.3,0.9,1.9,0.6l7.4-4.3c0.4-0.2-0.4,0.4-0.2,0.6l0,0
	c0.9,0.9,1.9,1.9,3.4,0.9l3.4-1.9l0,0l3.4-1.9l0,0l3.4-1.9l0,0l3.4-1.9l0,0c1.1-0.9,1.9-2.1,2.3-3.4c0.4-0.8,0.6-1.3,1.1-2.1
	L135.5,39.3z"/>
<path class="st4" d="M98.5,58.7c-0.4-0.8-0.2-1.7,0.6-2.1l7.4-4.3c0.8-0.4,1.7-0.2,2.1,0.6c0.4,0.8,0.2,1.7-0.6,2.1l0,0l-7.4,4.3
	C99.8,59.9,98.9,59.5,98.5,58.7z M125.9,42.8c-0.4-0.8-0.2-1.7,0.6-2.1l7.4-4.3c0.8-0.4,1.7-0.2,2.1,0.6c0.4,0.8,0.2,1.7-0.6,2.1
	l0,0l-7.4,4.3C127.2,44,126.2,43.6,125.9,42.8z"/>
<path class="st10" d="M170.7,134.4c0.2,0.8,0.9,1.1,1.7,0.9s1.1-0.9,0.9-1.7c0-0.2,0-0.2-0.2-0.4l-16.6-36.1
	c-0.2-0.8-0.9-1.1-1.7-0.9c-0.8,0.2-1.1,0.9-0.9,1.7c0,0.2,0,0.2,0.2,0.4L170.7,134.4z"/>
<path class="st10" d="M118.9,66.9c-0.4-1.1-1.5-1.7-2.6-1.3c-1.1,0.4-1.7,1.5-1.3,2.6c0,0.2,0.2,0.4,0.2,0.6l28.3,57.1
	c0.8,0.9,2.1,1.1,3,0.6c0.8-0.6,1.1-1.5,0.8-2.5L118.9,66.9z"/>
<path class="st4" d="M144,116.6c3,1.9,4.9,5.1,5.1,8.7c0,2.8-1.9,4.2-4.3,3.2v4.9h-1.5v-5.7c-2.5-2.1-4-4.9-4.3-8.1
	C139.1,116.4,141.1,115.1,144,116.6z"/>
<linearGradient id="SVGID_6_" gradientUnits="userSpaceOnUse" x1="-8430.7197" y1="57.4932" x2="-8429.1689" y2="79.7692" gradientTransform="matrix(-1 0 0 1 -8290.0576 74.3937)">
	<stop  offset="0" style="stop-color:#FFEBDC"/>
	<stop  offset="1" style="stop-color:#BFBCAF"/>
</linearGradient>
<polygon class="st12" points="145.8,133.8 139.1,137.6 135.1,135.3 141.9,131.5 "/>
<path class="st6" d="M164.5,82c0.4-1.1-0.4-2.3-1.5-2.6c-0.9-0.4-2.1,0.2-2.5,1.1l-3.2,8.1c-0.4,1.1,0.2,2.3,1.1,2.8
	c0.9,0.6,2.3-0.2,2.8-1.1L164.5,82z"/>
<path class="st4" d="M158.7,85.2l-6.8-8.7c-0.8-1.3-0.8-2.8,0-4.2c0.4-0.6,1.1-0.9,1.9-0.8l19.2,5.1c2.1,0.6,1.7,4.7,0.4,5.3
	l-8.1,4.5C163.2,87.9,160.4,87.3,158.7,85.2z"/>
<path class="st7" d="M158.7,83.1l-6.8-8.9c-0.6-0.8-0.6-1.9,0.2-2.5c0.4-0.4,1.1-0.6,1.7-0.4l19.2,5.1c0.9,0.2,1.5,1.1,1.3,2.1
	c-0.2,0.4-0.4,0.8-0.8,1.1l-8.1,4.5C163.2,85.6,160.4,85,158.7,83.1z"/>
<path class="st13" d="M19.7,118.3c0,11.3,15.8,20.6,35.5,20.6s35.5-9.3,35.5-20.6v-17.4H19.7V118.3z"/>
<ellipse class="st14" cx="55.1" cy="100.9" rx="35.5" ry="20.6"/>
<ellipse class="st13" cx="55.1" cy="100.9" rx="22.4" ry="12.5"/>
<path class="st13" d="M19.7,95.6c0,11.3,15.8,20.6,35.5,20.6s35.5-9.3,35.5-20.6V78.4H19.7V95.6z"/>
<ellipse class="st14" cx="55.1" cy="78.4" rx="35.5" ry="20.6"/>
<ellipse class="st13" cx="55.1" cy="78.4" rx="22.4" ry="12.5"/>
<path class="st13" d="M19.7,73.1c0,11.3,15.8,20.6,35.5,20.6s35.5-9.3,35.5-20.6V55.7H19.7V73.1z"/>
<ellipse class="st14" cx="55.1" cy="55.7" rx="35.5" ry="20.6"/>
<ellipse class="st13" cx="55.1" cy="55.7" rx="22.4" ry="12.5"/>
<path class="st13" d="M19.7,50.4C19.7,61.8,35.5,71,55.1,71s35.5-9.3,35.5-20.6V33.2H19.7V50.4z"/>
<ellipse class="st14" cx="55.1" cy="33.2" rx="35.5" ry="20.6"/>
<ellipse class="st13" cx="55.1" cy="33.2" rx="22.4" ry="12.5"/>
<polygon class="st15" points="94.6,168 128.9,148.2 128.9,108.7 94.6,128.5 "/>
<polygon class="st16" points="94.6,168 60.4,148.2 60.4,108.7 94.6,128.5 "/>
<polygon class="st17" points="128.9,108.7 94.6,88.8 60.4,108.7 83,121.7 94.6,128.5 "/>
<polygon class="st18" points="78.9,126.1 74.6,123.4 74.6,116.8 78.9,119.3 "/>
<polygon class="st19" points="113,99.4 108.7,96.9 74.6,116.8 78.9,119.3 "/>
<g id="_Group_">
	
		<linearGradient id="_Path__1_" gradientUnits="userSpaceOnUse" x1="104.7559" y1="54.0311" x2="118.6927" y2="54.0311" gradientTransform="matrix(1 0 0 1 0 74.3937)">
		<stop  offset="6.000000e-02" style="stop-color:#C6C6C5"/>
		<stop  offset="1" style="stop-color:#9C9B9B"/>
	</linearGradient>
	<polygon id="_Path_" class="st20" points="104.7,127.2 118.7,119.1 118.7,129.7 104.7,137.8 	"/>
	<g id="_Group_2">
		<g id="_Group_3">
			<polygon id="_Path_2" class="st21" points="108.9,126.6 108.9,127.2 105.9,128.9 105.9,128.5 			"/>
		</g>
		<g id="_Group_4">
			<polygon id="_Path_3" class="st21" points="117.7,127.8 117.7,128.3 114.7,130 114.7,129.7 			"/>
		</g>
		<g id="_Group_5">
			<polygon id="_Path_4" class="st21" points="117.7,128.7 117.7,129.3 114.7,131 114.7,130.6 			"/>
		</g>
		<g id="_Group_6">
			<polygon id="_Path_5" class="st21" points="113.4,125.5 113.4,125.9 105.9,130.4 105.9,129.8 			"/>
		</g>
		<g id="_Group_7">
			<polygon id="_Path_6" class="st21" points="113.4,126.4 113.4,127 105.9,131.4 105.9,131 			"/>
		</g>
		<g id="_Group_8">
			<polygon id="_Path_7" class="st21" points="111.3,128.7 111.3,129.3 105.9,132.5 105.9,131.9 			"/>
		</g>
	</g>
</g>
<polygon class="st15" points="135.1,192.3 169.4,172.4 169.4,132.7 135.1,152.5 "/>
<polygon class="st16" points="135.1,192.3 101,172.4 101,132.7 135.1,152.5 "/>
<polygon class="st17" points="169.4,132.7 135.1,113 101,132.7 123.6,145.9 135.1,152.5 "/>
<polygon class="st18" points="119.4,150.1 115.1,147.6 115.1,141 119.4,143.5 "/>
<polygon class="st19" points="153.6,123.6 149.2,121.1 115.1,141 119.4,143.5 "/>
<g id="_Group_9">
	
		<linearGradient id="_Path_8_1_" gradientUnits="userSpaceOnUse" x1="145.3026" y1="78.2381" x2="159.2583" y2="78.2381" gradientTransform="matrix(1 0 0 1 0 74.3937)">
		<stop  offset="6.000000e-02" style="stop-color:#C6C6C5"/>
		<stop  offset="1" style="stop-color:#9C9B9B"/>
	</linearGradient>
	<polygon id="_Path_8" class="st22" points="145.3,151.4 159.2,143.3 159.2,153.7 145.3,162 	"/>
	<g id="_Group_10">
		<g id="_Group_11">
			<polygon id="_Path_9" class="st21" points="149.4,150.8 149.4,151.2 146.4,153.1 146.4,152.5 			"/>
		</g>
		<g id="_Group_12">
			<polygon id="_Path_10" class="st21" points="158.3,152 158.3,152.5 155.3,154.2 155.3,153.7 			"/>
		</g>
		<g id="_Group_13">
			<polygon id="_Path_11" class="st21" points="158.3,152.9 158.3,153.5 155.3,155.2 155.3,154.6 			"/>
		</g>
		<g id="_Group_14">
			<polygon id="_Path_12" class="st21" points="154,149.5 154,150.1 146.4,154.4 146.4,154.1 			"/>
		</g>
		<g id="_Group_15">
			<polygon id="_Path_13" class="st21" points="154,150.6 154,151 146.4,155.6 146.4,155 			"/>
		</g>
		<g id="_Group_16">
			<polygon id="_Path_14" class="st21" points="151.9,152.9 151.9,153.5 146.4,156.5 146.4,156.1 			"/>
		</g>
	</g>
</g>
</svg>
