<?xml version="1.0" encoding="utf-8"?>
<!-- Generator: Adobe Illustrator 23.0.0, SVG Export Plug-In . SVG Version: 6.00 Build 0)  -->
<svg version="1.1" id="Layer_1" xmlns="http://www.w3.org/2000/svg" xmlns:xlink="http://www.w3.org/1999/xlink" x="0px" y="0px"
	 width="167.8px" height="122.4px" viewBox="461.4 547.3 167.8 122.4" style="enable-background:new 461.4 547.3 167.8 122.4;"
	 xml:space="preserve">
<style type="text/css">
	.st0{fill:none;stroke:#E0A904;stroke-miterlimit:10;}
</style>
<path class="st0" d="M581.9,617.3l30-17.4v-34.7l-30-17.4l-30,17.4v34.7L581.9,617.3z"/>
<path class="st0" d="M491.9,669.3l30-17.4v-34.7l-30-17.4l-30,17.4V652L491.9,669.3z"/>
<path class="st0" d="M611.9,669.3l30-17.4v-34.7l-30-17.4l-30,17.4V652L611.9,669.3z"/>
<path class="st0" d="M551.9,669.3l30-17.4v-34.7l-30-17.4l-30,17.4V652L551.9,669.3z"/>
<path class="st0" d="M611.9,773.8l30-17.4v-34.7l-30-17.4l-30,17.4v34.7L611.9,773.8z"/>
<path class="st0" d="M581.9,825.8l30-17.4v-34.7l-30-17.4l-30,17.4v34.7L581.9,825.8z"/>
<path class="st0" d="M521.9,825.8l30-17.4v-34.7l-30-17.4l-30,17.4v34.7L521.9,825.8z"/>
<path class="st0" d="M491.9,773.8l30-17.4v-34.7l-30-17.4l-30,17.4v34.7L491.9,773.8z"/>
<path class="st0" d="M581.9,721.4l30-17.4v-34.7l-30-17.4l-30,17.4v34.7L581.9,721.4z"/>
<path class="st0" d="M521.9,721.4l30-17.4v-34.7l-30-17.4l-30,17.4v34.7L521.9,721.4z"/>
</svg>
