<?xml version="1.0" encoding="utf-8"?>
<!-- Generator: Adobe Illustrator 23.0.0, SVG Export Plug-In . SVG Version: 6.00 Build 0)  -->
<svg version="1.1" id="Layer_1" xmlns="http://www.w3.org/2000/svg" xmlns:xlink="http://www.w3.org/1999/xlink" x="0px" y="0px"
	 width="330px" height="157px" viewBox="312.8 544.6 330 157" style="enable-background:new 312.8 544.6 330 157;"
	 xml:space="preserve">
<style type="text/css">
	.st0{fill:none;stroke:#EDEDED;stroke-miterlimit:10;}
</style>
<g>
	<path class="st0" d="M582.6,613.7l30.1-17.2V562l-30.1-17.2L552.5,562v34.5L582.6,613.7z"/>
	<path class="st0" d="M492.3,665.4l30.1-17.2v-34.5l-30.1-17.2l-30.1,17.2v34.5L492.3,665.4z"/>
	<path class="st0" d="M612.7,665.4l30.1-17.2v-34.5l-30.1-17.2l-30.1,17.2v34.5L612.7,665.4z"/>
	<path class="st0" d="M552.5,665.4l30.1-17.2v-34.5l-30.1-17.2l-30.1,17.2v34.5L552.5,665.4z"/>
	<path class="st0" d="M612.7,769.3l30.1-17.2v-34.5l-30.1-17.2l-30.1,17.2V752L612.7,769.3z"/>
	<path class="st0" d="M582.6,821l30.1-17.2v-34.5L582.6,752l-30.1,17.2v34.5L582.6,821z"/>
	<path class="st0" d="M522.4,821l30.1-17.2v-34.5L522.4,752l-30.1,17.2v34.5L522.4,821z"/>
	<path class="st0" d="M492.3,769.3l30.1-17.2v-34.5l-30.1-17.2l-30.1,17.2V752L492.3,769.3z"/>
	<path class="st0" d="M582.6,717.2l30.1-17.2v-34.5l-30.1-17.2l-30.1,17.2V700L582.6,717.2z"/>
	<path class="st0" d="M522.4,717.2l30.1-17.2v-34.5l-30.1-17.2l-30.1,17.2V700L522.4,717.2z"/>
	<path class="st0" d="M433.1,665.6l30.1-17.2v-34.5l-30.1-17.2l-30.1,17.2v34.5L433.1,665.6z"/>
	<path class="st0" d="M342.9,717.4l30.1-17.2v-34.5l-30.1-17.2l-30.1,17.2v34.5L342.9,717.4z"/>
	<path class="st0" d="M463.2,717.4l30.1-17.2v-34.5l-30.1-17.2l-30.1,17.2v34.5L463.2,717.4z"/>
	<path class="st0" d="M403.1,717.4l30.1-17.2v-34.5l-30.1-17.2L373,665.7v34.5L403.1,717.4z"/>
	<path class="st0" d="M463.2,821.2l30.1-17.2v-34.5l-30.1-17.2l-30.1,17.2V804L463.2,821.2z"/>
	<path class="st0" d="M433.1,872.9l30.1-17.2v-34.5l-30.1-17.2l-30.1,17.2v34.5L433.1,872.9z"/>
	<path class="st0" d="M373,872.9l30.1-17.2v-34.5L373,803.9l-30.1,17.2v34.5L373,872.9z"/>
	<path class="st0" d="M342.9,821.2L373,804v-34.5l-30.1-17.2l-30.1,17.2V804L342.9,821.2z"/>
	<path class="st0" d="M433.1,769.2l30.1-17.2v-34.5l-30.1-17.2l-30.1,17.2v34.5L433.1,769.2z"/>
	<path class="st0" d="M373,769.2l30.1-17.2v-34.5L373,700.2l-30.1,17.2v34.5L373,769.2z"/>
</g>
</svg>
