<?xml version="1.0" encoding="utf-8"?>
<!-- Generator: Adobe Illustrator 23.0.0, SVG Export Plug-In . SVG Version: 6.00 Build 0)  -->
<svg version="1.1" id="Capa_1" xmlns="http://www.w3.org/2000/svg" xmlns:xlink="http://www.w3.org/1999/xlink" x="0px" y="0px"
	 width="11px" height="11px" viewBox="0 0 11 11" style="enable-background:new 0 0 11 11;" xml:space="preserve">
<style type="text/css">
	.st0{fill:#B2B2B2;}
</style>
<g>
	<path class="st0" d="M9.5,4.2L9.2,3.6c0,0,0.6-1.5,0.6-1.5L8.9,1.2C8.9,1.1,7.4,1.8,7.4,1.8L6.8,1.5c0,0-0.6-1.5-0.7-1.5H4.9
		C4.8,0,4.2,1.5,4.2,1.5L3.6,1.8c0,0-1.5-0.6-1.5-0.6L1.2,2.1C1.1,2.1,1.8,3.6,1.8,3.6L1.5,4.2c0,0-1.5,0.6-1.5,0.7v1.2
		c0,0.1,1.5,0.6,1.5,0.6l0.3,0.7c0,0-0.6,1.5-0.6,1.5l0.9,0.9c0.1,0.1,1.5-0.6,1.5-0.6l0.7,0.3c0,0,0.6,1.5,0.7,1.5h1.2
		c0.1,0,0.6-1.5,0.6-1.5l0.7-0.3c0,0,1.5,0.6,1.5,0.6l0.9-0.9c0.1-0.1-0.6-1.5-0.6-1.5l0.3-0.7c0,0,1.5-0.6,1.5-0.7V4.9
		C11,4.8,9.5,4.2,9.5,4.2z M7.3,5.5c0,1-0.8,1.8-1.8,1.8c-1,0-1.8-0.8-1.8-1.8s0.8-1.8,1.8-1.8C6.5,3.7,7.3,4.5,7.3,5.5z"/>
</g>
</svg>
