<?xml version="1.0" encoding="utf-8"?>
<!-- Generator: Adobe Illustrator 23.0.0, SVG Export Plug-In . SVG Version: 6.00 Build 0)  -->
<svg version="1.1" id="Слой_1" focusable="false"
	 xmlns="http://www.w3.org/2000/svg" xmlns:xlink="http://www.w3.org/1999/xlink" x="0px" y="0px" width="10px" height="11px"
	 viewBox="0 0 10 11" style="enable-background:new 0 0 10 11;" xml:space="preserve">
<style type="text/css">
	.st0{fill:#959CA5;}
</style>
<path class="st0" d="M5,5.5c1.6,0,2.9-1.2,2.9-2.8S6.6,0,5,0S2.1,1.2,2.1,2.8S3.4,5.5,5,5.5z M7,6.2H6.6C6.1,6.4,5.6,6.5,5,6.5
	S3.9,6.4,3.4,6.2H3c-1.7,0-3,1.3-3,2.9V10c0,0.6,0.5,1,1.1,1h7.9c0.6,0,1.1-0.5,1.1-1V9.1C10,7.5,8.7,6.2,7,6.2z"/>
</svg>
