<?xml version="1.0" encoding="utf-8"?>
<!-- Generator: Adobe Illustrator 23.0.0, SVG Export Plug-In . SVG Version: 6.00 Build 0)  -->
<svg version="1.1" id="Capa_1" xmlns="http://www.w3.org/2000/svg" xmlns:xlink="http://www.w3.org/1999/xlink" x="0px" y="0px"
	 viewBox="0 0 11 12" style="enable-background:new 0 0 11 12;" xml:space="preserve">
<style type="text/css">
	.st0{fill:#222426;}
</style>
<g>
	<g>
		<path class="st0" d="M5.5,5.9c1.6,0,2.9-1.3,2.9-2.9C8.4,1.3,8,0,5.5,0S2.6,1.3,2.6,2.9C2.6,4.6,3.9,5.9,5.5,5.9z"/>
		<path class="st0" d="M0,10.3C0,10.3,0,10.3,0,10.3L0,10.3z"/>
		<path class="st0" d="M11,10.4C11,10.4,11,10.2,11,10.4L11,10.4z"/>
		<path class="st0" d="M11,10.2c-0.1-2.8-0.5-3.6-3.9-4.1c0,0-0.5,0.5-1.6,0.5S3.9,6.1,3.9,6.1c-3.4,0.5-3.8,1.3-3.9,4
			c0,0.2,0,0.2,0,0.2c0,0,0,0.1,0,0.3c0,0,0.8,1.4,5.5,1.4c4.7,0,5.5-1.4,5.5-1.4c0-0.1,0-0.2,0-0.2C11,10.4,11,10.4,11,10.2z"/>
	</g>
</g>
</svg>
