<?xml version="1.0" encoding="utf-8"?>
<!-- Generator: Adobe Illustrator 23.0.0, SVG Export Plug-In . SVG Version: 6.00 Build 0)  -->
<svg version="1.1" id="Слой_1" xmlns="http://www.w3.org/2000/svg" xmlns:xlink="http://www.w3.org/1999/xlink" x="0px" y="0px"
	 width="19px" height="20px" viewBox="0 0 19 20" style="enable-background:new 0 0 19 20;" xml:space="preserve">
<style type="text/css">
	.st0{fill:#5C6066;}
</style>
<path class="st0" d="M16.9,1.9C16.4,1.5,14.3,0,9.9,0c0,0-5.3-0.3-7.9,2C0.6,3.5,0.1,5.6,0,8.2s-0.1,7.5,4.6,8.8h0l0,2
	c0,0,0,0.8,0.5,1c0.6,0.2,1-0.4,1.7-1.1c0.3-0.4,0.8-0.9,1.2-1.3c3.2,0.3,5.7-0.3,6-0.4c0.6-0.2,4.3-0.7,4.9-5.5
	C19.4,6.6,18.5,3.4,16.9,1.9z M17.4,11.2c-0.5,4.1-3.5,4.3-4,4.5c-0.2,0.1-2.4,0.6-5.1,0.4c0,0-2,2.4-2.7,3.1
	c-0.2,0.2-0.4,0.2-0.4-0.2c0-0.3,0-3.3,0-3.3c0,0,0,0,0,0c-4-1.1-3.7-5.2-3.7-7.4c0-2.2,0.5-3.9,1.7-5.1c2.2-2,6.7-1.7,6.7-1.7
	c3.8,0,5.6,1.2,6,1.5C17.2,4.2,17.9,7,17.4,11.2L17.4,11.2z M12,8.1c0,0.3-0.5,0.4-0.5,0c0-0.9-0.4-1.3-1.3-1.3
	c-0.3,0-0.3-0.5,0-0.5C11.3,6.3,11.9,6.9,12,8.1z M12.8,8.5c0-1.7-1-3-3-3.1c-0.3,0-0.3-0.5,0-0.5c2.3,0.2,3.5,1.7,3.4,3.6
	C13.3,8.8,12.7,8.8,12.8,8.5L12.8,8.5z M14.6,9c0,0.3-0.5,0.3-0.5,0c0-3.2-2.1-4.9-4.7-4.9C9,4.1,9,3.6,9.4,3.6
	C12.2,3.6,14.6,5.6,14.6,9z M14.2,12.8L14.2,12.8c-0.4,0.7-1.2,1.6-2,1.3l0,0c-0.8-0.2-2.8-1.2-4-2.2c-0.6-0.5-1.2-1.1-1.7-1.7
	C6.1,9.8,5.7,9.2,5.3,8.5c-0.8-1.5-1-2.2-1-2.2C4,5.5,4.8,4.7,5.5,4.3h0c0.4-0.2,0.7-0.1,0.9,0.2c0,0,0.5,0.6,0.7,0.9
	C7.4,5.5,7.6,6,7.8,6.2c0.2,0.4,0.1,0.9-0.1,1L7.2,7.6C6.9,7.8,6.9,8.2,6.9,8.2s0.7,2.6,3.3,3.3c0,0,0.4,0,0.5-0.2l0.4-0.5
	c0.2-0.2,0.6-0.4,1-0.1c0.6,0.3,1.3,0.8,1.8,1.3C14.3,12.1,14.3,12.5,14.2,12.8L14.2,12.8z"/>
</svg>
