<?xml version="1.0" encoding="utf-8"?>
<!-- Generator: Adobe Illustrator 23.0.0, SVG Export Plug-In . SVG Version: 6.00 Build 0)  -->
<svg version="1.1" id="Layer_1" xmlns="http://www.w3.org/2000/svg" xmlns:xlink="http://www.w3.org/1999/xlink" x="0px" y="0px"
	 width="150px" height="207px" viewBox="461.2 547.5 150 207" style="enable-background:new 461.2 547.5 150 207;"
	 xml:space="preserve">
<style type="text/css">
	.st0{fill:none;stroke:#EDEDED;stroke-miterlimit:10;}
</style>
<path class="st0" d="M581.8,617.7l29.9-17.2V566l-29.9-17.2L551.9,566v34.5L581.8,617.7z"/>
<path class="st0" d="M492.2,669.4l29.9-17.2v-34.5l-29.9-17.2l-29.9,17.2v34.5L492.2,669.4z"/>
<path class="st0" d="M611.7,669.4l29.9-17.2v-34.5l-29.9-17.2l-29.9,17.2v34.5L611.7,669.4z"/>
<path class="st0" d="M551.9,669.4l29.9-17.2v-34.5l-29.9-17.2l-29.9,17.2v34.5L551.9,669.4z"/>
<path class="st0" d="M611.7,773.3l29.9-17.2v-34.5l-29.9-17.2l-29.9,17.2V756L611.7,773.3z"/>
<path class="st0" d="M581.8,825l29.9-17.2v-34.5L581.8,756l-29.9,17.2v34.5L581.8,825z"/>
<path class="st0" d="M522.1,825l29.9-17.2v-34.5L522.1,756l-29.9,17.2v34.5L522.1,825z"/>
<path class="st0" d="M492.2,773.3l29.9-17.2v-34.5l-29.9-17.2l-29.9,17.2V756L492.2,773.3z"/>
<path class="st0" d="M581.8,721.2l29.9-17.2v-34.5l-29.9-17.2l-29.9,17.2V704L581.8,721.2z"/>
<path class="st0" d="M522.1,721.2l29.9-17.2v-34.5l-29.9-17.2l-29.9,17.2V704L522.1,721.2z"/>
</svg>
