<?xml version="1.0" encoding="utf-8"?>
<!-- Generator: Adobe Illustrator 23.0.0, SVG Export Plug-In . SVG Version: 6.00 Build 0)  -->
<svg version="1.1" id="Capa_1" xmlns="http://www.w3.org/2000/svg" xmlns:xlink="http://www.w3.org/1999/xlink" x="0px" y="0px"
	 width="84px" height="58px" viewBox="0 0 84 58" style="enable-background:new 0 0 84 58;" xml:space="preserve">
<style type="text/css">
	.st0{fill:#FDB62F;}
	.st1{fill:#E5E5E5;}
	.st2{fill:#DE4C3C;}
	.st3{fill:#4398D1;}
	.st4{fill:#3E8CC7;}
	.st5{fill:#126099;}
	.st6{fill:#CFCFCF;}
	.st7{fill:#FFA230;}
</style>
<g>
	<polyline class="st0" points="62.6,50.9 56.9,50.9 56.9,18.4 75.5,18.4 84,39.6 84,50.9 76.9,50.9 	"/>
	<polyline class="st0" points="14.2,50.9 1.4,50.9 1.4,7.1 56.9,7.1 56.9,50.9 28.5,50.9 	"/>
</g>
<rect x="79.7" y="43.9" class="st1" width="4.3" height="2.8"/>
<g>
	<path class="st2" d="M7.1,18.4v12.7H10v-5.7h5.7v-2.8H10v-2.8h5.7V17H8.5C7.8,17,7.1,17.6,7.1,18.4z"/>
	<path class="st2" d="M24.2,17h-4.3c-0.8,0-1.4,0.6-1.4,1.4v12.7h2.8v-5.7h2.8c0.8,0,1.4,0.6,1.4,1.4v4.2h2.8v-4.2
		c0-1-0.4-2.1-1.1-2.8c0.7-0.8,1.1-1.8,1.1-2.8C28.5,18.9,26.6,17,24.2,17z M24.2,22.6h-2.8v-2.8h2.8c0.8,0,1.4,0.6,1.4,1.4
		C25.6,22,25,22.6,24.2,22.6z"/>
	<path class="st2" d="M31.3,18.4v11.3c0,0.8,0.6,1.4,1.4,1.4h7.1v-2.8h-5.7v-2.8h5.7v-2.8h-5.7v-2.8h5.7V17h-7.1
		C32,17,31.3,17.6,31.3,18.4z"/>
	<path class="st2" d="M51.3,19.8V17h-7.1c-0.8,0-1.4,0.6-1.4,1.4v11.3c0,0.8,0.6,1.4,1.4,1.4h7.1v-2.8h-5.7v-2.8h5.7v-2.8h-5.7v-2.8
		L51.3,19.8L51.3,19.8z"/>
	<rect x="7.1" y="34" class="st2" width="44.1" height="2.8"/>
</g>
<g>
	<rect x="5.7" class="st1" width="12.8" height="2.8"/>
	<rect class="st1" width="2.8" height="2.8"/>
</g>
<polygon class="st3" points="65.5,35.4 82.3,35.4 77.7,24 65.5,24 "/>
<polygon class="st4" points="65.5,35.3 65.5,35.4 82.3,35.4 78.7,26.4 "/>
<g>
	<ellipse class="st5" cx="69.8" cy="50.9" rx="7.1" ry="7.1"/>
	<ellipse class="st5" cx="21.4" cy="50.9" rx="7.1" ry="7.1"/>
</g>
<ellipse class="st6" cx="21.4" cy="50.9" rx="4.3" ry="4.2"/>
<rect x="19.9" y="49.5" class="st1" width="2.8" height="2.8"/>
<ellipse class="st6" cx="69.8" cy="50.9" rx="4.3" ry="4.2"/>
<rect x="68.3" y="49.5" class="st1" width="2.8" height="2.8"/>
<rect x="56.9" y="18.4" class="st7" width="2.8" height="32.5"/>
</svg>
