<?xml version="1.0" encoding="utf-8"?>
<!-- Generator: Adobe Illustrator 23.0.0, SVG Export Plug-In . SVG Version: 6.00 Build 0)  -->
<svg version="1.1" id="Capa_1" xmlns="http://www.w3.org/2000/svg" xmlns:xlink="http://www.w3.org/1999/xlink" x="0px" y="0px"
	 width="79px" height="70px" viewBox="0 0 79 70" style="enable-background:new 0 0 79 70;" xml:space="preserve">
<style type="text/css">
	.st0{fill:#126099;}
	.st1{fill:#FDB62F;}
	.st2{fill:#FD7B2F;}
	.st3{fill:#FFA230;}
	.st4{fill:#CFCFCF;}
</style>
<path class="st0" d="M79,48.8l-1.4-2.5L48.5,62.2l-5.3-9.6L16.8,3.7C15.6,1.4,13.2,0,10.7,0H0v2.8h10.7c1.5,0,2.9,0.8,3.7,2.2
	l17.8,33v21.3c0,4.5,3.7,8.1,8.1,8.1c0.8,0,1.6-0.1,2.4-0.3l5.6-1.7l0,0l0.3-0.1L79,48.8z M42,64.4c-2.8,0.9-5.8-0.6-6.7-3.4
	c-0.2-0.5-0.3-1.1-0.3-1.6V43.2l5.8,10.7l5.1,9.4L42,64.4z"/>
<rect x="29.8" y="4.7" transform="matrix(0.8714 -0.4906 0.4906 0.8714 -3.1004 23.1785)" class="st1" width="25.7" height="25.7"/>
<rect x="34.9" y="5.7" transform="matrix(0.8658 -0.5003 0.5003 0.8658 0.5393 20.4227)" class="st2" width="7" height="7"/>
<rect x="42.4" y="27.1" transform="matrix(0.8714 -0.4906 0.4906 0.8714 -12.4709 32.2366)" class="st1" width="25.7" height="25.7"/>
<rect x="47.4" y="28.1" transform="matrix(0.8658 -0.5003 0.5003 0.8658 -8.9861 29.7271)" class="st2" width="7" height="7"/>
<g>
	<polygon class="st3" points="60.1,22.4 51.1,6.2 35.3,30.7 37.8,35 	"/>
	<polygon class="st3" points="72.7,44.8 63.6,28.6 47.9,53.1 50.4,57.4 	"/>
</g>
<ellipse class="st4" cx="42" cy="61.6" rx="8.4" ry="8.4"/>
<path class="st0" d="M42,65.8c-2.3,0-4.2-1.9-4.2-4.2s1.9-4.2,4.2-4.2l0,0c1.1,0,2.2,0.4,3,1.2c0.8,0.8,1.2,1.9,1.2,3l0,0
	C46.2,63.9,44.3,65.8,42,65.8L42,65.8z M42,60.2c-0.8,0-1.4,0.6-1.4,1.4c0,0.8,0.6,1.4,1.4,1.4c0.8,0,1.4-0.6,1.4-1.4l0,0
	c0-0.4-0.2-0.7-0.4-1C42.7,60.4,42.3,60.2,42,60.2z"/>
</svg>
