<?xml version="1.0" encoding="utf-8"?>
<!-- Generator: Adobe Illustrator 23.0.0, SVG Export Plug-In . SVG Version: 6.00 Build 0)  -->
<svg version="1.1" id="Capa_1" xmlns="http://www.w3.org/2000/svg" xmlns:xlink="http://www.w3.org/1999/xlink" x="0px" y="0px"
	 width="70px" height="70px" viewBox="0 0 70 70" style="enable-background:new 0 0 70 70;" xml:space="preserve">
<style type="text/css">
	.st0{fill:#4398D1;}
	.st1{fill:#3E8CC7;}
	.st2{fill:#E5E5E5;}
	.st3{fill:#CFCFCF;}
	.st4{fill:#FDB62F;}
	.st5{fill:#FD7B2F;}
	.st6{fill:#FFA230;}
</style>
<polygon class="st0" points="35,0 0,19.3 0,70 6,70 6,26.6 64,26.6 64,70 70,70 70,20.5 "/>
<g>
	<path class="st1" d="M64,70h6V30.8c-2,1.4-4,2.7-6,4V70z"/>
	<path class="st1" d="M0,70h6V58.8c-2.1,0.5-4.1,1-6,1.4V70z"/>
</g>
<rect x="6" y="26.6" class="st2" width="57.9" height="9.7"/>
<rect x="6" y="30.2" class="st3" width="57.9" height="2.4"/>
<rect x="29" y="16.9" class="st2" width="12.1" height="4.8"/>
<rect x="44.7" y="41" class="st4" width="14.5" height="14.5"/>
<rect x="49.5" y="41" class="st5" width="4.8" height="4.8"/>
<path class="st6" d="M44.7,55.5h14.5v-9.8c-4.2,3.5-9.1,5.9-14.5,6.9V55.5z"/>
<rect x="44.7" y="55.5" class="st4" width="14.5" height="14.5"/>
<rect x="49.5" y="55.5" class="st5" width="4.8" height="4.8"/>
<path class="st6" d="M44.7,70h14.5v-9.8c-4.2,3.5-9.1,5.9-14.5,6.9V70z"/>
<rect x="30.2" y="55.5" class="st4" width="14.5" height="14.5"/>
<rect x="35" y="55.5" class="st5" width="4.8" height="4.8"/>
<path class="st6" d="M30.2,70h14.5v-9.8c-4.2,3.5-9.1,5.9-14.5,6.9V70z"/>
<rect x="29" y="21.7" class="st1" width="12.1" height="2.4"/>
</svg>
