<?xml version="1.0" encoding="utf-8"?>
<!-- Generator: Adobe Illustrator 23.0.0, SVG Export Plug-In . SVG Version: 6.00 Build 0)  -->
<svg version="1.1" id="Слой_1" xmlns="http://www.w3.org/2000/svg" xmlns:xlink="http://www.w3.org/1999/xlink" x="0px" y="0px"
	 width="20px" height="20px" viewBox="0 0 20 20" style="enable-background:new 0 0 20 20;" xml:space="preserve">
<style type="text/css">
	.st0{fill:#5C6066;}
</style>
<path class="st0" d="M10,4.1c-3.2,0-5.9,2.6-5.9,5.9c0,1.1,0.3,2.2,0.9,3.1l0.1,0.2l-0.6,2.2l2.2-0.6L7,15c0.9,0.5,1.9,0.8,3,0.8h0
	c3.2,0,6-2.6,6-5.9c0-1.6-0.7-3-1.8-4.2C13,4.7,11.6,4.1,10,4.1L10,4.1z M13.5,12.5c-0.1,0.4-0.9,0.8-1.2,0.8c-0.6,0.1-1,0-2.1-0.4
	c-1.8-0.8-2.9-2.6-3-2.7c-0.1-0.1-0.7-1-0.7-1.8S6.9,7.1,7,6.9c0.2-0.2,0.4-0.2,0.5-0.2c0.1,0,0.2,0,0.3,0c0.1,0,0.3,0,0.4,0.3
	c0.1,0.4,0.5,1.2,0.5,1.3c0,0.1,0.1,0.2,0,0.3c-0.3,0.7-0.7,0.7-0.5,1c0.7,1.2,1.4,1.6,2.4,2.1c0.2,0.1,0.3,0.1,0.4,0
	c0.1-0.1,0.4-0.5,0.6-0.7c0.1-0.2,0.2-0.1,0.4-0.1c0.2,0.1,1,0.5,1.2,0.6c0.2,0.1,0.3,0.1,0.3,0.2C13.6,11.7,13.6,12.1,13.5,12.5z
	 M17.9,0H2.1C1,0,0,1,0,2.1v15.7C0,19,1,20,2.1,20h15.7c1.2,0,2.1-1,2.1-2.1V2.1C20,1,19,0,17.9,0z M10,17c-1.2,0-2.4-0.3-3.4-0.9
	l-3.8,1l1-3.7c-0.6-1.1-0.9-2.3-0.9-3.5C2.9,6,6.1,2.9,10,2.9c1.9,0,3.7,0.7,5,2.1c1.3,1.3,2.1,3.1,2.1,5C17.1,13.8,13.9,17,10,17
	L10,17z"/>
</svg>
